<svg width="406" height="565" viewBox="0 0 406 565" fill="none" xmlns="http://www.w3.org/2000/svg">
<g clip-path="url(#clip0_362_3)">
<path d="M170.781 552.257C173.583 455.56 130.125 274.066 130.125 274.066L70.79 233.341V324.46V423.017L126.7 564.902H178.999L170.781 552.257Z" fill="#883876"/>
<path d="M130.125 423.451C130.125 351.3 108.583 292.786 81.9972 292.786C78.1371 292.786 74.4014 294.025 70.8525 296.319V324.46V423.017L111.633 526.471C122.84 502.607 130.125 465.354 130.125 423.451Z" fill="#0C162F"/>
<path d="M112.505 253.177C112.505 253.177 125.082 457.419 89.5934 554.117L97.0025 564.964H33.8699C33.8699 564.964 26.959 305.183 26.959 249.148L112.505 253.177Z" fill="#AA4693"/>
<path d="M95.5703 95.1134V121.705L62.5098 129.763V84.9478L95.5703 76.8897V95.1134Z" fill="#B6DEF6"/>
<path d="M76.8922 104.287C77.3736 104.287 77.7638 103.899 77.7638 103.42C77.7638 102.94 77.3736 102.552 76.8922 102.552C76.4108 102.552 76.0205 102.94 76.0205 103.42C76.0205 103.899 76.4108 104.287 76.8922 104.287Z" fill="#0C162F"/>
<path d="M90.4644 104.287C90.9458 104.287 91.3361 103.899 91.3361 103.42C91.3361 102.94 90.9458 102.552 90.4644 102.552C89.983 102.552 89.5928 102.94 89.5928 103.42C89.5928 103.899 89.983 104.287 90.4644 104.287Z" fill="#0C162F"/>
<path d="M87.1026 108.688H85.8574V94.4936H93.3287V95.7333H87.1026V108.688Z" fill="#0C162F"/>
<path d="M82.0596 94.4936H75.2109V95.7333H82.0596V94.4936Z" fill="#0C162F"/>
<path d="M64.6893 102.056V106.767C62.1366 106.767 60.082 104.721 60.082 102.18C60.082 102.056 60.082 101.87 60.082 101.746C60.3933 98.8946 64.6893 99.2045 64.6893 102.056Z" fill="#B6DEF6"/>
<path d="M64.6889 107.387C61.8249 107.387 59.459 105.031 59.459 102.18H60.7042C60.7042 104.349 62.5098 106.147 64.6889 106.147V107.387Z" fill="#0C162F"/>
<path d="M83.4914 112.655C80.5651 112.655 78.1992 110.3 78.1992 107.387H79.4444C79.4444 109.618 81.25 111.416 83.4914 111.416V112.655Z" fill="#FF6498"/>
<path d="M70.6522 127.162L62.3682 129.185L62.6649 130.389L70.949 128.366L70.6522 127.162Z" fill="#0C162F"/>
<path d="M83.492 110.052C83.2429 110.052 82.9316 109.866 82.8694 109.556C82.8071 109.246 82.9939 108.874 83.3052 108.812L86.2937 108.068C86.605 108.006 86.9786 108.192 87.0408 108.502C87.1031 108.812 86.9163 109.184 86.605 109.246L83.6165 109.99C83.6165 110.052 83.5542 110.052 83.492 110.052Z" fill="#0C162F"/>
<path d="M80.9391 129.949C80.6278 129.949 80.3165 129.949 80.0052 129.949C75.647 129.825 72.2226 128.338 69.7322 125.424C63.9419 118.73 65.3739 107.201 65.4362 106.767L66.6814 106.953C66.6814 107.077 65.3117 118.42 70.7284 124.681C72.9697 127.284 76.1451 128.648 80.1297 128.772C86.3558 128.896 90.5896 127.532 93.1423 124.495C96.3176 120.775 96.9402 114.639 95.0101 105.155L96.2553 104.907C98.1854 114.763 97.5005 121.271 94.0762 125.3C91.2744 128.338 87.0407 129.949 80.9391 129.949Z" fill="#0C162F"/>
<path d="M69.3581 107.573C67.8638 103.853 68.2374 97.2829 68.2996 96.973V96.5391L68.6732 96.4151C71.2259 95.6093 72.1598 90.7745 72.2843 88.9769L72.3466 88.419H72.9069C79.6311 88.295 97.3755 86.7454 98.1226 81.2907C98.3094 79.865 97.0019 78.3153 94.4492 76.8897C86.9779 72.6747 70.292 70.5052 63.8169 75.7739C55.4116 82.6543 61.3264 99.8243 61.3887 99.9483L60.2057 100.382C59.9567 99.6384 53.9796 82.2204 63.0075 74.8441C70.0429 69.0795 87.2892 71.4969 95.0096 75.8359C98.1226 77.5715 99.5546 79.5551 99.3055 81.5386C98.3094 88.605 77.701 89.5967 73.405 89.7207C73.2182 91.3943 72.3466 96.1672 69.4203 97.5309C69.3581 99.0185 69.2335 104.225 70.4165 107.201L69.3581 107.573Z" fill="#0C162F"/>
<path d="M27.9551 177.306V249.086L130.125 274.066V194.104C130.125 165.777 110.7 141.045 83.0559 134.288C55.0386 127.47 27.9551 148.545 27.9551 177.306Z" fill="#B6DEF6"/>
<path d="M90.1537 554.303L88.9707 553.869C107.275 503.971 112.505 424.939 113.688 367.354C114.996 304.935 111.883 253.735 111.82 253.177L113.066 253.115C113.128 253.611 116.179 304.935 114.933 367.354C113.813 425.001 108.521 504.28 90.1537 554.303Z" fill="#0C162F"/>
<path d="M133.861 177.368C122.84 157.347 105.906 145.942 105.719 145.818L106.404 144.764C106.59 144.888 123.774 156.479 134.919 176.748L133.861 177.368Z" fill="#0C162F"/>
<path d="M97.0018 241.276C92.0209 245.305 81.6856 235.573 86.6665 230.366L146.873 173.897C151.542 169.062 162.189 179.476 157.208 184.807L97.0018 241.276Z" fill="#AA4693"/>
<path d="M29.0752 92.634L26.0244 103.296L40.0954 99.6384L34.0561 89.6587L34.1183 84.142L27.7677 85.7536L29.0752 92.634Z" fill="#B6DEF6"/>
<path d="M53.7306 93.0679L54.3532 92.0142L29.7602 77.8195L75.0238 42.3637L126.7 58.6659L101.671 75.0301L102.356 76.0839L129.564 58.232L74.7748 41L74.5257 41.186L27.5811 78.0054L53.7306 93.0679Z" fill="#AA4693"/>
<path d="M30.2947 78.5395L29.0674 78.7487L32.5881 99.2149L33.8154 99.0056L30.2947 78.5395Z" fill="#AA4693"/>
<path d="M38.1655 97.7168L39.224 97.035L33.994 89.1628L33.4337 85.7536L32.1885 86.0016L32.8111 89.6587L38.1655 97.7168Z" fill="#AA4693"/>
<path d="M28.0167 99.4524L30.3826 90.0926L29.6977 86.4355L28.5148 86.6214L29.0751 90.0306L26.7715 99.1425L28.0167 99.4524Z" fill="#AA4693"/>
<path d="M37.6051 271.153C17.2458 271.153 4.79363 263.652 1.4938 249.272C-4.10967 224.601 7.28407 197.266 17.8062 178.67C29.1999 158.587 42.1502 144.082 42.2747 143.958L43.2086 144.764C43.0841 144.888 30.2583 159.331 18.9268 179.29C8.46702 197.7 -2.8022 224.725 2.73902 248.962C6.97276 267.557 26.3982 270.533 41.9011 269.789C57.9644 268.983 78.1369 263.652 95.819 255.532C112.38 247.908 123.587 239.168 124.335 233.341C124.957 228.197 124.21 224.911 122.031 223.548C117.548 220.758 108.396 226.709 108.333 226.771L107.213 227.515L107.337 226.213C107.711 222.928 107.524 219.643 106.901 219.395C106.839 219.395 106.528 219.457 105.905 220.138C102.232 224.229 99.3679 227.577 99.3679 227.577L99.1811 227.825L53.9175 222.68L65.3112 197.514L66.4319 198.01L55.723 221.626L98.6208 226.523C99.3679 225.655 101.858 222.742 104.971 219.333C105.283 218.961 106.341 217.783 107.4 218.279C108.894 218.961 108.832 222.68 108.645 225.097C111.322 223.548 118.42 219.952 122.591 222.556C125.206 224.167 126.202 227.887 125.455 233.527C124.646 239.912 113.439 248.776 96.2549 256.71C78.4482 264.954 58.0889 270.285 41.8388 271.091C40.4068 271.091 38.9748 271.153 37.6051 271.153Z" fill="#0C162F"/>
<path d="M130.374 251.751C130.312 251.751 130.25 251.751 130.188 251.751V250.511C130.25 250.511 130.312 250.511 130.374 250.511C142.017 250.511 156.462 236.441 161.692 209.415C163.684 199.187 162.376 191.191 157.831 185.674C151.481 177.926 140.772 177.74 140.71 177.74C140.461 177.74 134.795 177.74 132.616 183.691C132.055 185.179 132.118 185.984 132.304 186.17C132.802 186.666 135.044 185.798 136.227 185.302C137.161 184.931 137.97 184.621 138.53 184.559L139.215 184.497V185.179C139.215 185.179 139.215 187.968 141.332 189.703C143.138 191.191 145.877 191.501 149.613 190.757L149.862 191.997C145.815 192.803 142.64 192.369 140.585 190.633C138.717 189.146 138.219 187.038 138.032 185.922C137.659 186.046 137.161 186.232 136.725 186.418C134.795 187.224 132.553 188.092 131.495 187.038C130.81 186.356 130.81 185.179 131.495 183.257C133.923 176.563 140.461 176.439 140.772 176.439C141.208 176.439 152.166 176.625 158.89 184.869C163.684 190.695 165.054 199.001 162.999 209.601C157.582 237.308 142.577 251.751 130.374 251.751Z" fill="#0C162F"/>
</g>
<g clip-path="url(#clip1_362_3)">
<path d="M367.156 161.6L297.363 157.015L279.285 228.417L237.81 455H294.274L287.695 443.195L367.156 161.6Z" fill="#B6DEF6"/>
<path d="M376.252 442.508L379.684 313.572L324.765 323.887L337.522 455H384.432L376.252 442.508Z" fill="#B6DEF6"/>
<path d="M359.376 317.411L324.708 323.944L326.253 339.645C355.085 335.749 374.936 328.013 374.936 328.013L359.376 317.411Z" fill="#0C162F"/>
<path d="M290.555 270.593C290.555 270.593 281.802 273.287 270.246 277.699L259.091 338.671C279.457 342.396 299.251 342.396 316.585 340.734L328.999 296.724L290.555 270.593Z" fill="#0C162F"/>
<path d="M290.555 163.032L221.849 305.778C221.849 305.778 303.37 348.757 384.433 325.548V177.702L290.555 163.032Z" fill="#473C90"/>
<path d="M316.127 20.687V31.2884C316.127 39.483 321.733 46.5888 329.628 48.5372L346.447 52.6631V11.289L332.431 7.85076C324.193 5.78779 316.127 12.1486 316.127 20.687Z" fill="#B6DEF6"/>
<path d="M346.332 53.2935L329.513 49.1675C321.275 47.1618 315.555 39.8268 315.555 31.3457H316.699C316.699 39.3111 322.076 46.1877 329.799 48.0787L346.618 52.1474L346.332 53.2935Z" fill="#0C162F"/>
<path d="M333.289 29.1681C333.732 29.1681 334.09 28.809 334.09 28.3659C334.09 27.9228 333.732 27.5636 333.289 27.5636C332.847 27.5636 332.488 27.9228 332.488 28.3659C332.488 28.809 332.847 29.1681 333.289 29.1681Z" fill="#0C162F"/>
<path d="M320.818 29.1681C321.26 29.1681 321.618 28.809 321.618 28.3659C321.618 27.9228 321.26 27.5636 320.818 27.5636C320.375 27.5636 320.017 27.9228 320.017 28.3659C320.017 28.809 320.375 29.1681 320.818 29.1681Z" fill="#0C162F"/>
<path d="M325.051 33.2368H323.907V21.2601H318.187V20.114H325.051V33.2368Z" fill="#0C162F"/>
<path d="M334.834 20.114H328.541V21.2601H334.834V20.114Z" fill="#0C162F"/>
<path d="M344.502 27.1052V31.4603C346.847 31.4603 348.735 29.5693 348.735 27.2198C348.735 27.1052 348.735 26.9333 348.735 26.8186C348.449 24.1826 344.502 24.4691 344.502 27.1052Z" fill="#B6DEF6"/>
<path d="M344.502 32.0334V30.8873C346.504 30.8873 348.163 29.2254 348.163 27.2198H349.307C349.307 29.8558 347.134 32.0334 344.502 32.0334Z" fill="#0C162F"/>
<path d="M329.857 36.102C328.942 36.102 328.083 35.7582 327.454 35.1278L328.255 34.3256C329.113 35.1851 330.543 35.1851 331.401 34.3256L332.202 35.1278C331.63 35.7582 330.772 36.102 329.857 36.102Z" fill="#FF6498"/>
<path d="M327.226 34.4975C327.168 34.4975 327.111 34.4975 327.111 34.4975L324.365 33.8098C324.079 33.7525 323.85 33.4087 323.965 33.1222C324.079 32.8356 324.365 32.6064 324.651 32.721L327.397 33.4087C327.683 33.466 327.912 33.8098 327.798 34.0964C327.683 34.3256 327.454 34.4975 327.226 34.4975Z" fill="#0C162F"/>
<path d="M317.042 47.9641C314.982 47.9641 312.98 47.3911 311.207 46.1877C308.175 44.182 306.458 40.7437 306.573 37.1335C306.973 25.6726 309.033 10.6587 316.699 3.89673C319.788 1.20341 323.563 5.24684e-06 327.854 0.401139C329.227 0.114615 345.36 -2.75062 351.881 12.3778C358.288 27.1052 351.309 35.4144 346.733 37.7639L346.218 36.7324C346.733 36.5032 358.46 30.2569 350.851 12.8363C344.387 -2.06297 328.197 1.48993 328.026 1.54723H327.911H327.797C323.792 1.1461 320.303 2.23489 317.442 4.7563C310.12 11.2317 308.06 25.9591 307.717 37.1335C307.602 40.3999 309.147 43.3797 311.836 45.2135C314.525 47.0472 317.957 47.3338 320.932 45.9584L321.39 45.7292L321.847 46.7607L321.39 46.9899C319.959 47.6203 318.472 47.9641 317.042 47.9641Z" fill="#0C162F"/>
<path d="M344.845 26.3602C337.58 25.5006 332.031 18.4521 330.143 15.6442C327.683 23.3231 316.413 25.4433 315.898 25.5006L315.727 24.3545C315.841 24.3545 328.026 22.1197 329.342 14.097L329.628 12.5498L330.429 13.8678C330.486 13.9824 336.665 24.1826 345.017 25.1568L344.845 26.3602Z" fill="#0C162F"/>
<path d="M290.555 96.6732V163.032L384.432 186.126V112.203C384.432 86.0145 366.584 63.1499 341.183 56.9037C315.44 50.6001 290.555 70.0838 290.555 96.6732Z" fill="#B6DEF6"/>
<path d="M333.518 332.941C310.234 332.941 288.953 329.101 272.592 324.918C242.386 317.125 221.791 306.409 221.562 306.294L222.077 305.263C222.306 305.377 242.787 316.093 272.878 323.829C300.623 330.935 342.5 336.952 384.261 325.033L384.547 326.121C367.27 331.05 349.879 332.941 333.518 332.941Z" fill="#0C162F"/>
<path d="M375.509 178.046C342.9 178.046 295.875 148.419 293.53 140.683L290.098 129.509C287.695 128.477 278.713 124.581 278.484 121.887C278.427 121.486 278.542 120.913 279.285 120.455C279.915 120.054 281.631 118.965 333.404 129.28C358.918 134.322 384.319 139.766 384.547 139.824L384.319 140.97C344.044 132.374 282.947 120.111 279.857 121.486C279.571 121.658 279.629 121.773 279.629 121.83C279.743 123.377 286.265 126.701 290.784 128.592L291.013 128.707L294.617 140.454C295.761 144.122 309.491 154.379 327.397 163.204C339.983 169.393 363.838 179.364 382.202 176.556C397.305 174.264 404.913 163.72 404.856 145.21C404.742 120.627 392.328 100.226 381.859 87.5044C370.532 73.6939 359.033 65.5567 358.918 65.4994L359.548 64.5825C359.662 64.6398 371.218 72.8344 382.66 86.8167C393.243 99.7103 405.829 120.34 405.943 145.268C406 164.407 398.048 175.353 382.316 177.759C380.142 177.931 377.854 178.046 375.509 178.046Z" fill="#0C162F"/>
<path d="M281.287 182.688C266.528 179.937 253.599 171.227 242.844 156.843C231.974 142.173 226.311 125.383 223.908 116.615C220.19 103.206 219.16 91.1146 221.448 89.1089C222.592 88.1348 223.908 87.6763 225.338 87.9055C229.286 88.4213 233.176 93.2922 234.434 94.954C235.178 94.2664 236.78 93.1203 238.954 93.2349C241.528 93.3495 243.988 95.1832 246.333 98.6788C251.825 106.931 266.184 126.93 269.617 131.686C280.601 83.665 306.573 64.6398 306.859 64.4106L307.546 65.3275C307.26 65.4994 281.173 84.6965 270.475 133.119L270.189 134.38L269.445 133.348C269.274 133.119 251.654 108.593 245.418 99.2519C243.301 96.1001 241.128 94.381 238.954 94.2664C236.551 94.1518 234.892 96.1001 234.892 96.1001L234.377 96.6732L233.977 96.0428C233.919 95.9855 229.457 89.4528 225.281 88.8797C224.137 88.7078 223.164 89.0516 222.249 89.8539C220.762 91.1719 221.105 101.831 225.052 116.214C228.771 129.738 243.873 174.493 281.516 181.484L281.287 182.688Z" fill="#0C162F"/>
<path d="M179.514 73.9087L179.009 74.937L285.46 127.433L285.966 126.405L179.514 73.9087Z" fill="#0C162F"/>
</g>
<defs>
<clipPath id="clip0_362_3">
<rect width="179" height="523.902" fill="white" transform="translate(0 41)"/>
</clipPath>
<clipPath id="clip1_362_3">
<rect width="227" height="455" fill="white" transform="translate(179)"/>
</clipPath>
</defs>
</svg>
