<svg width="150" height="201" viewBox="0 0 150 201" fill="none" xmlns="http://www.w3.org/2000/svg">
<path d="M96.95 100.72C99.3317 98.5513 101.118 95.7867 102.224 92.7244C104.861 85.4515 111.793 80.3052 119.959 80.3052C128.125 80.3052 135.057 85.494 137.694 92.7244C138.8 95.7867 140.586 98.5087 142.968 100.72C146.753 104.165 149.135 109.142 149.135 114.671C149.135 125.091 140.586 133.597 130.166 133.512C129.061 133.512 127.955 133.385 126.934 133.215C122.341 132.364 117.62 132.364 113.027 133.215C111.963 133.385 110.9 133.512 109.794 133.512C99.3743 133.597 90.8257 125.091 90.8257 114.671C90.8257 109.142 93.1648 104.165 96.95 100.72Z" fill="#473C90"/>
<path d="M109.667 133.938C109.709 133.938 109.752 133.938 109.794 133.938C110.9 133.938 112.006 133.81 113.112 133.64C117.662 132.832 122.298 132.832 126.891 133.64L127.062 132.789C122.383 131.939 117.662 131.939 112.984 132.789C111.963 132.96 110.857 133.087 109.794 133.087C109.752 133.087 109.709 133.087 109.667 133.087C104.776 133.087 100.182 131.173 96.6949 127.728C93.1648 124.241 91.251 119.605 91.251 114.671H90.4003C90.4003 119.817 92.4418 124.666 96.0994 128.324C99.7145 131.939 104.563 133.938 109.667 133.938Z" fill="#0C162F"/>
<path d="M119.576 119.983H120.427V199H119.576V119.983Z" fill="#0C162F"/>
<path d="M120.001 120.61L128.295 112.407L127.699 111.821L120.001 119.397L112.303 111.821L111.708 112.407L120.001 120.61Z" fill="#0C162F"/>
<path d="M48.9423 198.7C48.9423 198.7 46.794 194.886 52.2528 194.074C57.7115 193.262 61.832 195.239 61.832 195.239C61.832 195.239 58.0285 190.613 63.9803 188.635C69.9321 186.657 76.0248 191.284 76.0248 191.284C76.0248 191.284 70.073 180.195 74.7217 179.382C79.3704 178.57 81.8005 183.302 81.8005 183.302C81.8005 183.302 81.3074 169.564 90.8866 169.246C100.466 168.929 99.4798 186.799 99.4798 186.799C99.4798 186.799 103.6 178.852 110.538 178.535C117.476 178.217 113.989 191.849 113.989 191.849C113.989 191.849 115.293 188.635 119.941 188.317C124.59 187.999 124.238 191.884 124.238 191.884C124.238 191.884 130.19 183.514 136.775 184.044C143.361 184.574 140.579 192.802 140.579 192.802C147.341 192.308 148.82 199.76 148.82 199.76H44.1879L48.9423 198.7Z" fill="#97D0F2"/>
<path d="M66.2647 41.5545L69.4454 26.9495H59.5601L57.1278 40.1502" fill="#473C90"/>
<path d="M58.2816 35.7185L59.8096 27.2614H69.4454V26.6372H59.2795L57.6579 35.5937L58.2816 35.7185Z" fill="#0C162F"/>
<path d="M62.7721 49.1064C62.7721 49.1064 62.7721 51.447 62.3667 54.6301C59.6225 57.8445 52.7308 64.9598 43.5004 68.3614C42.0347 66.9883 41.1616 65.7088 41.1616 65.7088C49.8619 60.7156 58.5311 53.2258 62.7721 49.1064Z" fill="#DCE5ED"/>
<path d="M20.1747 68.1743L42.2218 70.8269C42.2218 70.8269 75.8693 93.6707 62.5538 123.755C49.2382 153.807 39.3529 164.106 39.3529 164.106V171.72L24.3534 164.48L32.9602 116.92L24.3534 106.278L20.1747 68.1743Z" fill="#883876"/>
<path d="M35.6732 70.2028L0.59124 68.1743V106.247V200.119H28.1579L25.2578 194.876L35.6732 70.2028Z" fill="#AA4693"/>
<path d="M35.3715 70.1755L35.993 70.2275L25.5671 194.9L24.9456 194.848L35.3715 70.1755Z" fill="#0C162F"/>
<path d="M42.1906 41.4606V70.8579L0.591194 81.0939V48.3262C0.591194 36.7171 8.51192 26.6059 19.7693 23.8285C31.1827 21.051 42.1906 29.6954 42.1906 41.4606Z" fill="#DCE5ED"/>
<path d="M32.9291 7.81985V12.501C32.9291 16.121 30.4656 19.2729 26.9418 20.1468L19.4888 21.988V3.66927L25.6944 2.14011C29.3742 1.2351 32.9291 4.01255 32.9291 7.81985Z" fill="#DCE5ED"/>
<path d="M26.2869 20.6459L27.0041 20.4586C29.4676 19.8657 31.4946 18.1805 32.5237 15.8399C32.9914 14.7789 33.2409 13.6554 33.2409 12.5007H32.6172C32.6172 13.5618 32.3989 14.5916 31.9624 15.5903C30.9956 17.7436 29.1558 19.3039 26.8482 19.8657L26.1309 20.0529L26.2869 20.6459Z" fill="#0C162F"/>
<path d="M25.3202 11.5959C25.1135 11.5959 24.946 11.4282 24.946 11.2214C24.946 11.0146 25.1135 10.8469 25.3202 10.8469C25.5269 10.8469 25.6944 11.0146 25.6944 11.2214C25.6944 11.4282 25.5269 11.5959 25.3202 11.5959Z" fill="#0C162F"/>
<path d="M30.8397 11.5959C30.633 11.5959 30.4654 11.4282 30.4654 11.2214C30.4654 11.0146 30.633 10.8469 30.8397 10.8469C31.0463 10.8469 31.2139 11.0146 31.2139 11.2214C31.2139 11.4282 31.0463 11.5959 30.8397 11.5959Z" fill="#0C162F"/>
<path d="M28.9063 13.3748H29.53V8.13196H32.0247V7.50781H28.9063V13.3748Z" fill="#0C162F"/>
<path d="M24.6653 7.50781H27.4407V8.13196H24.6653V7.50781Z" fill="#0C162F"/>
<path d="M20.3619 10.6598V12.5946C19.3329 12.5946 18.4909 11.752 18.4909 10.7222C18.4909 10.6598 18.4909 10.5974 18.4909 10.5662C18.5845 9.38027 20.3619 9.47389 20.3619 10.6598Z" fill="#DCE5ED"/>
<path d="M20.3619 12.9064V12.2823C19.4888 12.2823 18.8027 11.5645 18.8027 10.7219H18.1791C18.1791 11.9078 19.1458 12.9064 20.3619 12.9064Z" fill="#0C162F"/>
<path d="M26.8482 14.6853C27.2536 14.6853 27.659 14.5293 27.9396 14.2172L27.5031 13.7803C27.1288 14.1548 26.5363 14.1548 26.1933 13.7803L25.7568 14.2172C26.0374 14.5293 26.4428 14.6853 26.8482 14.6853Z" fill="#FF6498"/>
<path d="M28.0332 13.9673C28.0643 13.9673 28.0955 13.9673 28.0955 13.9673L29.3117 13.6553C29.4676 13.624 29.5924 13.4368 29.53 13.2808C29.4676 13.1247 29.3117 12.9999 29.1558 13.0623L27.9396 13.3744C27.7837 13.4056 27.659 13.5928 27.7213 13.7489C27.7525 13.8737 27.8772 13.9673 28.0332 13.9673Z" fill="#0C162F"/>
<path d="M20.206 10.3781C23.3556 9.87879 24.5718 7.00772 25.0395 5.19769C26.8482 9.69155 32.6484 10.0348 32.8979 10.0348L32.9291 9.41068C32.8667 9.41068 27.0977 9.0674 25.5073 4.72958C25.4137 4.51113 25.1954 4.35509 24.9772 4.3863C24.7277 4.3863 24.5406 4.57355 24.4782 4.8232C24.104 6.47719 23.0126 9.28585 20.0813 9.78517L20.206 10.3781Z" fill="#0C162F"/>
<path d="M17.2746 27.2614C19.9564 27.2614 24.5405 25.389 25.9126 23.2357C26.4739 22.3619 26.4739 21.5193 25.9437 20.7391C23.9168 17.7744 19.7693 12.2195 19.7381 12.1571L19.2392 12.5316C19.2704 12.594 23.4178 18.1489 25.4448 21.0824C25.819 21.6441 25.819 22.2371 25.4136 22.8924C24.0415 25.0457 18.9585 26.9494 16.6821 26.5749C14.7799 26.2628 14.6863 25.2954 14.5304 20.2086C14.468 18.2113 14.4057 15.7147 14.1562 12.4692C13.8755 8.47461 14.624 5.60354 16.4326 3.88713C18.4284 1.95228 21.1102 2.26435 21.1414 2.26435H21.2661L21.3597 2.17073C23.106 0.797608 25.6319 0.391911 28.3137 1.01606C30.9644 1.6402 33.1784 3.20057 34.0828 5.10422C35.8291 8.81789 32.929 10.8464 32.8042 10.9088L33.1472 11.4393C33.1784 11.4081 36.6399 9.03635 34.6441 4.82335C33.6774 2.76367 31.3074 1.07847 28.4696 0.391911C25.6631 -0.263443 22.9813 0.142253 21.0791 1.57779C20.4866 1.54658 17.9918 1.48417 15.996 3.38782C14.0626 5.22905 13.2519 8.28737 13.5325 12.4692C13.7508 15.7147 13.8444 18.1801 13.9067 20.1774C14.0627 25.2017 14.0938 26.7309 16.5885 27.1366C16.7757 27.2302 17.0251 27.2614 17.2746 27.2614Z" fill="#0C162F"/>
<path d="M32.3989 23.0796C33.9893 23.0796 35.7356 22.7988 36.3593 21.7065C37.5131 19.678 34.1764 11.5329 33.8022 10.5967L33.2409 10.8463C34.2388 13.2805 36.6711 19.9277 35.8292 21.3944C35.0184 22.83 31.0892 22.4867 29.6236 22.2058L29.4988 22.83C29.7795 22.8612 31.0268 23.0796 32.3989 23.0796Z" fill="#0C162F"/>
<path d="M26.4116 71.1389C32.8978 71.1389 41.1928 66.4266 47.5231 62.0264C56.317 55.9097 63.7076 48.8257 65.3292 46.8908C67.4809 44.3006 68.4788 40.0252 67.4185 37.9031C66.9508 36.9669 66.14 36.4988 65.0797 36.5612C62.0861 36.686 59.373 38.2776 58.2816 38.9954C58.2192 38.2152 58.0321 36.9669 57.4085 36.5924C57.2213 36.4676 56.9095 36.3739 56.5041 36.5924C55.974 36.842 55.4439 37.435 54.8514 38.3088C53.8847 39.7443 52.5126 40.9302 50.8286 41.7416L29.7171 51.7904L21.6716 35.0632L21.1103 35.3441L29.4052 52.633L51.0781 42.3345C52.8556 41.4919 54.3212 40.2436 55.3503 38.6833C55.8804 37.9031 56.3482 37.4038 56.7536 37.1853C56.9407 37.0917 57.0342 37.1541 57.0654 37.1541C57.4708 37.4038 57.6579 38.7457 57.6579 39.6195V40.2436L58.1569 39.8692C58.188 39.838 61.4936 37.3726 65.0797 37.2165C65.8905 37.1853 66.483 37.5286 66.8572 38.2152C67.7927 40.1188 66.826 44.1446 64.8302 46.5163C61.2753 50.7917 35.0495 74.5717 22.919 69.9218C10.7572 65.2719 3.74082 46.766 3.64727 46.5787L3.05476 46.7972C3.11713 46.9844 10.2271 65.74 22.6695 70.4836C23.8545 70.9517 25.1018 71.1389 26.4116 71.1389Z" fill="#0C162F"/>
<path d="M22.8254 70.2024C27.5966 72.0125 34.3947 69.6095 41.1616 65.7086C38.4798 70.4833 32.4613 73.7913 25.4761 73.7913C15.9962 73.7913 8.29372 67.7058 8.29372 60.1849C8.29372 58.999 8.44963 58.0316 8.79265 57.189C12.067 62.3382 16.8069 67.9243 22.8254 70.2024Z" fill="#0C162F"/>
<path d="M46.6188 44.5814L47.2113 44.4566C45.3403 36.3426 36.8582 28.1975 36.484 27.8542L36.0474 28.3224C36.1722 28.3848 44.7789 36.6547 46.6188 44.5814Z" fill="#0C162F"/>
<path d="M50.7351 72.0127C52.2319 72.0127 53.8223 71.5758 55.4439 70.4835C63.0839 65.3655 63.0839 49.793 63.0528 49.1377H62.4291C62.4291 49.2937 62.4291 65.0534 55.0697 69.9842C53.5416 71.014 52.0448 71.4197 50.6415 71.4197C45.465 71.4197 41.5982 65.8648 41.4111 65.5528L40.881 65.896C40.9745 65.9585 45.1532 72.0127 50.7351 72.0127Z" fill="#0C162F"/>
<path d="M51.7954 41.5543C51.7954 41.4607 52.076 32.2233 54.6331 30.4757C56.7536 29.0089 58.4064 28.9153 58.8429 29.0713C58.5935 29.5395 57.1278 30.975 55.9117 31.724L56.2235 32.2545C57.4397 31.5055 59.3731 29.7267 59.4978 29.1025C59.529 28.9153 59.4354 28.7281 59.2483 28.6032C58.6247 28.1975 56.6289 28.3536 54.2901 29.9764C51.4835 31.9112 51.2029 41.1798 51.2029 41.5543H51.7954Z" fill="#0C162F"/>
</svg>
