<svg width="167" height="90" viewBox="0 0 167 90" fill="none" xmlns="http://www.w3.org/2000/svg">
<g clip-path="url(#clip0_223_5)">
<path d="M197.047 78.0856H0V85.1557H197.047V78.0856Z" fill="#BB6BA9"/>
<path d="M197.305 85.4175H0V84.8938H196.789V78.0856H197.305V85.4175Z" fill="#0C162F"/>
<path d="M40.958 85.1557L50.3781 90V85.1557H40.958Z" fill="#0C162F"/>
<path d="M146.643 85.1557L156.063 90V85.1557H146.643Z" fill="#0C162F"/>
<path d="M30.0926 0.052372H18.7627V78.0855H30.0926V0.052372Z" fill="#DCE5ED"/>
<path d="M30.0926 78.3474H18.5046V0.052372H19.0208V77.8237H30.0926V78.3474Z" fill="#0C162F"/>
<path d="M30.0926 14.4021H21.7307V14.9258H30.0926V14.4021Z" fill="#0C162F"/>
<path d="M30.0926 17.5444H21.7307V18.0681H30.0926V17.5444Z" fill="#0C162F"/>
<path d="M30.0926 20.6866H21.7307V21.2104H30.0926V20.6866Z" fill="#0C162F"/>
<path d="M44.055 0.052372H32.7251V78.0855H44.055V0.052372Z" fill="#F5F6FA"/>
<path d="M44.055 78.3474H32.467V0.052372H32.9832V77.8237H44.055V78.3474Z" fill="#0C162F"/>
<path d="M44.055 14.4021H35.6931V14.9258H44.055V14.4021Z" fill="#0C162F"/>
<path d="M44.055 17.5444H35.6931V18.0681H44.055V17.5444Z" fill="#0C162F"/>
<path d="M44.055 20.6866H35.6931V21.2104H44.055V20.6866Z" fill="#0C162F"/>
<path d="M57.9915 0.052372H46.6616V78.0855H57.9915V0.052372Z" fill="#DCE5ED"/>
<path d="M57.9915 78.3474H46.4036V0.052372H46.9197V77.8237H57.9915V78.3474Z" fill="#0C162F"/>
<path d="M57.9915 14.4021H49.6296V14.9258H57.9915V14.4021Z" fill="#0C162F"/>
<path d="M57.9915 17.5444H49.6296V18.0681H57.9915V17.5444Z" fill="#0C162F"/>
<path d="M57.9915 20.6866H49.6296V21.2104H57.9915V20.6866Z" fill="#0C162F"/>
<path d="M71.9537 0.052372H60.6238V78.0855H71.9537V0.052372Z" fill="#F5F6FA"/>
<path d="M71.9537 78.3474H60.3657V0.052372H60.8819V77.8237H71.9537V78.3474Z" fill="#0C162F"/>
<path d="M71.9537 14.4021H63.5918V14.9258H71.9537V14.4021Z" fill="#0C162F"/>
<path d="M71.9537 17.5444H63.5918V18.0681H71.9537V17.5444Z" fill="#0C162F"/>
<path d="M71.9537 20.6866H63.5918V21.2104H71.9537V20.6866Z" fill="#0C162F"/>
<path d="M85.8902 0.052372H74.5603V78.0855H85.8902V0.052372Z" fill="#DCE5ED"/>
<path d="M85.8902 78.3474H74.3022V0.052372H74.8184V77.8237H85.8902V78.3474Z" fill="#0C162F"/>
<path d="M85.8902 14.4021H77.5283V14.9258H85.8902V14.4021Z" fill="#0C162F"/>
<path d="M85.8902 17.5444H77.5283V18.0681H85.8902V17.5444Z" fill="#0C162F"/>
<path d="M85.8902 20.6866H77.5283V21.2104H85.8902V20.6866Z" fill="#0C162F"/>
<path d="M99.8267 0.052372H88.4968V78.0855H99.8267V0.052372Z" fill="#F5F6FA"/>
<path d="M99.8525 78.3474H88.2388V0.052372H88.7549V77.8237H99.8525V78.3474Z" fill="#0C162F"/>
<path d="M99.8268 14.4021H91.4648V14.9258H99.8268V14.4021Z" fill="#0C162F"/>
<path d="M99.8268 17.5444H91.4648V18.0681H99.8268V17.5444Z" fill="#0C162F"/>
<path d="M99.8268 20.6866H91.4648V21.2104H99.8268V20.6866Z" fill="#0C162F"/>
<path d="M113.789 0.052372H102.459V78.0855H113.789V0.052372Z" fill="#DCE5ED"/>
<path d="M113.789 78.3474H102.201V0.052372H102.717V77.8237H113.789V78.3474Z" fill="#0C162F"/>
<path d="M113.789 14.4021H105.427V14.9258H113.789V14.4021Z" fill="#0C162F"/>
<path d="M113.789 17.5444H105.427V18.0681H113.789V17.5444Z" fill="#0C162F"/>
<path d="M113.789 20.6866H105.427V21.2104H113.789V20.6866Z" fill="#0C162F"/>
<path d="M127.726 0.052372H116.396V78.0855H127.726V0.052372Z" fill="#F5F6FA"/>
<path d="M127.726 78.3474H116.138V0.052372H116.654V77.8237H127.726V78.3474Z" fill="#0C162F"/>
<path d="M127.726 14.4021H119.364V14.9258H127.726V14.4021Z" fill="#0C162F"/>
<path d="M127.726 17.5444H119.364V18.0681H127.726V17.5444Z" fill="#0C162F"/>
<path d="M127.726 20.6866H119.364V21.2104H127.726V20.6866Z" fill="#0C162F"/>
<path d="M140.078 -0.0106342L129.196 3.18741L150.592 78.1383L161.474 74.9402L140.078 -0.0106342Z" fill="#DCE5ED"/>
<path d="M150.411 78.4783L150.359 78.2165L128.964 3.2732L129.455 3.11609L150.772 77.8237L161.405 74.7076L161.56 75.2051L150.411 78.4783Z" fill="#0C162F"/>
<path d="M144.011 13.7891L135.98 16.1502L136.123 16.6532L144.155 14.2921L144.011 13.7891Z" fill="#0C162F"/>
<path d="M144.886 16.7963L136.855 19.1574L136.998 19.6604L145.03 17.2993L144.886 16.7963Z" fill="#0C162F"/>
<path d="M145.736 19.8107L137.705 22.1718L137.848 22.6749L145.88 20.3137L145.736 19.8107Z" fill="#0C162F"/>
</g>
<defs>
<clipPath id="clip0_223_5">
<rect width="167" height="90" fill="white"/>
</clipPath>
</defs>
</svg>
