<svg width="512" height="583" viewBox="0 0 512 583" fill="none" xmlns="http://www.w3.org/2000/svg">
<g clip-path="url(#clip0_223_129)">
<path d="M367.208 157.584C383.826 143.538 395.735 132.464 395.803 132.329L394.861 131.316C394.726 131.451 382.884 142.525 366.266 156.504L367.208 157.584Z" fill="#F5F6FA"/>
<path d="M376.156 266.034C376.156 266.034 312.305 451.129 376.156 559.511L369.361 578.757L424.196 555.46L417.333 401.496C417.333 401.496 460.663 305.133 456.357 286.495C452.118 267.858 451.109 240.576 451.109 240.576" fill="#C6CED5"/>
<path d="M394.121 243.21C394.121 243.21 380.53 465.715 418.881 571.059L410.874 582.876H479.099C479.099 582.876 486.567 299.866 486.567 238.82L394.121 243.21Z" fill="#DCE5ED"/>
<path d="M412.758 71.0807V99.9828L448.485 108.761V60.0061L412.758 51.16V71.0807Z" fill="#BB6BA9"/>
<path d="M432.943 81.0749C432.423 81.0749 432.001 80.6516 432.001 80.1295C432.001 79.6074 432.423 79.1841 432.943 79.1841C433.463 79.1841 433.885 79.6074 433.885 80.1295C433.885 80.6516 433.463 81.0749 432.943 81.0749Z" fill="#F5F6FA"/>
<path d="M418.275 81.0749C417.755 81.0749 417.333 80.6516 417.333 80.1295C417.333 79.6074 417.755 79.1841 418.275 79.1841C418.796 79.1841 419.217 79.6074 419.217 80.1295C419.217 80.6516 418.796 81.0749 418.275 81.0749Z" fill="#F5F6FA"/>
<path d="M421.908 85.8019H423.254V70.4055H415.18V71.756H421.908V85.8019Z" fill="#F5F6FA"/>
<path d="M427.426 70.4055H434.76V71.756H427.426V70.4055Z" fill="#F5F6FA"/>
<path d="M446.13 78.6439V83.776C448.889 83.776 451.109 81.5476 451.109 78.7789C451.109 78.6439 451.109 78.4413 451.109 78.3062C450.773 75.1999 446.13 75.5376 446.13 78.6439Z" fill="#BB6BA9"/>
<path d="M446.13 84.4513C449.225 84.4513 451.782 81.8852 451.782 78.7789H450.436C450.436 81.1424 448.485 83.1007 446.13 83.1007V84.4513Z" fill="#F5F6FA"/>
<path d="M425.811 90.1237C428.973 90.1237 431.53 87.5576 431.53 84.3838H430.184C430.184 86.8148 428.233 88.7731 425.811 88.7731V90.1237Z" fill="#FF6498"/>
<path d="M412.983 99.3304L448.657 108.131L448.336 109.443L412.662 100.642L412.983 99.3304Z" fill="#F5F6FA"/>
<path d="M425.811 87.2875C426.08 87.2875 426.416 87.0849 426.484 86.7473C426.551 86.4096 426.349 86.0045 426.013 85.9369L422.783 85.1266C422.447 85.0591 422.043 85.2616 421.976 85.5993C421.908 85.9369 422.11 86.3421 422.447 86.4096L425.676 87.22C425.676 87.2875 425.744 87.2875 425.811 87.2875Z" fill="#F5F6FA"/>
<path d="M445.525 78.2387L446.736 77.5634C446.669 77.4959 442.228 69.325 442.026 65.8135L441.757 61.2892L439.671 70.2029C437.585 69.4601 431.261 66.7589 427.089 61.6268L425.878 60.1412V67.7719C423.523 67.0966 416.66 64.8006 414.709 59.6685L413.431 56.2921V64.6656C412.556 63.7877 411.278 62.3696 410.874 60.5464L409.596 60.884C410.403 64.3279 413.633 66.6239 413.767 66.6914L414.844 67.4342V62.5722C418.544 67.6368 426.147 69.2575 426.484 69.3925L427.291 69.5951V63.9228C432.472 69.4601 439.671 71.6885 440.008 71.8235L440.68 72.0261L441.421 68.9874C442.632 72.904 445.39 77.9686 445.525 78.2387Z" fill="#473C90"/>
<path d="M448.956 88.1653C459.25 78.1037 457.703 65.0032 455.281 60.2762C452.858 55.4818 447.341 52.578 446.534 52.1729C445.525 51.16 436.24 42.7189 419.083 46.433C411.816 47.9861 407.443 51.0249 406.097 55.2792C403.742 62.9774 411.951 71.8235 412.287 72.1612L413.296 71.2158C413.229 71.1483 405.29 62.5722 407.375 55.6168C408.519 51.8352 412.556 49.1341 419.352 47.6485C436.442 43.9345 445.525 52.9832 445.592 53.1183L445.659 53.1858L445.794 53.2533C445.861 53.2533 451.715 56.157 454.07 60.8165C456.223 65.1383 457.636 77.6985 448.014 87.1524L448.956 88.1653Z" fill="#473C90"/>
<path d="M486.567 160.555V238.753L376.156 265.967V178.856C376.156 147.995 397.148 121.052 427.022 113.691C457.299 106.263 486.567 129.29 486.567 160.555Z" fill="#473C90"/>
<path d="M412.758 219.643C412.758 219.643 412.691 155.221 376.156 154.816C339.554 154.41 352.338 112.34 352.338 112.34L292.389 125.981C292.389 125.981 282.566 183.65 333.028 200.937C358.865 209.783 347.763 270.018 347.763 270.018L414.036 262.32V253.407" fill="#97D0F2"/>
<path d="M348.436 270.154C348.436 270.018 351.194 254.825 350.723 238.753C350.118 217.279 344.062 203.976 333.23 200.262C307.461 191.416 297.907 171.765 294.408 156.841C290.64 140.567 292.995 126.184 292.995 126.049L291.649 125.846C291.649 125.981 289.227 140.567 293.062 157.112C296.628 172.44 306.384 192.564 332.759 201.545C357.721 210.121 347.157 269.276 347.09 269.883L348.436 270.154Z" fill="#F5F6FA"/>
<path d="M465.373 270.694C472.371 270.694 479.032 269.748 484.952 267.79C502.244 262.185 511.866 249.152 512 230.987C512.471 177.775 477.955 131.856 477.619 131.383L476.542 132.194C476.879 132.666 511.058 178.248 510.654 230.987C510.52 248.477 501.235 261.105 484.549 266.575C459.25 274.813 418.208 264.684 397.485 236.457L397.418 236.389L397.35 236.322C390.42 231.527 380.059 223.221 379.857 220.25C379.857 219.98 379.924 219.913 379.991 219.845C382.346 217.482 392.506 219.102 396.274 219.913L397.418 220.183L397.014 219.035C396.341 217.076 395.937 214.645 396.476 214.173C396.543 214.105 396.879 214.105 397.418 214.375C401.118 216.131 406.164 219.845 406.232 219.845L406.366 219.98H406.568L457.568 223.357L445.929 175.547L444.65 175.884L455.886 221.938L406.905 218.697C405.963 218.022 401.522 214.848 398.023 213.16C397.014 212.687 396.207 212.687 395.601 213.227C394.525 214.24 394.996 216.739 395.466 218.359C391.901 217.684 381.943 216.064 379.117 218.9C378.713 219.305 378.579 219.845 378.579 220.385C378.982 224.91 394.39 235.849 396.61 237.402C406.164 250.3 420.899 260.565 438.124 266.237C447.207 269.208 456.559 270.694 465.373 270.694Z" fill="#F5F6FA"/>
<path d="M418.275 571.261L419.554 570.789C399.773 516.428 394.121 430.33 392.842 367.597C391.43 299.596 394.794 243.75 394.861 243.21L393.515 243.142C393.448 243.683 390.151 299.596 391.497 367.597C392.708 430.465 398.427 516.766 418.275 571.261Z" fill="#F5F6FA"/>
<path d="M465.373 270.694C472.371 270.694 479.032 269.748 484.952 267.79C502.244 262.185 511.866 249.152 512 230.987C512.471 177.775 477.955 131.856 477.619 131.383L476.542 132.194C476.879 132.666 511.058 178.248 510.654 230.987C510.52 248.477 501.235 261.105 484.549 266.575C459.25 274.813 418.208 264.684 397.485 236.457L397.418 236.389L397.35 236.322C390.42 231.527 380.059 223.221 379.857 220.25C379.857 219.98 379.924 219.913 379.991 219.845C382.346 217.482 392.506 219.102 396.274 219.913L397.418 220.183L397.014 219.035C396.341 217.076 395.937 214.645 396.476 214.173C396.543 214.105 396.879 214.105 397.418 214.375C401.118 216.131 406.164 219.845 406.232 219.845L406.366 219.98H406.568L457.568 223.357L445.929 175.547L444.65 175.884L455.886 221.938L406.905 218.697C405.963 218.022 401.522 214.848 398.023 213.16C397.014 212.687 396.207 212.687 395.601 213.227C394.525 214.24 394.996 216.739 395.466 218.359C391.901 217.684 381.943 216.064 379.117 218.9C378.713 219.305 378.579 219.845 378.579 220.385C378.982 224.91 394.39 235.849 396.61 237.402C406.164 250.3 420.899 260.565 438.124 266.237C447.207 269.208 456.559 270.694 465.373 270.694Z" fill="#F5F6FA"/>
<path d="M485.625 266.845V304.795C432.136 292.168 405.29 246.249 405.29 246.249C427.157 266.98 461.942 275.083 485.625 266.845Z" fill="#C6CED5"/>
<path d="M334.71 262.32C346.148 262.32 357.384 259.281 358.259 259.011L357.923 257.728C357.519 257.863 319.706 268.195 312.305 251.043C304.769 233.553 318.226 184.798 318.36 184.325L318.428 184.055L318.293 183.853C316.813 180.611 314.929 174.939 316.207 173.453C316.678 172.913 317.149 172.643 317.62 172.643C318.495 172.643 319.168 173.453 319.235 173.453L320.11 174.466L320.379 173.116C321.052 170.009 323.339 161.433 326.232 159.543C326.703 159.272 327.174 159.137 327.645 159.272C329.193 159.678 333.297 165.012 337.267 206.272L338.612 206.137C334.105 159.475 329.462 158.327 327.982 157.989C327.174 157.787 326.367 157.922 325.56 158.462C322.263 160.555 320.042 168.794 319.302 171.765C318.831 171.495 318.293 171.225 317.62 171.225C316.746 171.225 315.871 171.63 315.198 172.508C313.112 175.006 316.275 182.502 317.015 184.123C315.871 188.309 303.491 234.094 311.027 251.516C314.66 259.957 324.752 262.32 334.71 262.32Z" fill="#F5F6FA"/>
</g>
<g clip-path="url(#clip1_223_129)">
<path d="M261.002 85.8164L214.685 82.7469C211.213 102.797 226.412 163.143 226.412 163.143L262.706 132.382C245.279 101.033 261.002 85.8164 261.002 85.8164Z" fill="#473C90"/>
<path d="M197.979 186.262C197.979 186.262 295.855 384.802 173.281 393.946C50.7068 403.089 16.1816 297.941 16.1816 297.941L0 290.365L50.6413 256.6L119.364 290.365L141.966 188.744" fill="#403682"/>
<path d="M146.028 265.417C137.38 265.417 129.257 270.054 122.05 278.348L119.364 290.365L114.909 288.21C102.265 309.109 94.0107 342.482 94.0107 380.1C94.0107 380.557 94.0107 381.08 94.0107 381.537C114.975 390.876 141.049 396.297 173.15 393.946C182.584 393.227 190.773 391.399 197.717 388.656C197.783 385.847 197.848 382.974 197.848 380.1C197.979 316.75 174.722 265.417 146.028 265.417Z" fill="#393073"/>
<path d="M180.487 190.507C180.487 190.507 193.721 405.701 156.379 507.584L164.175 519.013H97.7448C97.7448 519.013 90.4729 245.302 90.4729 186.262L180.487 190.507Z" fill="#473C90"/>
<path d="M159.327 24.0338V51.9862L124.605 60.5417V13.3231L159.327 4.83289V24.0338Z" fill="#BB6BA9"/>
<path d="M139.738 33.6996C140.245 33.6996 140.656 33.2902 140.656 32.7853C140.656 32.2803 140.245 31.8709 139.738 31.8709C139.232 31.8709 138.821 32.2803 138.821 32.7853C138.821 33.2902 139.232 33.6996 139.738 33.6996Z" fill="#F5F6FA"/>
<path d="M154.02 33.6996C154.527 33.6996 154.937 33.2902 154.937 32.7853C154.937 32.2803 154.527 31.8709 154.02 31.8709C153.514 31.8709 153.103 32.2803 153.103 32.7853C153.103 33.2902 153.514 33.6996 154.02 33.6996Z" fill="#F5F6FA"/>
<path d="M150.483 38.3366H149.172V23.3807H156.968V24.6869H150.483V38.3366Z" fill="#F5F6FA"/>
<path d="M145.111 23.3807H137.97V24.6869H145.111V23.3807Z" fill="#F5F6FA"/>
<path d="M126.898 31.3485V36.312C124.212 36.312 122.05 34.1568 122.05 31.4791C122.05 31.3485 122.05 31.1525 122.05 31.0219C122.312 28.0177 126.898 28.3442 126.898 31.3485Z" fill="#BB6BA9"/>
<path d="M126.898 36.9651C123.884 36.9651 121.395 34.4833 121.395 31.4791H122.705C122.705 33.7649 124.605 35.6589 126.898 35.6589V36.9651Z" fill="#F5F6FA"/>
<path d="M146.683 42.4511C143.604 42.4511 141.114 39.9693 141.114 36.8998H142.425C142.425 39.2509 144.324 41.1449 146.683 41.1449V42.4511Z" fill="#FF6498"/>
<path d="M159.172 51.3508L124.436 59.8626L124.748 61.131L159.484 52.6193L159.172 51.3508Z" fill="#F5F6FA"/>
<path d="M146.683 39.7734C146.421 39.7734 146.093 39.5774 146.028 39.2509C145.962 38.9243 146.159 38.5325 146.486 38.4672L149.631 37.6835C149.958 37.6182 150.352 37.8141 150.417 38.1406C150.483 38.4672 150.286 38.859 149.958 38.9243L146.814 39.7081C146.748 39.7081 146.748 39.7734 146.683 39.7734Z" fill="#F5F6FA"/>
<path d="M128.405 30.5648L127.881 29.3892C128.012 29.3239 144.193 22.0092 148.779 15.8702L149.958 14.3027V19.6581C152.186 18.7438 158.082 16.0661 159.785 13.1925L160.899 13.8456C158.606 17.8294 149.893 21.0949 149.5 21.2255L148.648 21.5521V18.0254C142.817 24.0338 129.06 30.3035 128.405 30.5648Z" fill="#F5F6FA"/>
<path d="M124.081 45.8471C115.433 33.3731 112.813 22.9236 116.154 14.6946C120.609 3.85325 133.908 1.11026 134.497 0.97964C146.421 -2.35113 163.323 2.8083 165.616 10.5801C167.843 18.156 159.72 21.6827 159.654 21.6827L159.13 20.5071C159.392 20.3765 166.271 17.3723 164.371 10.972C162.471 4.50634 146.879 -1.11026 134.825 2.28583C134.628 2.35114 121.591 4.96351 117.399 15.2171C114.254 22.9889 116.875 33.0465 125.195 45.1287L124.081 45.8471Z" fill="#F5F6FA"/>
<path d="M197.979 110.569V186.197L90.4729 212.517V128.268C90.4729 98.4211 110.913 72.3627 140 65.244C169.481 58.06 197.979 80.3305 197.979 110.569Z" fill="#BB6BA9"/>
<path d="M163.585 519.405L155.593 507.715L155.724 507.388C174.984 454.814 180.487 371.545 181.732 310.872C183.108 245.106 179.832 191.095 179.767 190.573L181.077 190.507C181.142 191.03 184.353 245.106 183.042 310.872C181.798 371.479 176.295 454.749 157.034 507.519L164.633 518.687L163.585 519.405Z" fill="#F5F6FA"/>
<path d="M136.201 198.214C126.505 198.214 117.595 197.104 109.865 194.883C91.2592 189.528 80.1875 177.903 77.8291 161.249C73.5052 130.88 84.4458 109.067 94.3383 96.1353C105.082 82.0938 117.006 75.171 117.137 75.1057L117.792 76.216C117.661 76.2813 105.934 83.1388 95.3209 96.919C85.5596 109.654 74.8155 131.076 79.0738 160.987C81.3667 177.119 92.1108 188.352 110.127 193.577C117.988 195.863 126.767 196.842 135.939 196.842C170.595 196.842 210.689 182.213 225.429 165.102L227.591 151.191L227.722 151.06C233.291 144.268 237.483 137.672 236.959 136.627C236.959 136.627 236.894 136.627 236.828 136.627C236.632 136.627 236.173 136.692 235.19 137.15C226.346 141.199 140.263 147.534 136.594 147.795L135.873 147.86L137.315 126.635L138.625 126.7L137.315 146.423C146.028 145.77 226.477 139.697 234.666 135.974C235.78 135.452 237.287 134.929 238.007 135.843C239.711 137.999 232.242 147.599 228.836 151.714L226.674 165.624L226.543 165.755C217.24 176.662 197.979 186.785 175.115 192.793C161.751 196.45 148.386 198.214 136.201 198.214Z" fill="#F5F6FA"/>
<path d="M220.122 139.501C212.326 101.034 184.68 78.959 184.418 78.6977L185.204 77.6528C185.466 77.8487 213.506 100.25 221.433 139.174L220.122 139.501Z" fill="#F5F6FA"/>
<path d="M212.523 199.193C206.758 199.193 202.958 198.279 202.631 198.214L202.958 196.973C203.089 196.973 213.702 199.455 226.477 196.059C238.27 192.924 254.32 183.976 263.885 159.159C276.398 126.831 270.633 110.046 267.619 104.299C265.654 100.576 263.492 98.9436 262.182 98.6171C261.002 98.3558 259.889 98.4865 258.971 99.1396C256.482 100.707 255.565 104.626 255.565 104.691L254.255 104.43C254.32 104.234 255.303 99.9233 258.251 98.0946C259.496 97.3109 260.937 97.0496 262.509 97.4415C264.606 97.8987 266.964 100.315 268.798 103.777C271.943 109.654 277.839 126.896 265.13 159.747C255.303 185.087 238.859 194.23 226.805 197.43C221.433 198.736 216.519 199.193 212.523 199.193Z" fill="#F5F6FA"/>
</g>
<defs>
<clipPath id="clip0_223_129">
<rect width="221.091" height="537.388" fill="white" transform="matrix(-1 0 0 1 512 45.4876)"/>
</clipPath>
<clipPath id="clip1_223_129">
<rect width="272.926" height="519.405" fill="white"/>
</clipPath>
</defs>
</svg>
