<svg width="518" height="567" viewBox="0 0 518 567" fill="none" xmlns="http://www.w3.org/2000/svg">
<path d="M214.016 369.171C214.016 369.171 -173.643 861.357 518.186 843.718L545.624 867.237V702.086L308.612 649.692L336.442 345.914" fill="#883876"/>
<path d="M316.844 559.147C245.244 562.936 188.016 658.316 188.016 775.515C188.016 778.128 188.016 780.611 188.147 783.224C240.932 817.195 323.507 840.06 447.893 843.588C452.205 822.16 454.557 799.295 454.557 775.515C454.557 740.76 449.461 707.835 440.576 678.698L308.612 649.562L316.844 559.147Z" fill="#F5F6FA"/>
<path d="M248.902 377.794C248.902 377.794 222.509 808.31 296.983 1012.14L281.435 1035H413.922C413.922 1035 428.425 487.416 428.425 369.302L248.902 377.794Z" fill="#AA4693"/>
<path d="M349.508 44.7497V100.671L280.26 117.656V23.3219L349.508 6.20581V44.7497Z" fill="#6C63A6"/>
<path d="M310.442 64.0866C311.452 64.0866 312.271 63.2677 312.271 62.2574C312.271 61.2472 311.452 60.4282 310.442 60.4282C309.432 60.4282 308.613 61.2472 308.613 62.2574C308.613 63.2677 309.432 64.0866 310.442 64.0866Z" fill="#F5F6FA"/>
<path d="M338.795 64.0866C339.805 64.0866 340.624 63.2677 340.624 62.2574C340.624 61.2472 339.805 60.4282 338.795 60.4282C337.784 60.4282 336.965 61.2472 336.965 62.2574C336.965 63.2677 337.784 64.0866 338.795 64.0866Z" fill="#F5F6FA"/>
<path d="M331.869 73.2327H329.256V43.4429H344.804V46.056H331.869V73.2327Z" fill="#F5F6FA"/>
<path d="M321.156 43.4429H306.914V46.056H321.156V43.4429Z" fill="#F5F6FA"/>
<path d="M284.833 59.383V69.3129C279.476 69.3129 275.164 65.0012 275.164 59.6443C275.164 59.383 275.164 58.991 275.164 58.7297C275.687 52.7195 284.833 53.2421 284.833 59.383Z" fill="#6C63A6"/>
<path d="M284.833 70.619C278.823 70.619 273.858 65.654 273.858 59.6438H276.471C276.471 64.2168 280.26 68.0059 284.833 68.0059V70.619Z" fill="#F5F6FA"/>
<path d="M324.291 81.5946C318.151 81.5946 313.186 76.6297 313.186 70.4888H315.799C315.799 75.1924 319.588 78.9815 324.291 78.9815V81.5946Z" fill="#FF6498"/>
<path d="M349.227 99.3666L279.95 116.409L280.574 118.947L349.851 101.904L349.227 99.3666Z" fill="#F5F6FA"/>
<path d="M324.291 76.1069C323.769 76.1069 323.115 75.715 322.985 75.0617C322.854 74.4084 323.246 73.6245 323.899 73.4938L330.171 71.9259C330.824 71.7953 331.608 72.1872 331.739 72.8405C331.869 73.4938 331.477 74.2777 330.824 74.4084L324.553 75.9763C324.422 76.1069 324.291 76.1069 324.291 76.1069Z" fill="#F5F6FA"/>
<path d="M214.016 217.87V369.171L428.425 421.826V253.278C428.425 193.568 387.66 141.436 329.648 127.194C270.721 112.822 214.016 157.376 214.016 217.87Z" fill="#6C63A6"/>
<path d="M295.807 1012.53C257.264 907.087 246.158 740.107 243.675 618.465C240.931 486.893 247.464 378.709 247.595 377.664L250.208 377.795C250.077 378.84 243.675 486.893 246.288 618.465C248.771 739.846 259.746 906.564 298.159 1011.61L295.807 1012.53Z" fill="#F5F6FA"/>
<path d="M276.732 55.202C276.34 53.8954 267.325 23.3216 282.481 10.2559C297.376 -2.67917 360.483 0.325947 363.097 0.456604H364.272L364.403 1.63252C364.403 2.2858 365.84 17.1807 354.212 28.0253C343.629 37.9552 325.99 41.2216 301.818 37.5632C301.165 41.091 298.552 50.1063 288.883 52.0662L288.361 49.4531C298.291 47.4932 299.336 36.3873 299.336 35.9954L299.467 34.5581L300.904 34.8194C324.945 38.7392 342.191 35.734 352.383 26.1961C361.267 17.834 361.921 6.59749 361.79 3.06975C352.905 2.67778 297.245 0.979233 284.18 12.2158C270.33 24.2362 279.084 54.1567 279.215 54.418L276.732 55.202Z" fill="#F5F6FA"/>
<path d="M390.273 444.038C349.769 444.038 298.029 415.032 260.008 389.423C214.931 358.98 176.256 323.964 173.382 317.3C170.899 311.813 172.075 306.325 176.648 302.144C183.965 295.481 199.905 292.998 219.112 301.36C217.152 299.139 215.715 296.657 216.107 294.827C216.238 294.174 216.76 292.998 218.589 292.606C225.122 291.038 237.927 295.35 245.113 309.461L395.891 337.16L395.369 339.773L243.284 311.813L243.022 311.159C236.228 297.31 224.077 293.782 219.112 295.089C218.981 295.089 218.589 295.219 218.459 295.481C218.067 296.918 222.509 301.883 226.559 305.28L225.122 307.37C204.74 295.742 186.056 296.918 178.216 303.973C174.558 307.37 173.643 311.682 175.603 316.124C177.955 321.481 214.8 355.714 261.314 387.071C302.471 414.901 360.222 446.782 401.117 440.379C428.425 436.068 444.234 414.901 448.285 377.403C457.692 290.124 435.742 231.851 415.62 198.272C393.931 161.949 369.629 146.139 369.368 146.009L370.805 143.788C371.066 143.918 395.76 160.12 417.842 196.834C438.093 230.675 460.436 289.601 450.898 377.664C446.717 416.469 430.123 438.42 401.509 442.993C397.982 443.776 394.193 444.038 390.273 444.038Z" fill="#F5F6FA"/>
<path d="M174.688 297.31L172.075 296.918C187.754 201.538 241.324 150.059 241.846 149.537L243.675 151.497C243.153 151.889 190.237 202.845 174.688 297.31Z" fill="#F5F6FA"/>
<path d="M181.352 417.645C136.668 406.931 99.169 301.883 97.6011 297.44L100.084 296.526C100.476 297.571 138.758 404.579 182.006 415.032L181.352 417.645Z" fill="#F5F6FA"/>
<path d="M157.834 297.832C157.703 297.571 139.019 271.701 126.868 265.821C117.069 261.118 88.8468 269.872 83.3592 276.405C82.314 277.58 82.7059 278.103 82.8366 278.234C87.0176 283.852 94.4651 280.978 94.857 280.847L97.4702 279.802L96.5556 282.415C96.5556 282.415 94.857 287.902 97.6008 289.078L96.5556 291.43C93.5505 290.124 93.1585 286.596 93.5505 283.852C89.7614 284.636 84.2738 284.375 80.7461 279.671C80.0928 278.756 79.3088 277.058 81.3994 274.575C87.5402 267.259 116.938 257.982 128.044 263.339C140.718 269.48 159.271 295.089 159.924 296.264L157.834 297.832Z" fill="#F5F6FA"/>
<path d="M218.328 298.355H66.5045L0 144.571L2.35183 143.526L68.2031 295.742H218.328V298.355Z" fill="#97D0F2"/>
</svg>
