<svg width="557" height="307" viewBox="0 0 557 307" fill="none" xmlns="http://www.w3.org/2000/svg">
<path d="M-13.3496 176.153V353.893H20.4449V335.778H201.555V353.893H235.35V176.153H-13.3496Z" fill="#59509B"/>
<path d="M236.143 176.153H234.557V353.893H236.143V176.153Z" fill="#6C63A6"/>
<path d="M201.635 207.379H20.4453V248.377H201.635V207.379Z" fill="#403682"/>
<path d="M202.349 249.251H20.4453V247.662H200.762V207.379H202.349V249.251Z" fill="#6C63A6"/>
<path d="M114.847 224.064H107.152V231.771H114.847V224.064Z" fill="#6C63A6"/>
<path d="M201.635 258.309H20.4453V299.308H201.635V258.309Z" fill="#403682"/>
<path d="M202.349 300.102H20.4453V298.513H200.762V258.309H202.349V300.102Z" fill="#6C63A6"/>
<path d="M114.847 274.915H107.152V282.622H114.847V274.915Z" fill="#6C63A6"/>
<path d="M5.76724 73.1003H-9.38477V176.074H5.76724V73.1003Z" fill="#403682"/>
<path d="M5.76855 176.868H-10.1768V73.1003H-8.59016V175.279H5.76855V176.868Z" fill="#6C63A6"/>
<path d="M5.76852 91.5338H-5.41699V93.1229H5.76852V91.5338Z" fill="#6C63A6"/>
<path d="M5.76852 95.7449H-5.41699V97.334H5.76852V95.7449Z" fill="#6C63A6"/>
<path d="M5.76852 99.8765H-5.41699V101.466H5.76852V99.8765Z" fill="#6C63A6"/>
<path d="M24.4098 73.1003H9.25781V176.074H24.4098V73.1003Z" fill="#59509B"/>
<path d="M24.4111 176.868H8.46582V73.1003H10.0524V175.279H24.4111V176.868Z" fill="#6C63A6"/>
<path d="M24.4121 91.5338H13.2266V93.1229H24.4121V91.5338Z" fill="#6C63A6"/>
<path d="M24.4121 95.7449H13.2266V97.334H24.4121V95.7449Z" fill="#6C63A6"/>
<path d="M24.4121 99.8765H13.2266V101.466H24.4121V99.8765Z" fill="#6C63A6"/>
<path d="M43.0534 73.1003H27.9014V176.074H43.0534V73.1003Z" fill="#403682"/>
<path d="M43.0527 176.868H27.1074V73.1003H28.694V175.279H43.0527V176.868Z" fill="#6C63A6"/>
<path d="M43.0537 91.5338H31.8682V93.1229H43.0537V91.5338Z" fill="#6C63A6"/>
<path d="M43.0537 95.7449H31.8682V97.334H43.0537V95.7449Z" fill="#6C63A6"/>
<path d="M43.0537 99.8765H31.8682V101.466H43.0537V99.8765Z" fill="#6C63A6"/>
<path d="M61.695 73.1003H46.543V176.074H61.695V73.1003Z" fill="#59509B"/>
<path d="M61.6963 176.868H45.751V73.1003H47.3376V175.279H61.6963V176.868Z" fill="#6C63A6"/>
<path d="M61.6963 91.5338H50.5107V93.1229H61.6963V91.5338Z" fill="#6C63A6"/>
<path d="M61.6963 95.7449H50.5107V97.334H61.6963V95.7449Z" fill="#6C63A6"/>
<path d="M61.6963 99.8765H50.5107V101.466H61.6963V99.8765Z" fill="#6C63A6"/>
<path d="M80.3366 73.1003H65.1846V176.074H80.3366V73.1003Z" fill="#403682"/>
<path d="M80.3379 176.868H64.3926V73.1003H65.9792V175.279H80.3379V176.868Z" fill="#6C63A6"/>
<path d="M80.3379 91.5338H69.1523V93.1229H80.3379V91.5338Z" fill="#6C63A6"/>
<path d="M80.3379 95.7449H69.1523V97.334H80.3379V95.7449Z" fill="#6C63A6"/>
<path d="M80.3379 99.8765H69.1523V101.466H80.3379V99.8765Z" fill="#6C63A6"/>
<path d="M98.9821 73.1003H83.8301V176.074H98.9821V73.1003Z" fill="#59509B"/>
<path d="M98.9814 176.868H83.0361V73.1003H84.6227V175.279H98.9814V176.868Z" fill="#6C63A6"/>
<path d="M98.9824 91.5338H87.7969V93.1229H98.9824V91.5338Z" fill="#6C63A6"/>
<path d="M98.9824 95.7449H87.7969V97.334H98.9824V95.7449Z" fill="#6C63A6"/>
<path d="M98.9824 99.8765H87.7969V101.466H98.9824V99.8765Z" fill="#6C63A6"/>
<path d="M117.624 73.1003H102.472V176.074H117.624V73.1003Z" fill="#403682"/>
<path d="M117.624 176.868H101.679V73.1003H103.265V175.279H117.624V176.868Z" fill="#6C63A6"/>
<path d="M117.625 91.5338H106.439V93.1229H117.625V91.5338Z" fill="#6C63A6"/>
<path d="M117.625 95.7449H106.439V97.334H117.625V95.7449Z" fill="#6C63A6"/>
<path d="M117.625 99.8765H106.439V101.466H117.625V99.8765Z" fill="#6C63A6"/>
<path d="M136.344 73.1003H121.192V176.074H136.344V73.1003Z" fill="#59509B"/>
<path d="M136.346 176.868H120.4V73.1003H121.987V175.279H136.346V176.868Z" fill="#6C63A6"/>
<path d="M136.347 91.5338H125.161V93.1229H136.347V91.5338Z" fill="#6C63A6"/>
<path d="M136.347 95.7449H125.161V97.334H136.347V95.7449Z" fill="#6C63A6"/>
<path d="M136.347 99.8765H125.161V101.466H136.347V99.8765Z" fill="#6C63A6"/>
<path d="M152.842 73L138.288 77.2219L166.89 176.128L181.444 171.906L152.842 73Z" fill="#403682"/>
<path d="M166.331 177.186L137.534 77.4703L139.041 76.9936L167.442 175.2L181.166 171.147L181.642 172.737L166.331 177.186Z" fill="#6C63A6"/>
<path d="M157.978 90.7979L147.233 93.9123L147.674 95.4388L158.419 92.3243L157.978 90.7979Z" fill="#6C63A6"/>
<path d="M159.088 94.7825L148.343 97.897L148.784 99.4235L159.529 96.309L159.088 94.7825Z" fill="#6C63A6"/>
<path d="M160.272 98.7452L149.527 101.86L149.968 103.386L160.713 100.272L160.272 98.7452Z" fill="#6C63A6"/>
<path d="M141.144 531.868C169.86 346.015 338.004 265.439 338.004 265.439L408.038 301.73C410.51 301.73 394.876 368.318 394.876 368.318L291.102 414.361L195.065 563.283L122.001 537.943L141.144 531.868Z" fill="#6C63A6"/>
<path d="M285.359 299.172C300.515 291.818 317.504 287.661 335.452 287.661C362.492 287.661 387.378 297.094 406.921 312.762C403.491 331.707 394.956 368.318 394.956 368.318L291.182 414.361L249.704 478.63C231.757 458.406 220.909 431.707 220.909 402.451C220.909 379.269 227.769 357.766 239.574 339.7C255.368 323.393 271.161 309.964 285.359 299.172Z" fill="#403682"/>
<path d="M231.597 373.753C234.947 278.708 348.054 263.52 348.054 263.52L478.948 231.226C478.948 231.226 500.564 374.553 335.451 376.951L413.541 531.868L341.753 563.203L348.054 541.461C348.054 541.461 229.603 430.508 231.597 373.753Z" fill="#6C63A6"/>
<path d="M412.824 532.268L414.26 531.548L336.728 377.75C388.815 376.791 427.66 361.603 452.068 332.666C470.893 310.363 477.433 283.984 479.587 265.759C481.9 246.014 479.747 231.306 479.747 231.146L478.151 231.386C478.231 231.945 486.447 289.58 450.872 331.627C426.543 360.404 387.698 375.352 335.452 376.151H334.176L412.824 532.268Z" fill="#F5F6FA"/>
<path d="M478.949 138.659V231.226L348.055 263.441V160.322C348.055 123.791 372.942 91.8962 408.357 83.1831C444.331 74.39 478.949 101.648 478.949 138.659Z" fill="#AA4693"/>
<path d="M440.343 32.7429V47.5313C440.343 58.9622 432.526 68.8744 421.518 71.5922L398.067 77.3477V19.6333L417.61 14.8371C429.176 11.9594 440.343 20.7524 440.343 32.7429Z" fill="#6C63A6"/>
<path d="M398.226 78.1471L421.677 72.3916C433.163 69.5938 441.14 59.3619 441.14 47.5313H439.544C439.544 58.6425 432.046 68.2349 421.278 70.8728L397.827 76.6283L398.226 78.1471Z" fill="#F5F6FA"/>
<path d="M416.492 44.5736C415.875 44.5736 415.375 44.0725 415.375 43.4545C415.375 42.8364 415.875 42.3354 416.492 42.3354C417.108 42.3354 417.608 42.8364 417.608 43.4545C417.608 44.0725 417.108 44.5736 416.492 44.5736Z" fill="#F5F6FA"/>
<path d="M433.8 44.5736C433.184 44.5736 432.684 44.0725 432.684 43.4545C432.684 42.8364 433.184 42.3354 433.8 42.3354C434.417 42.3354 434.917 42.8364 434.917 43.4545C434.917 44.0725 434.417 44.5736 433.8 44.5736Z" fill="#F5F6FA"/>
<path d="M427.979 50.1692H429.574V33.5423H437.471V31.9436H427.979V50.1692Z" fill="#F5F6FA"/>
<path d="M414.258 31.9436H423.032V33.5423H414.258V31.9436Z" fill="#F5F6FA"/>
<path d="M400.859 41.6959V47.7711C397.589 47.7711 394.957 45.1332 394.957 41.8558C394.957 41.6959 394.957 41.4561 394.957 41.2962C395.276 37.6191 400.859 37.9388 400.859 41.6959Z" fill="#6C63A6"/>
<path d="M400.859 48.5705V46.9717C398.068 46.9717 395.754 44.6536 395.754 41.8558H394.159C394.159 45.5329 397.11 48.5705 400.859 48.5705Z" fill="#F5F6FA"/>
<path d="M421.199 54.166C422.395 54.166 423.592 53.6864 424.549 52.8071L423.432 51.688C422.236 52.887 420.242 52.887 419.045 51.688L417.928 52.8071C418.806 53.6864 420.002 54.166 421.199 54.166Z" fill="#AA4693"/>
<path d="M424.949 51.9278C425.028 51.9278 425.108 51.9278 425.108 51.9278L428.937 50.9685C429.336 50.8886 429.655 50.409 429.495 50.0093C429.336 49.6096 428.937 49.2899 428.538 49.4497L424.709 50.409C424.31 50.4889 423.991 50.9685 424.151 51.3682C424.231 51.688 424.55 51.9278 424.949 51.9278Z" fill="#F5F6FA"/>
<path d="M400.938 42.4952C420.002 40.1771 426.383 31.3041 428.537 26.2681C431.089 34.9012 440.422 39.8573 440.9 40.0971L441.618 38.6583C441.538 38.5783 431.408 33.2226 429.733 24.4295C429.653 23.9499 429.175 23.5502 428.696 23.5502C428.218 23.4703 427.739 23.79 427.58 24.3496C426.224 28.5063 420.959 38.4984 400.699 40.9764L400.938 42.4952Z" fill="#F5F6FA"/>
<path d="M355.632 112.12C365.842 112.12 375.812 108.443 383.709 101.648C393.281 93.415 398.785 81.4244 398.785 68.7944V52.2475H397.189V68.8744C397.189 81.0248 391.925 92.6156 382.672 100.529C373.419 108.443 361.295 111.96 349.251 110.122L324.045 106.205C329.469 98.0513 365.363 44.094 387.538 14.7572C398.226 0.768229 410.43 0.368545 418.806 2.52684C434.36 6.52368 447.202 21.3919 448.159 28.0267C449.914 39.5376 440.422 43.8542 440.023 44.094L440.661 45.5328C440.741 45.4529 451.669 40.4968 449.754 27.7869C448.558 20.033 434.918 5.00488 419.205 1.00804C410.351 -1.23019 397.429 -0.830506 386.421 13.7979C362.492 45.4529 322.609 105.725 322.21 106.365L321.492 107.404L349.091 111.641C351.245 111.96 353.478 112.12 355.632 112.12Z" fill="#F5F6FA"/>
<path d="M471.611 265.839C490.515 265.839 507.345 262.401 518.193 253.528C529.121 244.575 532.95 230.986 529.6 213.08C522.581 175.83 504.554 146.093 490.595 127.788C475.519 107.884 461.959 96.6124 461.8 96.4525L460.763 97.6516C461.321 98.1312 514.684 142.736 528.005 213.32C531.275 230.586 527.606 243.696 517.157 252.249C489.877 274.472 422.874 261.922 383.949 245.854L383.311 247.293C407.32 257.285 441.938 265.839 471.611 265.839Z" fill="#F5F6FA"/>
<path d="M336.249 265.519C340.317 237.061 376.85 221.074 406.841 212.681C439.465 203.568 471.531 201.25 471.85 201.25L471.77 199.651C471.451 199.651 439.226 202.049 406.442 211.162C387.139 216.518 371.426 223.232 359.7 230.986C344.944 240.738 336.568 252.329 334.734 265.279L336.249 265.519Z" fill="#F5F6FA"/>
<path d="M241.888 314.44C253.215 290.699 262.946 281.426 285.041 273.193L285.44 273.033L285.52 272.633C305.7 207.725 329.63 163.599 346.221 138.02C364.168 110.282 377.489 97.8115 377.568 97.6516L376.452 96.4525C376.292 96.6124 362.892 109.162 344.865 137.06C328.274 162.72 304.344 206.845 284.084 271.834C261.75 280.227 251.939 289.66 240.373 313.721L241.888 314.44Z" fill="#F5F6FA"/>
<path d="M424.549 408.046C453.982 408.046 494.104 404.209 526.807 387.263C562.303 368.797 560.149 302.29 552.013 249.771C542.521 188.7 522.819 129.626 516.279 115.238C512.29 106.525 507.584 102.128 502.399 102.128H502.32C491.95 102.128 483.495 119.474 483.176 120.194L484.612 120.913C484.692 120.753 492.987 103.727 502.32 103.727H502.399C506.946 103.727 511.174 107.884 514.843 115.957C521.383 130.186 541.006 189.099 550.418 250.011C558.474 302.05 560.787 367.838 526.09 385.904C492.03 403.57 449.675 406.847 420.162 406.447C388.096 406.048 363.848 401.331 363.608 401.331L363.289 402.93C363.529 403.01 387.937 407.646 420.082 408.126C421.518 407.966 423.033 408.046 424.549 408.046Z" fill="#F5F6FA"/>
</svg>
