<svg width="525" height="547" viewBox="0 0 525 547" fill="none" xmlns="http://www.w3.org/2000/svg">
<path d="M307.964 444.437C307.964 444.437 411.095 640.308 387.715 722.916C364.335 805.785 66.2428 883.717 66.2428 883.717L42.863 918.787L0 731.749L159.762 653.816L164.828 392.092" fill="#BB6BA9"/>
<path d="M273.284 400.664C273.284 400.664 299.521 828.645 225.485 1031.27L240.942 1054H109.106C109.106 1054 94.688 509.64 94.688 392.222L273.284 400.664Z" fill="#BB6BA9"/>
<path d="M233.668 69.4509V125.173L164.828 142.058V48.1493L233.668 31.2639V69.4509Z" fill="#BB6BA9"/>
<path d="M194.832 88.6742C195.836 88.6742 196.65 87.8601 196.65 86.8558C196.65 85.8515 195.836 85.0374 194.832 85.0374C193.827 85.0374 193.013 85.8515 193.013 86.8558C193.013 87.8601 193.827 88.6742 194.832 88.6742Z" fill="#F5F6FA"/>
<path d="M223.147 88.6742C224.151 88.6742 224.965 87.8601 224.965 86.8558C224.965 85.8515 224.151 85.0374 223.147 85.0374C222.143 85.0374 221.329 85.8515 221.329 86.8558C221.329 87.8601 222.143 88.6742 223.147 88.6742Z" fill="#F5F6FA"/>
<path d="M216.133 97.8961H213.535V68.1519H228.992V70.7496H216.133V97.8961Z" fill="#F5F6FA"/>
<path d="M205.482 68.1519H191.324V70.7496H205.482V68.1519Z" fill="#F5F6FA"/>
<path d="M169.373 83.9985V93.87C164.048 93.87 159.762 89.5837 159.762 84.2583C159.762 83.9985 159.762 83.6088 159.762 83.3491C160.281 77.3742 169.373 78.0237 169.373 83.9985Z" fill="#BB6BA9"/>
<path d="M169.373 95.1686C163.399 95.1686 158.463 90.2329 158.463 84.2581H161.061C161.061 88.8041 164.827 92.5709 169.373 92.5709V95.1686Z" fill="#F5F6FA"/>
<path d="M208.6 106.209C202.495 106.209 197.56 101.273 197.56 95.1687H200.157C200.157 99.8447 203.924 103.611 208.6 103.611V106.209Z" fill="#FF6498"/>
<path d="M233.392 123.888L164.523 140.831L165.144 143.353L234.013 126.411L233.392 123.888Z" fill="#F5F6FA"/>
<path d="M208.6 100.754C208.081 100.754 207.431 100.364 207.301 99.7147C207.171 99.0653 207.561 98.2859 208.21 98.1561L214.445 96.5974C215.095 96.4675 215.874 96.8572 216.004 97.5066C216.134 98.1561 215.744 98.9354 215.095 99.0653L208.86 100.624C208.73 100.754 208.73 100.754 208.6 100.754Z" fill="#F5F6FA"/>
<path d="M161.061 80.2314C160.671 79.1923 150.67 56.2022 160.152 41.5249C164.958 34.1213 173.66 30.3545 186.259 30.0947C190.026 28.0165 225.096 9.96213 240.422 22.821C244.189 25.9383 246.137 29.835 246.397 34.5109C247.177 46.9801 235.097 60.0988 234.577 60.6184L232.629 58.7999C232.759 58.67 244.449 45.941 243.67 34.6408C243.41 30.7442 241.721 27.497 238.604 24.7693C224.057 12.5599 187.428 32.3028 187.039 32.4327L186.779 32.5626H186.519C174.699 32.6925 166.646 36.1995 162.36 42.8237C153.657 56.3321 163.399 78.9325 163.399 79.1923L161.061 80.2314Z" fill="#F5F6FA"/>
<path d="M170.023 83.4786L168.334 81.5303C168.464 81.5303 175.348 75.4256 178.855 62.8265L179.115 62.0471L180.024 61.9173C180.414 61.9173 225.225 55.8125 232.629 42.1743L234.967 43.4732C227.303 57.2413 187.688 63.346 181.063 64.2552C177.297 77.1141 170.283 83.2188 170.023 83.4786Z" fill="#F5F6FA"/>
<path d="M94.8179 241.682V392.092L307.964 444.437V276.882C307.964 217.523 267.439 165.698 209.769 151.54C151.189 137.252 94.8179 181.414 94.8179 241.682Z" fill="#473C90"/>
<path d="M226.654 1031.66L224.187 1030.75C280.818 875.664 278.48 584.845 274.713 467.037L277.311 466.907C279.389 533.54 280.558 635.112 274.453 739.672C267.179 866.572 251.073 964.767 226.654 1031.66Z" fill="#F5F6FA"/>
<path d="M334.85 412.094L334.331 409.497C354.723 405.21 382.649 395.339 399.924 372.739C429.538 333.902 393.17 186.609 392.78 185.051L392.65 184.401L393.17 183.882C393.43 183.622 423.174 152.839 423.953 141.928C423.953 141.019 423.694 140.759 423.434 140.499C418.888 137.382 394.858 146.994 380.831 153.878L379.532 154.527L379.142 153.098C379.142 153.098 377.843 149.332 374.596 148.033C372.128 147.123 369.011 147.773 365.504 149.981C357.061 155.177 345.631 242.851 340.176 300.651L339.656 305.976L337.708 301.04C317.186 249.475 277.44 195.442 277.05 194.792L279.128 193.234C279.518 193.753 317.056 244.799 338.098 295.196C340.955 266.62 352.775 154.787 364.205 147.773C368.491 145.175 372.388 144.396 375.635 145.695C378.623 146.864 380.311 149.461 381.09 151.02C388.364 147.513 418.238 133.875 425.122 138.421C425.902 138.941 426.941 140.11 426.811 142.188C426.032 153.358 399.924 180.894 395.768 185.181C398.885 197.65 431.876 335.461 402.262 374.297C384.208 397.547 355.762 407.678 334.85 412.094Z" fill="#F5F6FA"/>
<path d="M505 0H351V107H505V0Z" fill="#BB6BA9"/>
<path d="M524.747 121.406H374.986V16.4565H524.747V121.406ZM377.584 118.808H522.149V19.0543H377.584V118.808Z" fill="#F5F6FA"/>
<path d="M449.932 70.4901L449.152 69.9705L375.636 18.7948L377.064 16.7166L449.932 67.3728L522.669 16.7166L524.227 18.7948L449.932 70.4901Z" fill="#F5F6FA"/>
<path d="M178.336 470.025C156.515 470.025 136.252 467.167 117.678 461.452C83.6476 451.061 56.631 431.188 37.4076 402.483C19.0934 375.207 13.1186 345.592 19.7429 314.549C29.3546 269.088 64.5541 228.433 92.3501 202.196C122.354 173.881 150.54 156.086 150.8 155.826L152.228 158.034C151.059 158.684 40.5249 229.213 22.3406 315.069C15.8462 345.332 21.6912 374.297 39.6157 401.054C85.7258 469.895 167.685 470.804 212.366 465.219C271.985 457.815 320.693 433.656 324.33 423.395C325.499 420.018 325.239 417.16 323.42 414.692C315.367 403.262 280.428 403.132 280.168 403.132H279.259L278.869 402.353C275.882 395.859 270.166 387.286 266.919 388.715C262.373 390.663 254.58 402.093 251.982 406.38L251.463 407.289L118.198 356.892L185.739 273.634L187.818 275.323L122.614 355.723L250.553 404.042C252.761 400.535 260.685 388.585 266.01 386.247C272.245 383.519 278.999 396.248 280.947 400.405C286.532 400.535 317.316 401.444 325.499 413.134C327.837 416.381 328.226 420.148 326.668 424.304C322.381 436.384 271.465 460.543 212.626 467.817C200.806 469.245 189.376 470.025 178.336 470.025Z" fill="#F5F6FA"/>
</svg>
