<svg width="534" height="673" viewBox="0 0 534 673" fill="none" xmlns="http://www.w3.org/2000/svg">
<path d="M379.701 530.837V655.033L371.493 672.685H427.765L445.996 498.685L379.701 530.837Z" fill="#B6DEF6"/>
<path d="M392.25 349.902L479.618 344.78V439.424V672.685H420.504L427.765 659.682L392.25 349.902Z" fill="#B6DEF6"/>
<path d="M396.512 194.815V206.478C396.512 215.462 402.668 223.342 411.428 225.47L429.975 230.041V184.492L414.506 180.709C405.351 178.424 396.512 185.359 396.512 194.815Z" fill="#B6DEF6"/>
<path d="M429.817 230.829L411.27 226.258C402.115 224.052 395.723 215.856 395.723 206.478H397.301C397.301 215.147 403.22 222.633 411.586 224.682L430.133 229.253L429.817 230.829Z" fill="#0C162F"/>
<path d="M415.375 204.114C415.854 204.114 416.243 203.726 416.243 203.247C416.243 202.769 415.854 202.38 415.375 202.38C414.895 202.38 414.506 202.769 414.506 203.247C414.506 203.726 414.895 204.114 415.375 204.114Z" fill="#0C162F"/>
<path d="M401.642 204.114C402.122 204.114 402.51 203.726 402.51 203.247C402.51 202.769 402.122 202.38 401.642 202.38C401.163 202.38 400.774 202.769 400.774 203.247C400.774 203.726 401.163 204.114 401.642 204.114Z" fill="#0C162F"/>
<path d="M406.456 208.606H404.878V195.603H398.801V194.027H406.456V208.606Z" fill="#0C162F"/>
<path d="M417.111 194.027H410.166V195.603H417.111V194.027Z" fill="#0C162F"/>
<path d="M427.765 201.908V206.715C430.37 206.715 432.422 204.587 432.422 202.065C432.422 201.908 432.422 201.75 432.422 201.671C432.185 198.677 427.765 198.992 427.765 201.908Z" fill="#B6DEF6"/>
<path d="M427.765 207.503V205.927C429.896 205.927 431.632 204.193 431.632 202.065H433.211C433.211 204.981 430.764 207.503 427.765 207.503Z" fill="#0C162F"/>
<path d="M411.665 211.758C410.718 211.758 409.771 211.364 409.061 210.655L409.929 209.788C410.876 210.734 412.533 210.734 413.48 209.788L414.348 210.655C413.559 211.364 412.612 211.758 411.665 211.758Z" fill="#FF6498"/>
<path d="M408.745 210.182C408.666 210.182 408.587 210.182 408.587 210.182L405.588 209.473C405.194 209.394 404.878 208.921 405.036 208.527C405.115 208.133 405.588 207.818 405.983 207.976L408.982 208.685C409.376 208.764 409.692 209.236 409.534 209.63C409.376 209.946 409.061 210.182 408.745 210.182Z" fill="#0C162F"/>
<path d="M427.765 201.592C424.608 201.592 422.241 195.524 421.53 189.535C420.899 184.807 413.954 184.492 407.719 184.255C406.614 184.177 405.588 184.177 404.562 184.098C398.564 183.704 397.932 190.245 397.932 190.56L396.354 190.481C396.354 190.323 396.67 186.541 399.274 184.177C400.695 182.916 402.51 182.364 404.641 182.522C405.667 182.601 406.693 182.601 407.798 182.679C414.585 182.995 422.32 183.31 423.109 189.378C423.898 195.997 426.424 200.016 427.765 200.016V201.592Z" fill="#0C162F"/>
<path d="M430.291 215.935L429.975 214.359C452.784 210.261 459.256 195.918 457.756 183.861C455.704 167.549 438.972 151 415.453 152.734C404.01 153.522 396.433 157.383 392.802 164.003C385.384 177.636 397.064 198.992 397.143 199.228L395.723 200.016C395.249 199.149 383.569 177.715 391.382 163.293C395.249 156.122 403.299 152.103 415.296 151.236C439.683 149.503 457.125 166.761 459.256 183.783C460.913 196.47 454.126 211.679 430.291 215.935Z" fill="#0C162F"/>
<path d="M427.765 214.043C425.556 214.043 423.819 212.231 423.819 210.103C423.819 207.976 425.635 206.163 427.765 206.163V207.345C426.266 207.345 425.003 208.606 425.003 210.103C425.003 211.601 426.266 212.861 427.765 212.861C429.265 212.861 430.528 211.601 430.528 210.103H431.712C431.712 212.231 429.975 214.043 427.765 214.043Z" fill="#AA4693"/>
<path d="M394.302 214.043C392.092 214.043 390.356 212.231 390.356 210.103C390.356 207.976 392.171 206.163 394.302 206.163V207.345C392.803 207.345 391.54 208.606 391.54 210.103C391.54 211.601 392.803 212.861 394.302 212.861C394.933 212.861 395.565 212.625 396.117 212.231L396.907 213.098C396.196 213.649 395.249 214.043 394.302 214.043Z" fill="#AA4693"/>
<path d="M479.618 278.427V351.478L375.992 376.853V295.527C375.992 266.685 395.722 241.546 423.74 234.69C452.152 227.677 479.618 249.19 479.618 278.427Z" fill="#AA4693"/>
<path d="M479.618 351.399L375.992 376.853V536.826L533.443 512.003L479.618 351.399Z" fill="#473C90"/>
<path d="M421.214 673L419.794 672.291L426.976 659.524L407.008 485.446L408.587 485.288L428.554 659.84L421.214 673Z" fill="#0C162F"/>
<path d="M445.681 369.209C442.366 369.209 438.815 368.894 435.105 368.342C412.77 364.875 389.488 351.636 373.861 341.234C357.129 330.043 343.476 317.986 343.002 315.149C342.608 312.943 343.318 310.973 345.133 309.712C348.685 307.111 355.63 307.427 361.786 310.342C361.707 309.003 361.944 307.19 363.049 306.245C363.917 305.535 365.18 305.457 366.758 306.008C371.257 307.742 373.861 312.391 374.571 313.81L444.181 316.726L435.184 278.663L436.684 278.269L446.154 318.38L373.466 315.386L373.309 314.913C373.309 314.834 370.862 309.318 366.206 307.505C365.18 307.111 364.469 307.111 364.075 307.427C363.128 308.215 363.364 310.736 363.443 311.524L363.759 313.179L362.338 312.391C355.867 308.845 349 308.924 346.08 311.052C344.738 311.997 344.265 313.337 344.581 314.913C345.37 319.247 394.381 360.462 435.421 366.845C456.809 370.234 472.199 363.535 481.196 346.986C497.77 316.41 492.324 290.484 484.827 274.171C476.698 256.44 464.465 245.723 464.307 245.644L465.333 244.462C465.491 244.541 477.96 255.416 486.247 273.541C493.903 290.247 499.506 316.647 482.617 347.774C474.725 362.038 462.334 369.209 445.681 369.209Z" fill="#0C162F"/>
<path d="M338.661 352.345L293.833 252.264L366.916 232.405L367.152 233.114L398.406 315.228L396.985 315.859L365.969 234.296L295.964 253.288L339.529 350.533L378.438 342.652L378.754 344.149L338.661 352.345Z" fill="#0C162F"/>
<path d="M390.04 350.296C390.04 350.296 429.975 401.992 488.93 379.375L479.381 351.321C460.203 379.848 421.294 367.87 390.04 350.296Z" fill="#0C162F"/>
<path d="M396.653 247.974L378.052 264.682L379.107 265.853L397.709 249.146L396.653 247.974Z" fill="#0C162F"/>
<path d="M356.893 363.456C348.842 363.456 338.74 361.171 327.533 353.685C299.595 335.008 310.959 290.878 311.117 290.405L312.617 290.799C312.538 291.193 301.41 334.299 328.401 352.345C355.393 370.391 375.361 357.231 375.597 357.073L376.466 358.334C376.308 358.492 368.81 363.456 356.893 363.456Z" fill="#0C162F"/>
<g clip-path="url(#clip0_225_88)">
<path d="M88.1259 270.618H127.597C127.597 270.618 169.999 487.333 156.972 578.39L171.366 587.626L106.494 602L67.8042 420.537L88.1259 270.618Z" fill="#C6CED5"/>
<path d="M110.857 448.439C110.857 481.155 103.888 511.268 92.2292 535.073L67.8042 420.537L78.8117 339.756C98.3518 365.512 110.857 404.602 110.857 448.439Z" fill="#B0B7BE"/>
<path d="M110.857 268.992L20.7127 263.789V361.35V602H84.9994L77.5091 588.602L110.857 268.992Z" fill="#DCE5ED"/>
<path d="M110.201 268.942L111.497 269.076L78.1947 588.642L76.8991 588.507L110.201 268.942Z" fill="#0C162F"/>
<path d="M103.758 109.057V121.089C103.758 130.39 97.3747 138.455 88.3863 140.667L69.2371 145.35V98.3902L85.1948 94.4878C94.574 92.1463 103.758 99.3008 103.758 109.057Z" fill="#B6DEF6"/>
<path d="M69.3674 146L88.5166 141.317C97.8958 139.041 104.409 130.715 104.409 121.089H103.107C103.107 130.13 96.984 137.935 88.1909 140.081L69.0417 144.764L69.3674 146Z" fill="#0C162F"/>
<path d="M84.2178 118.683C83.7142 118.683 83.3059 118.275 83.3059 117.772C83.3059 117.269 83.7142 116.862 84.2178 116.862C84.7214 116.862 85.1296 117.269 85.1296 117.772C85.1296 118.275 84.7214 118.683 84.2178 118.683Z" fill="#0C162F"/>
<path d="M98.417 118.683C97.9134 118.683 97.5051 118.275 97.5051 117.772C97.5051 117.269 97.9134 116.862 98.417 116.862C98.9206 116.862 99.3289 117.269 99.3289 117.772C99.3289 118.275 98.9206 118.683 98.417 118.683Z" fill="#0C162F"/>
<path d="M93.597 123.301H94.8997V109.707H101.348V108.407H93.597V123.301Z" fill="#0C162F"/>
<path d="M82.4591 108.407H89.6238V109.707H82.4591V108.407Z" fill="#0C162F"/>
<path d="M71.4517 116.341V121.285C68.7812 121.285 66.6318 119.138 66.6318 116.472C66.6318 116.341 66.6318 116.146 66.6318 116.016C66.8923 113.024 71.4517 113.35 71.4517 116.341Z" fill="#B6DEF6"/>
<path d="M71.4517 121.935V120.634C69.172 120.634 67.2831 118.748 67.2831 116.472H65.9805C65.9805 119.463 68.4555 121.935 71.4517 121.935Z" fill="#0C162F"/>
<path d="M88.0608 126.488C89.0378 126.488 90.0148 126.098 90.7964 125.382L89.8845 124.472C88.9075 125.447 87.2792 125.447 86.3022 124.472L85.3903 125.382C86.1068 126.163 87.0838 126.488 88.0608 126.488Z" fill="#FF6498"/>
<path d="M91.122 124.732C91.1872 124.732 91.2523 124.732 91.2523 124.732L94.3787 123.951C94.7044 123.886 94.9649 123.496 94.8346 123.171C94.7695 122.846 94.3787 122.585 94.053 122.715L90.9266 123.496C90.601 123.561 90.3404 123.951 90.4707 124.276C90.5358 124.472 90.8615 124.732 91.122 124.732Z" fill="#0C162F"/>
<path d="M71.3866 115.951C77.1835 114.715 79.1375 107.561 79.6586 104.504C82.3291 106.846 87.1489 108.016 87.3443 108.081L88.1259 108.276V104.959C92.6853 111.268 102.911 115.756 103.432 115.951L103.953 114.78C103.823 114.715 91.3826 109.252 88.0608 102.358L86.8233 99.7561V106.715C85.1298 106.195 81.1566 104.894 79.7237 102.813L78.7467 101.382L78.5513 103.138C78.5513 103.268 77.444 113.48 71.061 114.846L71.3866 115.951Z" fill="#0C162F"/>
<path d="M117.371 140.472C140.298 140.472 158.535 131.236 168.566 121.61C175.861 114.52 179.508 106.715 178.205 100.667C177.098 95.3984 174.753 91.8211 171.236 90.065C166.286 87.5935 160.619 89.4146 158.926 90.1301C153.39 82.9106 143.685 80.1138 135.087 83.3008C126.75 86.4228 114.831 89.935 105.516 89.0894C103.172 88.8943 100.762 88.5691 98.4821 88.3089C82.9803 86.4878 66.9575 84.6016 60.1184 100.667C52.3024 119.008 68.6509 131.431 68.7812 131.561L69.5628 130.52C68.9115 130.065 53.8656 118.618 61.2257 101.252C67.6739 86.0325 82.5243 87.7886 98.2215 89.6748C100.566 89.935 102.976 90.2602 105.321 90.4553C114.896 91.3659 127.011 87.7236 135.478 84.6016C143.685 81.5447 152.999 84.2764 158.079 91.3659L158.405 91.8211L158.861 91.626C158.926 91.626 165.374 88.7642 170.52 91.3659C173.646 92.9268 175.795 96.2439 176.838 101.057C178.01 106.65 174.558 114 167.589 120.764C154.823 133.122 128.313 144.634 95.8767 136.634L95.5511 137.87C103.237 139.626 110.467 140.472 117.371 140.472Z" fill="#0C162F"/>
<path d="M127.597 195.236V270.618L20.7127 296.829V212.927C20.7127 183.203 41.0343 157.252 69.9535 150.163C99.2636 142.943 127.597 165.122 127.597 195.236Z" fill="#473C90"/>
<path d="M98.8729 204.927L216.113 253.317C228.423 258.39 239.301 266.585 247.573 276.992L264.833 298.78H230.508C220.347 298.78 210.251 296.764 200.872 292.927L82.5244 244.602C69.1069 239.138 64.8733 222.228 74.1222 211.106C80.1145 203.821 90.145 201.35 98.8729 204.927Z" fill="#B6DEF6"/>
<path d="M264.833 299.431V298.13H230.508C220.347 298.13 210.447 296.179 201.067 292.341L82.7198 244.016L82.1987 245.252L200.611 293.577C210.121 297.48 220.217 299.431 230.508 299.431H264.833Z" fill="#0C162F"/>
<path d="M22.0154 279.073C35.4329 279.073 54.7124 272.764 79.7237 260.211C104.149 247.919 125.643 233.74 127.792 232.309C129.225 232.309 136.65 231.789 139.516 223.398C140.623 223.268 143.294 222.878 144.271 221.577C144.597 221.057 144.727 220.537 144.531 219.951C143.685 216.829 127.662 208.049 103.172 209.285C78.2907 210.585 35.6935 226.39 35.2375 226.585L35.6935 227.821C36.1494 227.691 78.5513 211.886 103.237 210.65C129.03 209.285 142.838 218.78 143.294 220.341C143.359 220.537 143.359 220.732 143.229 220.927C142.643 221.772 140.363 222.163 138.995 222.228H138.539L138.409 222.683C135.673 231.398 127.922 231.138 127.597 231.138H127.401L127.206 231.268C126.424 231.789 57.3829 277.837 21.8852 277.837C17.2607 277.837 13.1573 277.057 9.9006 275.236C3.97346 271.984 1.10757 265.61 1.30298 256.179C1.95432 224.439 12.8967 201.74 21.8852 188.276C31.6552 173.707 41.4252 166.488 41.4903 166.423L40.7087 165.382C40.5785 165.447 30.6782 172.732 20.7779 187.496C11.6592 201.089 0.586502 224.114 -0.0648193 256.179C-0.260223 266.13 2.8662 272.959 9.24927 276.406C12.7013 278.163 16.935 279.073 22.0154 279.073Z" fill="#0C162F"/>
<path d="M264.833 298.78H243.274C244.446 292.211 247.247 286.293 251.09 281.48L264.833 298.78Z" fill="#AA4693"/>
<path d="M154.562 228.472L155.734 227.951C139.842 192.699 117.762 165.707 117.566 165.447L116.589 166.293C116.785 166.488 138.735 193.35 154.562 228.472Z" fill="#0C162F"/>
<path d="M145.574 293.772C163.355 293.772 178.01 284.211 178.206 284.081L177.489 282.976C177.229 283.106 153.325 298.715 129.746 289.545L129.29 290.78C134.762 292.927 140.298 293.772 145.574 293.772Z" fill="#0C162F"/>
<path d="M199.83 248.699L201.132 248.569C201.067 248.179 199.895 238.618 194.358 234.65C192.144 233.089 189.604 232.634 186.673 233.285C177.228 235.366 176.186 238.553 176.186 239.789C176.186 240.764 176.772 241.61 177.684 241.805C179.247 242.13 185.175 241.87 186.347 241.805L190.516 243.496L191.037 242.325L186.608 240.504H186.477C184.523 240.569 179.247 240.764 178.01 240.504C177.749 240.439 177.554 240.179 177.554 239.789C177.554 238.358 180.029 236.081 186.998 234.52C189.539 233.935 191.753 234.39 193.642 235.691C198.657 239.333 199.83 248.634 199.83 248.699Z" fill="#0C162F"/>
</g>
<path d="M293.723 130.858C324.052 130.858 348.639 106.308 348.639 76.0247C348.639 45.741 324.052 21.1912 293.723 21.1912C263.394 21.1912 238.807 45.741 238.807 76.0247C238.807 106.308 263.394 130.858 293.723 130.858Z" fill="#F5F6FA"/>
<path d="M349.128 76.0247H348.15C348.15 46.0445 323.748 21.6795 293.723 21.6795C263.698 21.6795 239.247 46.0445 239.247 76.0247H238.269C238.269 45.5074 263.111 20.7029 293.674 20.7029C324.237 20.7029 349.128 45.5074 349.128 76.0247Z" fill="#0C162F"/>
<path d="M317.098 111.034H270.299V150.682H317.098V111.034Z" fill="#F5F6FA"/>
<path d="M317.098 134.325H270.299V150.731H317.098V134.325Z" fill="#0C162F"/>
<path d="M294.212 0H293.234V13.0858H294.212V0Z" fill="#0C162F"/>
<path d="M274.448 2.44225L273.503 2.69498L276.895 15.3346L277.839 15.0818L274.448 2.44225Z" fill="#0C162F"/>
<path d="M256.034 9.91772L255.188 10.406L261.74 21.7383L262.587 21.25L256.034 9.91772Z" fill="#0C162F"/>
<path d="M240.205 21.9459L239.513 22.6364L248.78 31.8894L249.472 31.1988L240.205 21.9459Z" fill="#0C162F"/>
<path d="M227.982 37.5941L227.493 38.4398L238.842 44.9827L239.331 44.137L227.982 37.5941Z" fill="#0C162F"/>
<path d="M220.253 55.8717L220 56.8149L232.659 60.2016L232.912 59.2583L220.253 55.8717Z" fill="#0C162F"/>
<path d="M367.113 55.8899L354.455 59.2765L354.708 60.2197L367.366 56.8331L367.113 55.8899Z" fill="#0C162F"/>
<path d="M359.413 37.6165L348.062 44.1581L348.551 45.0039L359.902 38.4623L359.413 37.6165Z" fill="#0C162F"/>
<path d="M347.207 21.9229L337.94 31.1758L338.632 31.8664L347.899 22.6134L347.207 21.9229Z" fill="#0C162F"/>
<path d="M331.362 9.94949L324.81 21.2831L325.657 21.7713L332.209 10.4377L331.362 9.94949Z" fill="#0C162F"/>
<path d="M312.957 2.46952L309.565 15.1091L310.51 15.3618L313.902 2.72225L312.957 2.46952Z" fill="#0C162F"/>
<defs>
<clipPath id="clip0_225_88">
<rect width="264.833" height="520" fill="white" transform="matrix(-1 0 0 1 264.833 82)"/>
</clipPath>
</defs>
</svg>
