<svg width="546" height="554" viewBox="0 0 546 554" fill="none" xmlns="http://www.w3.org/2000/svg">
<path d="M479.727 612.239C446.601 398.301 252.632 305.549 252.632 305.549L171.842 347.325C168.989 347.325 187.024 423.974 187.024 423.974L306.737 476.975L417.524 648.401L501.811 619.232L479.727 612.239Z" fill="#BB6BA9"/>
<path d="M313.362 344.38C295.879 335.914 276.28 331.13 255.576 331.13C224.383 331.13 195.674 341.988 173.13 360.023C177.087 381.83 186.932 423.974 186.932 423.974L306.645 476.975L354.493 550.956C375.197 527.676 387.711 496.942 387.711 463.265C387.711 436.58 379.798 411.828 366.179 391.032C347.96 372.261 329.741 356.802 313.362 344.38Z" fill="#AA4693"/>
<path d="M375.381 430.231C371.516 320.824 241.038 303.341 241.038 303.341L90.0393 266.166C90.0393 266.166 65.103 431.151 255.576 433.911L165.492 612.238L248.307 648.308L241.038 623.28C241.038 623.28 377.681 495.562 375.381 430.231Z" fill="#BB6BA9"/>
<path d="M166.321 612.699L164.664 611.871L254.104 434.832C194.017 433.728 149.206 416.245 121.049 382.935C99.333 357.263 91.7877 326.897 89.3033 305.918C86.6348 283.19 89.1192 266.259 89.1192 266.075L90.9596 266.351C90.8676 266.995 81.3899 333.338 122.429 381.739C150.494 414.865 195.306 432.072 255.576 432.992H257.048L166.321 612.699Z" fill="#F5F6FA"/>
<path d="M90.0396 159.612V266.167L241.038 303.249V184.548C241.038 142.497 212.329 105.783 171.474 95.753C129.974 85.6312 90.0396 117.009 90.0396 159.612Z" fill="#473C90"/>
<path d="M134.575 37.6911V54.714C134.575 67.8723 143.593 79.2823 156.291 82.4109L183.344 89.036V22.6005L160.8 17.0795C147.458 13.7669 134.575 23.8887 134.575 37.6911Z" fill="#BB6BA9"/>
<path d="M183.16 89.956L156.107 83.3308C142.857 80.1103 133.655 68.3322 133.655 54.7139H135.495C135.495 67.5041 144.145 78.546 156.567 81.5825L183.62 88.2077L183.16 89.956Z" fill="#F5F6FA"/>
<path d="M162.088 51.3091C162.8 51.3091 163.376 50.7324 163.376 50.0209C163.376 49.3094 162.8 48.7327 162.088 48.7327C161.377 48.7327 160.8 49.3094 160.8 50.0209C160.8 50.7324 161.377 51.3091 162.088 51.3091Z" fill="#F5F6FA"/>
<path d="M142.121 51.3091C142.832 51.3091 143.409 50.7324 143.409 50.0209C143.409 49.3094 142.832 48.7327 142.121 48.7327C141.409 48.7327 140.833 49.3094 140.833 50.0209C140.833 50.7324 141.409 51.3091 142.121 51.3091Z" fill="#F5F6FA"/>
<path d="M148.838 57.7506H146.998V38.6113H137.888V36.771H148.838V57.7506Z" fill="#F5F6FA"/>
<path d="M164.665 36.771H154.543V38.6113H164.665V36.771Z" fill="#F5F6FA"/>
<path d="M180.123 47.9967V54.9899C183.896 54.9899 186.932 51.9533 186.932 48.1807C186.932 47.9967 186.932 47.7206 186.932 47.5366C186.564 43.3038 180.123 43.6719 180.123 47.9967Z" fill="#BB6BA9"/>
<path d="M180.123 55.91V54.0697C183.344 54.0697 186.012 51.4012 186.012 48.1807H187.853C187.853 52.4134 184.448 55.91 180.123 55.91Z" fill="#F5F6FA"/>
<path d="M156.659 62.3513C155.279 62.3513 153.899 61.7992 152.794 60.787L154.083 59.4988C155.463 60.879 157.763 60.879 159.144 59.4988L160.432 60.787C159.42 61.7992 158.039 62.3513 156.659 62.3513Z" fill="#FF6498"/>
<path d="M152.335 59.7747C152.243 59.7747 152.151 59.7747 152.151 59.7747L147.734 58.6705C147.274 58.5785 146.906 58.0264 147.09 57.5663C147.274 57.1062 147.734 56.7381 148.194 56.9222L152.611 58.0264C153.071 58.1184 153.439 58.6705 153.255 59.1306C153.163 59.4986 152.795 59.7747 152.335 59.7747Z" fill="#F5F6FA"/>
<path d="M180.031 48.9168C158.039 46.2483 150.678 36.0345 148.193 30.2375C145.249 40.1752 134.483 45.8802 133.931 46.1563L133.103 44.5C133.195 44.408 144.881 38.2429 146.813 28.1211C146.905 27.569 147.457 27.109 148.009 27.109C148.561 27.0169 149.114 27.385 149.298 28.0291C150.862 32.814 156.935 44.316 180.307 47.1685L180.031 48.9168Z" fill="#F5F6FA"/>
<path d="M232.296 129.063C220.518 129.063 209.016 124.83 199.906 117.009C188.864 107.531 182.515 93.7285 182.515 79.1899V60.1426H184.356V79.282C184.356 93.2684 190.429 106.611 201.103 115.72C211.776 124.83 225.763 128.879 239.657 126.762L268.734 122.253C262.477 112.868 221.07 50.757 195.49 16.9871C183.159 0.884316 169.081 0.424235 159.419 2.90867C141.476 7.50947 126.662 24.6244 125.557 32.2618C123.533 45.5121 134.483 50.4809 134.943 50.757L134.207 52.4133C134.115 52.3213 121.509 46.6163 123.717 31.9857C125.097 23.0602 140.832 5.76116 158.959 1.16036C169.173 -1.41608 184.08 -0.956004 196.778 15.8829C224.383 52.3213 270.391 121.701 270.851 122.437L271.679 123.634L239.841 128.511C237.357 128.879 234.78 129.063 232.296 129.063Z" fill="#F5F6FA"/>
<path d="M529.324 240.586H289.07L305.541 96.4888H545.795L529.324 240.586Z" fill="#BB6BA9"/>
<path d="M520.674 229.176H278.488L278.58 228.164L295.143 83.2388H537.237L537.145 84.2509L520.674 229.176ZM280.605 227.336H519.018L535.305 85.0791H296.891L280.605 227.336Z" fill="#F5F6FA"/>
<path d="M416.144 282.913L422.401 228.256H383.939L377.681 282.913H416.144Z" fill="#F5F6FA"/>
<path d="M539.722 281.993H210.949V283.833H539.722V281.993Z" fill="#F5F6FA"/>
<path d="M98.5046 306.01C76.6968 306.01 57.2814 302.053 44.7672 291.839C32.161 281.533 27.7443 265.891 31.6089 245.279C39.7063 202.399 60.502 168.17 76.6048 147.098C93.9958 124.186 109.638 111.212 109.823 111.028L111.019 112.408C110.375 112.96 48.8159 164.305 33.4493 245.555C29.6766 265.43 33.9093 280.521 45.9634 290.367C77.4329 315.947 154.726 301.501 199.63 283.006L200.366 284.662C172.669 296.164 132.735 306.01 98.5046 306.01Z" fill="#F5F6FA"/>
<path d="M247.387 277.392C245.822 267.362 240.486 258.989 231.56 252.64C193.097 225.127 99.425 241.322 98.5048 241.506L98.2288 239.666C99.1489 239.482 193.649 223.195 232.664 251.076C242.05 257.793 247.571 266.442 249.227 277.024L247.387 277.392Z" fill="#F5F6FA"/>
<path d="M305.725 277.301C303.976 243.439 260.637 241.506 260.177 241.506H259.441L259.349 240.77C247.939 158.692 204.415 112.96 203.955 112.5L205.243 111.212C205.703 111.672 249.319 157.588 261.005 239.758C266.986 240.218 305.909 244.267 307.565 277.209L305.725 277.301Z" fill="#F5F6FA"/>
<path d="M152.794 469.706C118.84 469.706 72.5563 465.289 34.8298 445.782C-6.11734 424.526 -3.63291 347.969 5.75273 287.514C16.7026 217.214 39.4306 149.214 46.9759 132.651C51.5767 122.621 57.0056 117.561 62.9867 117.561H63.0787C75.0408 117.561 84.7945 137.528 85.1625 138.356L83.5063 139.184C83.4142 139 73.8446 119.401 63.0787 119.401H62.9867C57.7418 119.401 52.8649 124.186 48.6322 133.479C41.0869 149.858 18.4509 217.674 7.59305 287.79C-1.70057 347.693 -4.36903 423.422 35.6579 444.217C74.9488 464.553 123.809 468.326 157.855 467.866C194.846 467.405 222.818 461.976 223.095 461.976L223.463 463.817C223.187 463.909 195.03 469.246 157.947 469.798C156.291 469.614 154.543 469.706 152.794 469.706Z" fill="#F5F6FA"/>
<path d="M139.82 736H47.896V734.16H137.98V468.785H139.82V736Z" fill="#F5F6FA"/>
</svg>
