<svg width="152" height="202" viewBox="0 0 152 202" fill="none" xmlns="http://www.w3.org/2000/svg">
<path d="M38.9611 52.3816L38.8718 52.2032L41.4296 63.7427C52.9394 64.635 60.8208 58.2406 66.0256 50.8945L38.9611 52.3816Z" fill="#DCE5ED"/>
<path d="M46.099 196.24L41.4296 83.6696L21.8004 70.9106V108.563V201.415H48.0916L46.099 196.24Z" fill="#C6CED5"/>
<path d="M31.4364 75.9666L0.237915 70.9106V108.563V201.415H26.5291L24.5365 196.24L31.4364 75.9666Z" fill="#DCE5ED"/>
<path d="M0.237915 44.4705V73.5276L41.4295 83.6396V51.2812C41.4295 39.8011 33.5778 29.8081 22.4546 27.0719C11.1529 24.2762 0.237915 32.8417 0.237915 44.4705Z" fill="#473C90"/>
<path d="M12.0452 11.19V21.9563L25.3692 25.2279V7.08574L12.0452 3.81421V11.19Z" fill="#DCE5ED"/>
<path d="M26.0236 13.8072H24.7744L22.6331 8.3943C16.209 10.6844 11.153 6.58009 11.1232 6.55034L11.4504 6.16371C11.5099 6.19345 16.4766 10.2085 22.7223 7.85896L22.9602 7.76974L25.1016 13.3313H25.6369L27.6296 6.46112C26.6481 5.5094 18.7072 -1.74745 11.9262 3.10037C9.78487 4.61717 8.8034 6.07448 8.98185 7.35336C9.24952 9.28653 12.1047 10.3275 12.1344 10.3572L11.956 10.8331C11.837 10.7736 8.80341 9.67317 8.47626 7.44258C8.26807 5.95552 9.33875 4.3495 11.6288 2.71373C19.1831 -2.69917 27.9865 6.13397 28.0757 6.22319L28.1649 6.34216L26.0236 13.8072Z" fill="#0C162F"/>
<path d="M19.5698 14.9374C19.7669 14.9374 19.9267 14.7776 19.9267 14.5805C19.9267 14.3834 19.7669 14.2236 19.5698 14.2236C19.3727 14.2236 19.2129 14.3834 19.2129 14.5805C19.2129 14.7776 19.3727 14.9374 19.5698 14.9374Z" fill="#0C162F"/>
<path d="M14.0973 14.9374C14.2944 14.9374 14.4542 14.7776 14.4542 14.5805C14.4542 14.3834 14.2944 14.2236 14.0973 14.2236C13.9001 14.2236 13.7404 14.3834 13.7404 14.5805C13.7404 14.7776 13.9001 14.9374 14.0973 14.9374Z" fill="#0C162F"/>
<path d="M15.9413 16.6922H15.4357V11.4577H12.9672V10.9521H15.9413V16.6922Z" fill="#0C162F"/>
<path d="M20.224 10.9521H17.4878V11.4577H20.224V10.9521Z" fill="#0C162F"/>
<path d="M24.4769 14.0156V15.9191C25.5179 15.9191 26.3506 15.0863 26.3506 14.0454C26.3506 13.9859 26.3506 13.9264 26.3506 13.8669C26.2317 12.7368 24.4769 12.8557 24.4769 14.0156Z" fill="#DCE5ED"/>
<path d="M24.4769 16.157V15.6514C25.3692 15.6514 26.083 14.9376 26.083 14.0454H26.5886C26.5886 15.2351 25.6368 16.157 24.4769 16.157Z" fill="#0C162F"/>
<path d="M16.8929 18.2984V17.7927C17.7852 17.7927 18.5287 17.0492 18.5287 16.157H19.0343C19.0343 17.3466 18.0826 18.2984 16.8929 18.2984Z" fill="#FF6498"/>
<path d="M12.0938 21.7117L11.9731 22.2026L25.2876 25.4754L25.4083 24.9844L12.0938 21.7117Z" fill="#0C162F"/>
<path d="M16.893 17.2275C16.8633 17.2275 16.8633 17.2275 16.8335 17.2275L15.6439 16.9301C15.4952 16.9003 15.4357 16.7516 15.4654 16.6327C15.4952 16.484 15.6439 16.4245 15.7629 16.4542L16.9525 16.7516C17.1012 16.7814 17.1607 16.9301 17.131 17.049C17.131 17.168 17.012 17.2275 16.893 17.2275Z" fill="#0C162F"/>
<path d="M26.2912 201.504L24.2986 196.3V196.24L31.1985 75.9668L31.6744 75.9965L24.8042 196.211L26.7374 201.326L26.2912 201.504Z" fill="#0C162F"/>
<path d="M7.91113 90.6285C7.70294 90.6285 7.52449 90.6284 7.3163 90.5987L7.07837 90.569V83.8177L14.5137 85.6617L14.3947 86.1375L7.58397 84.472V90.0931C14.0081 90.3608 16.9525 82.4496 16.9822 82.3901L17.458 82.5686C17.3986 82.6578 14.4542 90.6285 7.91113 90.6285Z" fill="#0C162F"/>
<path d="M41.6971 69.6318C32.6558 69.6318 25.1908 67.4904 19.3912 63.2374C7.58397 54.5827 7.07837 39.9798 7.07837 39.8311H7.58397C7.58397 39.9798 8.08957 54.3448 19.7184 62.8508C29.8601 70.2861 45.1769 71.1188 65.2224 65.3788C68.2263 64.5163 70.4866 61.9586 70.9625 58.8655L71.5573 54.9694L76.4349 52.4711L75.6021 50.6569L38.7825 52.6793L38.723 52.5306L29.7114 34.1208L30.1575 33.9126L39.1097 52.1737L75.9293 50.1513L77.1189 52.709L72.0332 55.2965L71.4681 58.9547C70.9625 62.256 68.5534 64.9624 65.3711 65.8844C56.5677 68.3529 48.6566 69.6318 41.6971 69.6318Z" fill="#0C162F"/>
<path d="M7.70298 43.0132C7.70298 43.0132 0.921986 78.9703 41.4295 69.3342C14.9301 69.2152 9.01159 50.6269 7.70298 43.0132Z" fill="#0C162F"/>
<path d="M67.5422 49.0506L67.1258 48.7829C71.0517 42.567 73.1931 36.1132 74.0853 32.8416C74.353 31.8602 74.353 30.849 74.0556 29.8675L72.4198 24.2761L76.4943 22.7594V21.3913L73.4607 21.8076C71.6465 22.0456 69.9513 22.8486 68.5832 24.068L44.701 45.6303L34.7377 34.6856L35.0946 34.3584L44.701 44.9463L68.2263 23.7408C69.6836 22.4322 71.4383 21.5994 73.3715 21.3318L76.9702 20.8262V23.1162L73.0146 24.6033L74.5017 29.7485C74.7991 30.8192 74.8288 31.9196 74.5314 32.9903C73.6689 36.2916 71.5276 42.7752 67.5422 49.0506Z" fill="#0C162F"/>
<path d="M0.5056 55.8315H0V93.4839H0.5056V55.8315Z" fill="#0C162F"/>
<path d="M151.06 98.3169H88.723V168.738H151.06V98.3169Z" fill="#97D0F2"/>
<mask id="mask0_219_4949" style="mask-type:luminance" maskUnits="userSpaceOnUse" x="81" y="103" width="66" height="71">
<path d="M146.349 103.562H81.3401V173.983H146.349V103.562Z" fill="white"/>
</mask>
<g mask="url(#mask0_219_4949)">
<path d="M103.054 124.909V138.238L119.591 142.314V119.798L103.054 115.755V124.909Z" fill="#DCE5ED"/>
<path d="M112.408 129.519C112.648 129.519 112.843 129.325 112.843 129.085C112.843 128.845 112.648 128.65 112.408 128.65C112.168 128.65 111.974 128.845 111.974 129.085C111.974 129.325 112.168 129.519 112.408 129.519Z" fill="#0C162F"/>
<path d="M105.627 129.519C105.867 129.519 106.061 129.325 106.061 129.085C106.061 128.845 105.867 128.65 105.627 128.65C105.387 128.65 105.192 128.845 105.192 129.085C105.192 129.325 105.387 129.519 105.627 129.519Z" fill="#0C162F"/>
<path d="M107.932 131.724H107.297V125.243H104.19V124.608H107.932V131.724Z" fill="#0C162F"/>
<path d="M113.243 124.608H109.836V125.243H113.243V124.608Z" fill="#0C162F"/>
<path d="M118.488 128.416V130.788C119.758 130.788 120.793 129.753 120.793 128.483C120.793 128.416 120.793 128.35 120.793 128.283C120.66 126.813 118.488 126.98 118.488 128.416Z" fill="#DCE5ED"/>
<path d="M118.488 131.089V130.454C119.591 130.454 120.493 129.552 120.493 128.45H121.127C121.127 129.886 119.958 131.089 118.488 131.089Z" fill="#0C162F"/>
<path d="M116.571 141.241L116.42 141.857L119.502 142.615L119.653 141.999L116.571 141.241Z" fill="#0C162F"/>
<path d="M109.101 132.392C109.068 132.392 109.068 132.392 109.034 132.392L107.531 132.024C107.364 131.991 107.264 131.824 107.297 131.657C107.33 131.49 107.497 131.389 107.665 131.423L109.168 131.79C109.335 131.824 109.435 131.991 109.402 132.158C109.368 132.325 109.235 132.392 109.101 132.392Z" fill="#0C162F"/>
<path d="M109.235 143.215C107.163 143.215 105.259 142.681 103.99 141.812C99.413 138.538 102.62 128.951 102.754 128.55L103.355 128.75C103.322 128.85 100.181 138.305 104.357 141.311C106.729 143.015 111.773 143.249 115.181 140.843C117.386 139.307 119.657 136.167 117.92 129.919L118.522 129.752C119.925 134.897 118.889 139.039 115.515 141.345C113.711 142.647 111.406 143.215 109.235 143.215Z" fill="#0C162F"/>
<path d="M105.727 133.26C105.66 133.26 105.56 133.26 105.493 133.226C105.092 133.126 104.825 132.959 104.725 132.659C104.524 132.224 104.758 131.79 104.792 131.757L105.326 132.057C105.293 132.124 105.226 132.291 105.293 132.425C105.36 132.525 105.527 132.592 105.66 132.625C105.927 132.692 106.362 132.458 106.763 132.224C107.464 131.857 108.299 131.389 109.101 131.823C109.201 131.69 109.335 131.556 109.535 131.423C110.204 130.988 111.273 130.988 112.709 131.389C114.045 131.757 114.379 131.523 114.48 131.423C114.647 131.222 114.48 130.821 114.413 130.654L114.981 130.354C115.014 130.454 115.448 131.255 114.981 131.823C114.613 132.291 113.811 132.325 112.575 131.99C111.039 131.556 110.304 131.723 109.936 131.957C109.636 132.124 109.602 132.358 109.569 132.358L109.435 132.826L109.068 132.525C108.5 132.057 107.932 132.325 107.097 132.792C106.562 133.026 106.128 133.26 105.727 133.26Z" fill="#0C162F"/>
<path d="M109.802 134.095C109.435 134.095 109.068 134.029 108.7 133.862L108.967 133.294C109.97 133.761 111.172 133.327 111.64 132.292L112.208 132.559C111.773 133.528 110.805 134.095 109.802 134.095Z" fill="#FF6498"/>
<path d="M117.62 126.813L116.985 126.779C116.985 126.646 116.985 125.309 115.582 125.209C113.978 125.109 113.243 123.272 113.01 122.537C108.7 123.706 105.46 123.672 103.389 122.436C101.885 121.534 101.585 120.332 101.551 120.265L102.152 120.131C102.152 120.165 102.42 121.167 103.723 121.902C105.092 122.704 107.832 123.338 113.143 121.835L113.444 121.735L113.511 122.036C113.511 122.069 114.112 124.441 115.615 124.541C117.252 124.708 117.653 126.111 117.62 126.813Z" fill="#0C162F"/>
<path d="M119.925 127.381L119.39 127.08C121.027 124.04 121.228 121.568 120.058 119.664C118.221 116.691 112.842 115.221 104.959 115.521C101.651 115.655 99.7471 116.39 99.2794 117.693C98.344 120.332 103.255 124.608 103.288 124.641L102.887 125.109C102.687 124.909 97.6091 120.532 98.6781 117.492C99.246 115.889 101.351 115.02 104.925 114.887C113.177 114.586 118.588 116.123 120.593 119.33C121.896 121.468 121.662 124.174 119.925 127.381Z" fill="#0C162F"/>
<path d="M90.9613 166.199V202.278L142.04 214.839V174.651C142.04 160.42 132.319 147.992 118.488 144.618C104.491 141.144 90.9613 151.767 90.9613 166.199Z" fill="#DCE5ED"/>
<path d="M133.254 238.491L132.953 237.957C133.02 237.923 138.432 234.85 143.911 228.169C148.955 221.988 155.068 211.365 155.536 195.864C156.004 180.364 147.953 168.137 141.071 160.587C133.621 152.402 125.971 147.826 125.871 147.792L126.172 147.258C126.239 147.291 133.989 151.901 141.505 160.153C148.454 167.769 156.605 180.163 156.137 195.864C155.636 211.566 149.456 222.289 144.345 228.536C138.799 235.351 133.287 238.458 133.254 238.491Z" fill="#0C162F"/>
<path d="M73.523 198.069C73.3559 198.069 73.1555 198.069 72.9885 198.069C64.9375 198.002 57.0535 190.085 49.6039 174.484C44.3256 163.46 41.152 152.335 40.8513 151.233C37.1432 147.993 37.5107 141.712 37.6443 140.276L31.2302 139.106V136.534L31.3973 136.434C31.6645 136.3 38.3792 132.826 43.9915 134.53C49.4034 136.2 72.2535 165.063 74.759 168.27L96.4065 151.133L96.8074 151.634L74.6588 169.172L74.4584 168.939C74.1911 168.604 49.203 136.835 43.7911 135.164C38.8803 133.661 32.9006 136.401 31.8315 136.935V138.605L38.3124 139.775L38.279 140.075C38.279 140.142 37.4104 147.458 41.319 150.832L41.3858 150.899L41.4192 150.999C41.5529 151.467 54.3142 197.334 72.9885 197.468C73.1555 197.468 73.3225 197.468 73.523 197.468C85.9168 197.468 90.7274 194.027 90.7608 193.993L91.1283 194.495C90.9278 194.628 86.1507 198.069 73.523 198.069Z" fill="#0C162F"/>
</g>
<path d="M151.06 12.2947H88.723V82.7158H151.06V12.2947Z" fill="#DCE5ED"/>
<mask id="mask1_219_4949" style="mask-type:luminance" maskUnits="userSpaceOnUse" x="81" y="17" width="66" height="71">
<path d="M146.349 17.573H81.3401V87.9941H146.349V17.573Z" fill="white"/>
</mask>
<g mask="url(#mask1_219_4949)">
<path d="M99.1792 38.4523V43.6971C99.1792 47.7727 101.952 51.3138 105.894 52.2826L114.279 54.3538V33.7753L107.33 32.0716C103.155 31.0694 99.1792 34.1762 99.1792 38.4523Z" fill="#DCE5ED"/>
<path d="M114.212 54.6212L105.827 52.55C101.752 51.5478 98.8785 47.9065 98.8785 43.6973H99.4465C99.4465 47.6392 102.119 51.0467 105.961 52.0155L114.346 54.0867L114.212 54.6212Z" fill="#0C162F"/>
<path d="M107.698 42.6616C107.919 42.6616 108.099 42.4821 108.099 42.2607C108.099 42.0393 107.919 41.8599 107.698 41.8599C107.476 41.8599 107.297 42.0393 107.297 42.2607C107.297 42.4821 107.476 42.6616 107.698 42.6616Z" fill="#0C162F"/>
<path d="M101.484 42.6616C101.706 42.6616 101.885 42.4821 101.885 42.2607C101.885 42.0393 101.706 41.8599 101.484 41.8599C101.263 41.8599 101.083 42.0393 101.083 42.2607C101.083 42.4821 101.263 42.6616 101.484 42.6616Z" fill="#0C162F"/>
<path d="M103.589 44.6657H103.021V38.7527H100.215V38.1848H103.589V44.6657Z" fill="#0C162F"/>
<path d="M108.466 38.1848H105.359V38.7527H108.466V38.1848Z" fill="#0C162F"/>
<path d="M113.277 41.6589V43.8303C114.446 43.8303 115.381 42.895 115.381 41.7257C115.381 41.6589 115.381 41.5921 115.381 41.5253C115.248 40.189 113.277 40.3226 113.277 41.6589Z" fill="#DCE5ED"/>
<path d="M113.277 44.0977V43.5297C114.279 43.5297 115.114 42.6946 115.114 41.6924H115.682C115.682 43.0286 114.613 44.0977 113.277 44.0977Z" fill="#0C162F"/>
<path d="M106.028 46.1022C105.593 46.1022 105.159 45.9351 104.825 45.6011L105.226 45.2002C105.66 45.6345 106.362 45.6345 106.796 45.2002L107.197 45.6011C106.863 45.9351 106.428 46.1022 106.028 46.1022Z" fill="#FF6498"/>
<path d="M104.691 45.3007C104.658 45.3007 104.658 45.3007 104.624 45.3007L103.255 44.9667C103.088 44.9333 103.021 44.7662 103.054 44.6326C103.088 44.4656 103.255 44.3988 103.388 44.4322L104.758 44.7662C104.925 44.7997 104.992 44.9667 104.959 45.1003C104.925 45.2005 104.825 45.3007 104.691 45.3007Z" fill="#0C162F"/>
<path d="M112.909 40.2562C110.905 39.8887 110.137 36.6817 109.903 35.4122C106.495 37.9177 99.0123 37.2496 98.6782 37.2162L98.745 36.6483C98.8118 36.6483 106.93 37.4166 109.936 34.6773L110.337 34.3098L110.404 34.8443C110.404 34.8777 111.005 39.3208 113.01 39.6883L112.909 40.2562Z" fill="#0C162F"/>
<path d="M121.862 51.9149L121.795 51.8815C121.094 51.9149 116.617 52.0486 113.544 51.4472L113.644 50.8793C116.283 51.3804 120.058 51.347 121.361 51.3136C121.061 50.4784 120.593 48.14 119.925 41.5923C118.889 31.6037 111.74 29.4657 111.673 29.4657C106.462 28.2965 102.52 28.998 99.9475 31.6037C94.5691 36.9822 96.7739 49.0086 97.1748 50.8459C98.7783 50.7457 100.95 50.3114 101.217 49.6433L101.751 49.8437C101.25 51.1466 97.6759 51.4138 96.9744 51.4472H96.7405L96.6737 51.2134C96.5401 50.6455 93.5669 37.2494 99.5467 31.2363C102.253 28.4969 106.395 27.762 111.807 28.9646C111.907 28.998 119.424 31.2028 120.493 41.5923C121.294 49.376 121.829 51.013 121.962 51.347L123.165 51.2802L121.862 51.9149Z" fill="#0C162F"/>
<path d="M132.352 76.2015V109.174L85.6495 120.666V83.9184C85.6495 70.8898 94.5357 59.565 107.197 56.4582C119.992 53.2846 132.352 63.0059 132.352 76.2015Z" fill="#AA4693"/>
<path d="M133.254 124.274C125.069 124.274 115.916 120.231 109.268 116.557C101.15 112.08 94.97 107.136 94.4355 106.702C93.8007 106.468 87.7207 103.962 88.7229 99.7197L85.0816 98.6173L84.1462 95.8779L84.4803 95.8111C84.6473 95.7777 101.217 92.7377 129.746 99.3856L118.689 88.4283L119.09 88.0274L131.584 100.421L130.581 100.187C103.789 93.7733 87.3867 95.9448 84.9146 96.3456L85.5159 98.183L89.4245 99.3522L89.3577 99.6195C88.1216 103.695 94.6359 106.167 94.7027 106.201H94.7361L94.7695 106.234C95.0368 106.434 120.192 126.645 137.263 123.338C142.24 122.369 146.082 119.496 148.721 114.753C155.703 102.192 148.554 87.9272 141.305 78.2059C133.454 67.616 123.766 59.899 123.666 59.8322L124.034 59.3979C124.134 59.4648 133.855 67.2151 141.739 77.8718C146.383 84.1522 149.523 90.1654 151.06 95.8111C152.964 102.893 152.362 109.374 149.189 115.053C146.483 119.931 142.474 122.937 137.33 123.939C135.993 124.173 134.624 124.274 133.254 124.274Z" fill="#0C162F"/>
<path d="M81.5739 124.641C73.3225 124.641 65.973 120.298 60.9954 116.323C55.2495 111.713 51.4412 106.702 50.8399 105.9C43.7242 105.666 41.9871 98.3166 41.7533 97.1474L38.3124 95.7109V91.4349L38.6798 91.5685C38.7132 91.5685 41.3858 92.4371 53.7462 95.2432C65.0711 97.8155 77.6654 101.457 79.9036 102.125C81.2399 82.0142 89.2574 69.5201 89.3243 69.4199L89.7919 69.7206C89.7251 69.8542 81.7075 82.3483 80.4381 102.526L80.4047 102.893L80.0706 102.793C79.937 102.76 65.973 98.6507 53.6126 95.8111C43.5572 93.5395 39.9493 92.5373 38.8803 92.2366V95.3434L42.2544 96.7465L42.2878 96.9135C42.3546 97.2476 43.624 105.232 50.9735 105.365H51.1071L51.1739 105.466C51.2073 105.532 55.1493 110.944 61.3295 115.922C67.0086 120.465 75.828 125.51 85.5493 123.772L85.6495 124.34C84.3133 124.541 82.9436 124.641 81.5739 124.641Z" fill="#0C162F"/>
</g>
</svg>
