<svg width="282" height="525" viewBox="0 0 282 525" fill="none" xmlns="http://www.w3.org/2000/svg">
<path d="M184.165 214.252L139.067 186.306L94.3671 320.407L0 369.014L13.9067 461.394L25.8268 436.561C314.888 363.054 184.165 214.252 184.165 214.252Z" fill="#883876"/>
<path d="M110.592 271.733L94.3671 320.407L57.8123 339.28C53.8389 355.703 51.6536 374.312 51.6536 393.914C51.6536 406.032 52.5145 417.754 54.1038 428.813C107.214 412.853 143.703 394.112 168.205 374.444C163.702 316.367 139.663 271.998 110.592 271.733Z" fill="#773167"/>
<path d="M167.808 185.909L90.2612 180.611L76.1558 186.306L69.5336 524.968H141.584L133.968 511.326L167.808 185.909Z" fill="#AA4693"/>
<path d="M98.3403 23.0676V35.3188C98.3403 44.7886 104.83 53.0002 113.969 55.2518L133.438 60.0198V12.2071L117.214 8.2338C107.678 5.84979 98.3403 13.1343 98.3403 23.0676Z" fill="#6C63A6"/>
<path d="M133.306 60.682L113.837 55.914C104.3 53.5962 97.6782 45.1197 97.6782 35.3188H99.0027C99.0027 44.5237 105.228 52.4704 114.168 54.6558L133.637 59.4238L133.306 60.682Z" fill="#F5F6FA"/>
<path d="M118.207 32.8686C118.719 32.8686 119.134 32.4535 119.134 31.9415C119.134 31.4294 118.719 31.0143 118.207 31.0143C117.695 31.0143 117.28 31.4294 117.28 31.9415C117.28 32.4535 117.695 32.8686 118.207 32.8686Z" fill="#F5F6FA"/>
<path d="M103.771 32.8686C104.283 32.8686 104.698 32.4535 104.698 31.9415C104.698 31.4294 104.283 31.0143 103.771 31.0143C103.259 31.0143 102.844 31.4294 102.844 31.9415C102.844 32.4535 103.259 32.8686 103.771 32.8686Z" fill="#F5F6FA"/>
<path d="M108.671 37.5041H107.347V23.7298H100.724V22.4054H108.671V37.5041Z" fill="#F5F6FA"/>
<path d="M119.995 22.4054H112.711V23.7298H119.995V22.4054Z" fill="#F5F6FA"/>
<path d="M131.187 30.4846V35.5175C133.902 35.5175 136.087 33.3321 136.087 30.617C136.087 30.4846 136.087 30.2859 136.087 30.1534C135.756 27.1072 131.187 27.3721 131.187 30.4846Z" fill="#6C63A6"/>
<path d="M131.187 36.1798V34.8553C133.505 34.8553 135.425 32.9349 135.425 30.6171H136.749C136.749 33.6633 134.233 36.1798 131.187 36.1798Z" fill="#F5F6FA"/>
<path d="M114.3 40.8153C113.307 40.8153 112.313 40.418 111.519 39.6895L112.446 38.7624C113.439 39.7557 115.095 39.7557 116.088 38.7624L117.015 39.6895C116.287 40.418 115.293 40.8153 114.3 40.8153Z" fill="#FF6498"/>
<path d="M111.187 38.961C111.121 38.961 111.055 38.961 111.055 38.961L107.876 38.1663C107.545 38.1001 107.28 37.7028 107.413 37.3717C107.479 37.0406 107.876 36.7757 108.207 36.9081L111.386 37.7028C111.717 37.769 111.982 38.1663 111.85 38.4974C111.717 38.7623 111.452 38.961 111.187 38.961Z" fill="#F5F6FA"/>
<path d="M75.4937 110.812V187.498L184.165 214.186V128.759C184.165 98.495 163.503 72.0723 134.101 64.854C104.3 57.5695 75.4937 80.1514 75.4937 110.812Z" fill="#6C63A6"/>
<path d="M167.149 185.867L133.29 511.24L134.607 511.377L168.466 186.005L167.149 185.867Z" fill="#F5F6FA"/>
<path d="M131.584 29.6237C119.267 28.5641 115.095 17.1076 113.969 12.8032C108.671 20.6174 98.2742 24.4583 97.8106 24.5908L97.347 23.3326C97.4795 23.2663 108.936 19.0281 113.638 10.6841L114.565 9.0285L114.83 10.8827C114.83 11.0152 117.545 26.9748 131.65 28.233L131.584 29.6237Z" fill="#F5F6FA"/>
<path d="M133.703 44.921L133.173 43.729C143.173 39.6232 148.736 32.2063 148.471 23.3325C148.206 14.7236 142.113 6.97555 133.372 4.06176C119.333 -0.64004 101.387 0.287075 95.6252 10.088C89.7976 19.9552 98.6714 30.0872 98.8039 30.1534L97.8106 31.0143C97.7443 30.8819 88.2083 20.0876 94.4994 9.35956C100.592 -0.971152 119.2 -2.09694 133.769 2.80353C143.041 5.91599 149.464 14.1276 149.795 23.2663C150.126 32.5374 144.1 40.6828 133.703 44.921Z" fill="#F5F6FA"/>
<path d="M151.583 29.1601L150.325 28.7628C151.583 24.4583 150.325 20.2201 150.325 20.1539L151.583 19.7565C151.583 20.0214 152.908 24.4583 151.583 29.1601Z" fill="#AA4693"/>
<path d="M160.523 31.4118C158.338 31.4118 155.49 30.7495 152.179 28.5642L152.908 27.4384C157.08 30.2197 161.119 30.8158 164.165 29.2264C166.549 28.0344 168.073 25.6504 168.205 23.0015C168.337 20.6175 167.145 18.4984 165.093 17.1739C162.841 15.717 160.656 15.3197 158.603 15.8495C155.093 16.7766 153.173 20.2864 153.106 20.3526L151.914 19.6904C151.981 19.4917 154.166 15.6508 158.205 14.525C160.589 13.8628 163.172 14.3926 165.755 16.0481C168.271 17.6375 169.596 20.1539 169.463 23.0677C169.331 26.1802 167.477 29.0277 164.695 30.4184C163.901 30.9482 162.444 31.4118 160.523 31.4118Z" fill="#F5F6FA"/>
<path d="M95.6253 218.027C90.6587 218.027 85.8906 217.431 81.52 216.172C63.971 211.206 53.4416 196.835 51.0576 174.518C47.1505 138.361 59.9314 111.938 71.3217 96.1771C83.7053 79.0255 97.1485 70.3503 97.2809 70.2179L98.0094 71.3437C97.8769 71.4099 84.5662 80.0188 72.3813 96.9718C61.1234 112.6 48.5411 138.692 52.3821 174.386C54.6998 196.107 64.9643 210.146 81.9173 214.914C86.2217 216.106 90.8573 216.702 95.7578 216.702C125.425 216.702 163.636 195.047 188.933 162.333L189.065 162.201L189.264 162.135C200.654 158.493 213.038 153.592 213.369 151.87C213.369 151.87 213.369 151.87 213.303 151.87C210.588 149.817 191.383 149.354 184.231 149.354H183.105L183.635 148.36C184.628 146.44 185.82 143.328 185.158 142.202C185.026 142.003 184.827 141.804 184.165 141.804C181.119 141.804 177.079 146.374 175.755 148.162L175.622 148.36L175.357 148.427L102.645 164.585L115.293 134.719L116.485 135.248L104.83 162.731L174.827 147.168C175.688 146.043 180.125 140.48 184.165 140.48C185.357 140.48 185.953 141.076 186.284 141.54C187.277 143.195 186.019 146.374 185.224 148.029C190.588 148.029 210.72 148.36 214.031 150.811C214.495 151.142 214.693 151.605 214.561 152.069C214.031 155.38 195.688 161.473 189.728 163.327C164.232 196.239 125.624 218.027 95.6253 218.027Z" fill="#F5F6FA"/>
<path d="M244.957 149.288H184.165V147.963H244.162L280.717 70.4828L281.909 71.0789L244.957 149.288Z" fill="#F5F6FA"/>
<path d="M178.259 27.4304L177.677 28.6202L274.047 75.7485L274.629 74.5588L178.259 27.4304Z" fill="#AA4693"/>
<path d="M200.853 150.678C195.621 115.514 164.828 83.1314 164.563 82.8003L165.49 81.8732C165.821 82.2043 196.879 114.918 202.177 150.413L200.853 150.678Z" fill="#F5F6FA"/>
<path d="M211.448 199.617C198.204 199.617 183.834 192.531 182.973 192.067L183.569 190.875C183.834 191.008 212.177 204.981 225.355 193.988C233.633 187.101 234.361 171.87 227.607 148.758L228.865 148.361C235.818 172.002 234.891 187.697 226.216 194.981C222.176 198.425 216.879 199.617 211.448 199.617Z" fill="#F5F6FA"/>
<path d="M225.554 142.93L220.852 131.606L221.581 131.407C223.236 130.944 224.362 130.149 224.892 128.891C226.018 126.308 224.097 122.732 224.097 122.666L223.435 121.408L224.826 121.739C226.349 122.07 230.719 122.732 232.375 121.54C232.441 121.474 232.441 121.474 232.441 121.474C232.574 120.415 226.746 117.037 221.581 113.991C219.66 112.865 217.541 111.607 215.356 110.282C213.965 109.488 212.707 109.355 211.382 109.951C203.833 113.461 199.595 138.758 199.529 139.023L198.204 138.824C198.403 137.765 202.575 112.6 210.786 108.826C212.508 108.031 214.23 108.163 215.952 109.223C218.137 110.547 220.322 111.806 222.177 112.931C230.123 117.567 233.633 119.686 233.699 121.474C233.699 121.805 233.633 122.335 233.037 122.732C231.183 124.057 227.607 123.726 225.686 123.395C226.216 124.851 226.945 127.368 226.018 129.553C225.422 130.944 224.296 131.937 222.574 132.599L226.68 142.533L225.554 142.93Z" fill="#F5F6FA"/>
</svg>
