<svg width="151" height="137" viewBox="0 0 151 137" fill="none" xmlns="http://www.w3.org/2000/svg">
<path d="M76.0151 136.018C69.609 136.018 64.4158 130.824 64.4158 124.417C64.4158 118.01 69.609 112.816 76.0151 112.816C82.4212 112.816 87.6144 118.01 87.6144 124.417C87.6144 130.824 82.4212 136.018 76.0151 136.018Z" fill="#473C90"/>
<path d="M75.452 -55H76.5781V91.3045H75.452V-55Z" fill="#F5F6FA"/>
<path d="M1.35133 121.489C20.5522 102.567 46.9041 90.9102 76.0151 90.9102C105.126 90.9102 131.478 102.567 150.679 121.489H1.35133Z" fill="#BB6BA9"/>
<path d="M-3.05176e-05 122.052H150.679V120.926H2.75903C22.5793 101.948 48.537 91.4735 76.0151 91.4735V90.3472C47.7487 90.3472 21.1153 101.272 0.957214 121.095L-3.05176e-05 122.052Z" fill="#F5F6FA"/>
</svg>
