<svg width="552" height="448" viewBox="0 0 552 448" fill="none" xmlns="http://www.w3.org/2000/svg">
<path d="M324.173 269.942L400.471 274.914L312.45 432.505L378.513 616.362L293.747 670.769L294.585 643.566C294.585 643.566 237.082 580.717 193.35 439.072C149.619 297.427 324.173 269.942 324.173 269.942Z" fill="#BB6BA9"/>
<path d="M259.692 413.65L311.798 404.269L324.918 409.991L312.357 432.41L325.941 470.307C325.941 470.307 270.207 493.102 238.943 555.107C236.338 549.854 233.732 544.413 231.127 538.785C239.687 492.539 259.692 413.65 259.692 413.65Z" fill="#F5F6FA"/>
<path d="M16.6552 243.77H259.599L242.944 96.8721H-9.85028e-05L16.6552 243.77Z" fill="#BB6BA9"/>
<path d="M25.4015 232.232H270.299L270.206 231.2L253.458 83.458H8.65317L8.7462 84.4899L25.4015 232.232ZM268.159 230.356H27.0763L10.6071 85.3341H251.69L268.159 230.356Z" fill="#F5F6FA"/>
<path d="M131.102 286.919L124.775 231.293H163.668L169.996 286.919H131.102Z" fill="#F5F6FA"/>
<path d="M126.357 612.516C126.357 612.516 143.384 280.073 369.487 281.104L476.862 307.745C476.862 307.745 503.567 455.3 280.255 446.857L199.305 657.918L111.376 626.962L126.357 612.516Z" fill="#BB6BA9"/>
<path d="M127.287 612.609C127.287 611.765 131.94 528.654 164.041 446.763C193.536 371.532 252.9 282.136 368.463 282.136C368.835 282.136 369.208 282.136 369.487 282.136V280.26C317.66 279.978 272.533 297.332 235.5 331.852C205.818 359.431 181.254 397.891 162.273 446.2C130.079 528.373 125.426 611.765 125.426 612.609H127.287Z" fill="#F5F6FA"/>
<path d="M200.143 658.198L280.814 447.794C362.508 450.796 420.104 433.442 452.112 396.202C486.167 356.616 477.793 308.119 477.7 307.557L475.839 307.932C475.932 308.401 484.027 356.054 450.623 394.982C421.314 429.034 370.138 446.294 298.399 446.294C292.445 446.294 286.397 446.2 280.255 445.918H279.604L279.325 446.575L198.375 657.635L200.143 658.198Z" fill="#F5F6FA"/>
<path d="M375.814 36.9306V77.079L425.128 89.3674V21.5466L375.814 9.35205V36.9306Z" fill="#BB6BA9"/>
<path d="M403.728 50.8135C403.008 50.8135 402.425 50.2256 402.425 49.5003C402.425 48.775 403.008 48.187 403.728 48.187C404.447 48.187 405.03 48.775 405.03 49.5003C405.03 50.2256 404.447 50.8135 403.728 50.8135Z" fill="#F5F6FA"/>
<path d="M383.444 50.8135C382.724 50.8135 382.141 50.2256 382.141 49.5003C382.141 48.775 382.724 48.187 383.444 48.187C384.163 48.187 384.746 48.775 384.746 49.5003C384.746 50.2256 384.163 50.8135 383.444 50.8135Z" fill="#F5F6FA"/>
<path d="M388.468 57.4734H390.329V35.9922H379.164V37.8683H388.468V57.4734Z" fill="#F5F6FA"/>
<path d="M395.912 35.9922H406.147V37.8683H395.912V35.9922Z" fill="#F5F6FA"/>
<path d="M421.965 47.4369V54.566C425.78 54.566 428.851 51.4705 428.851 47.6245C428.851 47.4369 428.851 47.1554 428.851 46.9678C428.385 42.6528 421.965 43.1218 421.965 47.4369Z" fill="#BB6BA9"/>
<path d="M421.965 55.5031C426.245 55.5031 429.781 51.9386 429.781 47.6235H427.92C427.92 50.9067 425.222 53.627 421.965 53.627V55.5031Z" fill="#F5F6FA"/>
<path d="M393.865 63.4768C398.238 63.4768 401.774 59.9122 401.774 55.5034H399.913C399.913 58.8804 397.215 61.6007 393.865 61.6007V63.4768Z" fill="#FF6498"/>
<path d="M376.029 76.158L425.369 88.3682L424.925 90.1902L375.585 77.98L376.029 76.158Z" fill="#F5F6FA"/>
<path d="M393.865 59.5373C394.237 59.5373 394.703 59.2559 394.796 58.7869C394.889 58.3178 394.61 57.755 394.144 57.6612L389.678 56.5356C389.213 56.4417 388.655 56.7232 388.562 57.1922C388.468 57.6612 388.748 58.224 389.213 58.3178L393.679 59.4435C393.679 59.4435 393.772 59.5373 393.865 59.5373Z" fill="#F5F6FA"/>
<path d="M324.173 161.222V269.848L476.862 307.745V186.737C476.862 143.868 447.832 106.44 406.519 96.2156C364.555 85.8033 324.173 117.791 324.173 161.222Z" fill="#473C90"/>
<path d="M427.455 44.6224C432.944 34.9605 434.526 27.0809 432.2 21.265C430.339 16.6686 426.524 14.7925 425.129 14.3235C423.919 10.1023 420.941 6.81914 416.382 4.38022C407.45 -0.310007 394.051 -0.0285932 386.328 2.87935C382.979 4.09881 378.698 5.03685 376.931 1.9413C376.372 1.00326 375.442 0.44043 374.325 0.44043C373.209 0.44043 372.092 1.00326 371.534 2.03511C369.115 5.9749 366.044 13.8545 371.906 21.9217C383.072 37.118 408.008 30.6455 413.312 29.1446C416.01 38.8065 420.941 44.4348 421.128 44.6224L422.523 43.4029C422.43 43.3091 417.313 37.4932 414.8 27.7376L414.521 26.7995L413.591 27.0809C413.312 27.1747 384.839 36.3676 373.302 20.8898C368.277 14.1359 370.417 7.47577 373.023 3.06696C373.302 2.69174 373.674 2.41033 374.232 2.41033C374.511 2.41033 374.977 2.50413 375.256 2.97315C376.558 5.31827 379.629 7.47577 386.886 4.75544C394.237 1.9413 406.985 1.75369 415.452 6.16251C419.732 8.41382 422.337 11.5094 423.361 15.3554L423.454 15.9182L424.012 16.1058C424.012 16.1058 428.478 17.4191 430.432 22.2031C432.572 27.4561 430.99 34.7729 425.78 43.8719L427.455 44.6224Z" fill="#F5F6FA"/>
<path d="M6.14096 285.982H338.595V287.858H6.14096V285.982Z" fill="#F5F6FA"/>
<path d="M452.298 310.465C474.35 310.465 493.983 306.431 506.637 296.019C519.478 285.513 523.944 269.566 519.943 248.554C511.755 204.841 490.726 169.946 474.443 148.464C456.857 125.107 441.04 111.88 440.854 111.693L439.644 113.1C440.295 113.663 502.543 166.006 518.082 248.835C521.897 269.097 517.617 284.481 505.428 294.518C473.606 320.596 395.447 305.868 350.04 287.014L349.296 288.702C377.303 300.428 417.685 310.465 452.298 310.465Z" fill="#F5F6FA"/>
<path d="M301.749 281.292C303.331 271.067 308.728 262.531 317.753 256.058C356.646 228.105 451.368 244.52 452.298 244.708L452.577 242.832C451.647 242.644 356.088 226.041 316.636 254.464C307.146 261.311 301.563 270.129 299.888 280.917L301.749 281.292Z" fill="#F5F6FA"/>
<path d="M242.758 281.198C244.526 246.678 288.35 244.708 288.816 244.708H289.56L289.653 243.958C301.191 160.284 345.202 113.663 345.667 113.194L344.364 111.881C343.899 112.35 299.795 159.158 287.978 242.926C281.93 243.395 242.572 247.522 240.897 281.104L242.758 281.198Z" fill="#F5F6FA"/>
<path d="M397.401 477.344C431.735 477.344 478.537 472.841 516.686 452.954C558.092 431.286 555.58 353.24 546.089 291.611C535.016 219.944 512.034 150.622 504.404 133.737C499.752 123.513 494.262 118.354 488.214 118.354H488.121C476.025 118.354 466.162 138.709 465.79 139.553L467.465 140.398C467.558 140.21 477.235 120.23 488.121 120.23H488.214C493.518 120.23 498.449 125.107 502.729 134.582C510.359 151.279 533.248 220.413 544.228 291.892C553.626 352.959 556.324 430.16 515.849 451.36C476.118 472.091 426.71 475.937 392.283 475.467C354.879 474.998 326.593 469.464 326.313 469.464L325.941 471.34C326.22 471.434 354.693 476.875 392.19 477.437C393.865 477.344 395.633 477.344 397.401 477.344Z" fill="#F5F6FA"/>
</svg>
