<svg width="401" height="540" viewBox="0 0 401 540" fill="none" xmlns="http://www.w3.org/2000/svg">
<g clip-path="url(#clip0_225_103)">
<path d="M283.724 174.312L210.852 193.552C210.852 193.552 80.9764 262.08 14.5744 389.551L0 395.329L53.1216 435.644L195.052 322.926C195.052 322.926 279.093 304.57 287.47 269.898C295.915 235.226 283.724 174.312 283.724 174.312Z" fill="#88BBDA"/>
<path d="M229.036 198.039C229.036 198.039 215.279 422.047 254.098 528.103L245.994 540H315.052C315.052 540 322.612 255.077 322.612 193.62L229.036 198.039Z" fill="#97D0F2"/>
<path d="M210.852 114.826V193.552L322.612 220.949V133.249C322.612 102.181 301.363 75.0548 271.125 67.6445C240.409 60.1662 210.852 83.2809 210.852 114.826Z" fill="#AA4693"/>
<path d="M253.486 528.307C233.395 473.443 227.606 386.559 226.312 323.266C224.882 254.805 228.287 198.514 228.355 197.971L229.717 198.039C229.649 198.582 226.312 254.805 227.674 323.266C228.968 386.423 234.689 473.171 254.711 527.831L253.486 528.307Z" fill="#F5F6FA"/>
<path d="M239.32 24.2704V36.8475C239.32 46.5693 245.994 54.9994 255.393 57.3108L275.415 62.2057V13.121L258.73 9.04192C248.923 6.59449 239.32 14.0728 239.32 24.2704Z" fill="#6C63A6"/>
<path d="M275.279 62.8856L255.256 57.9907C245.449 55.6112 238.639 46.9092 238.639 36.8475H240.001C240.001 46.2974 246.403 54.4555 255.597 56.699L275.619 61.5939L275.279 62.8856Z" fill="#F5F6FA"/>
<path d="M259.751 34.3321C260.278 34.3321 260.705 33.906 260.705 33.3803C260.705 32.8547 260.278 32.4286 259.751 32.4286C259.225 32.4286 258.798 32.8547 258.798 33.3803C258.798 33.906 259.225 34.3321 259.751 34.3321Z" fill="#F5F6FA"/>
<path d="M244.904 34.3321C245.431 34.3321 245.858 33.906 245.858 33.3803C245.858 32.8547 245.431 32.4286 244.904 32.4286C244.378 32.4286 243.951 32.8547 243.951 33.3803C243.951 33.906 244.378 34.3321 244.904 34.3321Z" fill="#F5F6FA"/>
<path d="M249.944 24.2704H248.582V39.159H249.944V24.2704Z" fill="#F5F6FA"/>
<path d="M273.1 31.8847V37.0515C275.892 37.0515 278.139 34.808 278.139 32.0207C278.139 31.8847 278.139 31.6807 278.139 31.5448C277.799 28.4175 273.1 28.7574 273.1 31.8847Z" fill="#6C63A6"/>
<path d="M273.1 37.7314V36.3717C275.483 36.3717 277.458 34.4001 277.458 32.0207H278.82C278.82 35.1479 276.232 37.7314 273.1 37.7314Z" fill="#F5F6FA"/>
<path d="M255.733 45.1075C254.711 45.1075 253.69 44.6996 252.873 43.9518L253.826 43C254.848 44.0198 256.55 44.0198 257.572 43L258.525 43.9518C257.776 44.6996 256.755 45.1075 255.733 45.1075Z" fill="#FF6498"/>
<path d="M252.532 40.6547C252.464 40.6547 252.396 40.6547 252.396 40.6547L249.127 39.8389C248.786 39.7709 248.514 39.363 248.65 39.023C248.718 38.6831 249.127 38.4112 249.467 38.5472L252.736 39.363C253.077 39.431 253.349 39.8389 253.213 40.1788C253.077 40.4507 252.804 40.6547 252.532 40.6547Z" fill="#F5F6FA"/>
<path d="M231.079 106.939C230.262 106.939 229.444 106.871 228.559 106.735C225.971 106.26 223.996 104.968 222.634 102.724C218.343 95.926 220.931 82.1251 223.792 71.7235C226.107 63.4294 226.993 54.9314 226.584 46.4333C225.903 33.9242 227.265 16.9281 237.413 7.34231C243.542 1.49565 252.259 -0.883801 263.156 0.271933C268.536 0.815808 273.372 2.44743 277.526 5.09882C283.315 8.83797 286.857 13.8008 287.742 19.5795C289.036 27.7376 285.086 37.4594 276.028 48.4729L275.006 47.5891C283.792 36.9155 287.606 27.5337 286.38 19.7835C285.563 14.3447 282.294 9.78975 276.709 6.25456C272.759 3.73914 268.128 2.1755 262.952 1.63162C252.464 0.543871 244.155 2.78736 238.298 8.36208C228.491 17.6759 227.265 34.1961 227.878 46.4333C228.355 55.0674 227.401 63.7014 225.086 72.1314C222.293 82.2611 219.773 95.722 223.724 102.045C224.881 103.948 226.584 105.036 228.763 105.444C232.032 105.988 234.757 105.376 236.936 103.608C242.316 99.1892 243.27 88.7196 243.338 82.9409C243.338 80.7654 244.495 78.7259 246.334 77.6382C256.005 71.7915 252.736 57.1069 252.736 56.9029L254.03 56.563C254.166 57.1749 257.572 72.4034 247.015 78.7259C245.585 79.6097 244.7 81.1734 244.7 82.873C244.632 88.9236 243.61 99.8011 237.821 104.56C235.914 106.192 233.667 106.939 231.079 106.939Z" fill="#F5F6FA"/>
<path d="M272.963 31.8167C268.605 30.321 266.494 24.8143 265.54 21.687C260.228 33.3803 240.137 29.6412 239.184 29.4372L239.456 28.0776C239.66 28.1455 261.658 32.2246 264.995 19.0356L265.744 15.9763L266.289 19.1036C266.289 19.1716 268.06 28.6214 273.372 30.457L272.963 31.8167Z" fill="#F5F6FA"/>
<path d="M175.506 180.431C171.828 180.431 168.151 179.887 164.609 178.663C155.211 175.332 148.468 167.31 144.586 154.732C136.822 129.442 143.156 95.1102 149.83 70.8397C156.845 45.3456 166.652 22.5028 169.172 21.619C169.785 21.4151 170.398 21.4831 170.943 21.823C173.463 23.5226 174.008 31.8847 174.144 34.3321C176.391 34.74 177.889 35.8278 178.639 37.4594C180.477 41.4705 176.8 47.725 176.051 49.0167L187.492 118.701C202.543 89.1275 238.23 70.3638 238.571 70.1599L239.184 71.3836C238.843 71.5876 201.999 90.9631 187.765 121.216L186.811 123.188L174.552 48.8128L174.689 48.6088C174.757 48.5409 179.047 41.8784 177.345 38.1392C176.732 36.8475 175.438 36.0317 173.326 35.6918L172.782 35.6238V35.0799C172.645 31.0689 171.828 24.2024 170.194 23.1147C169.989 22.9787 169.853 22.9787 169.649 23.0467C168.014 24.0665 158.412 44.7337 150.988 71.9955C144.45 95.926 138.321 129.646 145.948 154.461C149.626 166.562 156.096 174.312 165.086 177.507C184.7 184.442 210.307 167.446 210.512 167.242L211.261 168.397C210.375 168.805 192.941 180.431 175.506 180.431Z" fill="#F5F6FA"/>
<path d="M290.466 166.494C290.466 166.494 294.076 197.155 322.612 210.752V186.413" fill="#993F84"/>
<path d="M374.644 205.313C363.406 205.313 348.083 200.35 328.809 190.492C304.973 178.255 283.588 162.551 283.315 162.347L284.133 161.259C284.95 161.871 368.991 223.329 390.785 197.631C400.251 186.481 402.022 163.366 396.029 130.734C391.193 104.764 382.476 77.9781 376.414 63.0215C374.031 57.1069 371.511 54.0476 369.195 54.2516C363.883 54.7274 359.252 70.8397 357.958 77.0263L357.822 77.5022L357.345 77.5702C355.983 77.6382 355.098 78.1141 354.689 78.9979C352.986 82.533 358.367 91.643 360.614 94.8382L360.75 95.0422L355.37 140.592L354.349 139.096C328.877 101.569 296.255 80.6295 295.915 80.4255L296.664 79.2698C297.004 79.4738 328.946 100.005 354.417 136.853L359.32 95.3821C357.958 93.4106 351.216 83.0769 353.463 78.386C354.076 77.1623 355.166 76.4145 356.732 76.2105C357.618 72.3354 362.181 53.4357 369.127 52.8239C372.192 52.5519 374.984 55.6792 377.708 62.4097C389.286 91.2351 414.485 171.797 391.874 198.446C387.992 203.001 382.271 205.313 374.644 205.313Z" fill="#F5F6FA"/>
</g>
<defs>
<clipPath id="clip0_225_103">
<rect width="401" height="540" fill="white"/>
</clipPath>
</defs>
</svg>
