<svg width="287" height="534" viewBox="0 0 287 534" fill="none" xmlns="http://www.w3.org/2000/svg">
<path d="M157.986 516H128V514.762H156.752V237.884L229.002 165.321V21H287V22.2383H230.236V165.878L157.986 238.379V516Z" fill="#97D0F2"/>
<path d="M109.283 192.964L53.0095 174.998L51.2114 533.252H116.275L109.283 517.556C140.782 404.35 109.283 192.964 109.283 192.964Z" fill="#993F84"/>
<path d="M93.0334 413.233C93.0334 329.346 76.0515 261.289 55.074 261.289C54.2082 261.289 53.3425 261.422 52.5433 261.623L51.2114 533.252H78.3824C87.3062 505.468 93.0334 462.055 93.0334 413.233Z" fill="#883876"/>
<path d="M90.7031 197.305C90.7031 197.305 104.155 417.374 66.1959 521.564L74.1208 533.252H6.59296C6.59296 533.252 0 263.76 0 203.383L90.7031 197.305Z" fill="#AA4693"/>
<path d="M76.3852 27.0614V55.6469L41.0229 64.3962V16.1081L76.3852 7.42561V27.0614Z" fill="#6C63A6"/>
<path d="M64.3316 44.6268L63.8654 43.8922C61.3348 40.0184 53.2767 42.6232 53.2101 42.69L52.8105 41.421C53.1435 41.2874 61.135 38.7494 64.5314 42.5564C65.7967 41.4878 69.1264 39.4173 73.0556 42.2224L72.2564 43.2911C68.1941 40.4191 65.0641 43.8254 64.9309 43.9589L64.3316 44.6268Z" fill="#AA4693"/>
<path d="M56.4069 36.9461C56.9219 36.9461 57.3393 36.5275 57.3393 36.0111C57.3393 35.4947 56.9219 35.0761 56.4069 35.0761C55.892 35.0761 55.4746 35.4947 55.4746 36.0111C55.4746 36.5275 55.892 36.9461 56.4069 36.9461Z" fill="#F5F6FA"/>
<path d="M70.9245 36.9461C71.4394 36.9461 71.8569 36.5275 71.8569 36.0111C71.8569 35.4947 71.4394 35.0761 70.9245 35.0761C70.4096 35.0761 69.9922 35.4947 69.9922 36.0111C69.9922 36.5275 70.4096 36.9461 70.9245 36.9461Z" fill="#F5F6FA"/>
<path d="M67.328 41.6881H65.9961V26.3936H73.9876V27.7293H67.328V41.6881Z" fill="#F5F6FA"/>
<path d="M61.8673 26.3936H54.6084V27.7293H61.8673V26.3936Z" fill="#F5F6FA"/>
<path d="M43.3538 34.5418V39.6177C40.6234 39.6177 38.4258 37.4137 38.4258 34.6753C38.4258 34.5418 38.4258 34.3414 38.4258 34.2078C38.7588 31.1355 43.3538 31.4695 43.3538 34.5418Z" fill="#6C63A6"/>
<path d="M43.3538 40.2856C40.2904 40.2856 37.7598 37.7476 37.7598 34.6753H39.0917C39.0917 37.0129 41.0229 38.9498 43.3538 38.9498V40.2856Z" fill="#F5F6FA"/>
<path d="M62.4005 45.8958C60.4692 45.8958 58.9375 44.3597 58.9375 42.4228H60.2694C60.2694 43.625 61.2017 44.56 62.4005 44.56V45.8958Z" fill="#FF6498"/>
<path d="M51.0425 61.2264L40.8892 63.7315L41.2074 65.0286L51.3607 62.5236L51.0425 61.2264Z" fill="#F5F6FA"/>
<path d="M63.4658 43.0907C63.1994 43.0907 62.8665 42.8903 62.7999 42.5564C62.7333 42.2224 62.9331 41.8217 63.266 41.7549L66.4626 40.9534C66.7956 40.8867 67.1952 41.087 67.2618 41.421C67.3284 41.7549 67.1286 42.1556 66.7956 42.2224L63.599 43.0239C63.599 43.0907 63.5324 43.0907 63.4658 43.0907Z" fill="#F5F6FA"/>
<path d="M109.283 115.556V192.964L0 219.88V133.723C0 103.2 20.7778 76.5517 50.3462 69.2718C80.3142 61.8583 109.283 84.6332 109.283 115.556Z" fill="#6C63A6"/>
<path d="M64.0651 67.3349C59.9362 67.3349 55.5409 65.9324 51.8115 63.2608C39.1584 53.9772 44.4194 36.0111 44.486 35.8775L45.7513 36.2783C45.6847 36.345 40.6901 53.3761 52.6107 62.1254C58.6709 66.6003 66.6623 67.2681 71.99 63.7283C76.9846 60.4557 78.7827 54.3112 77.0512 46.4301C76.1189 42.2892 75.7193 38.0148 75.7193 33.6735V32.4713H77.0512V33.6735C77.0512 37.8812 77.5174 42.0889 78.3831 46.163C80.8472 57.5838 75.9191 62.7933 72.7225 64.8638C70.1919 66.5335 67.1951 67.3349 64.0651 67.3349Z" fill="#AA4693"/>
<path d="M40.2905 32.4045C40.0241 31.937 33.9639 20.6497 37.6267 12.7019C39.1584 9.29569 42.2884 7.02488 46.8835 6.02305C48.0156 4.68728 55.4077 -2.9934 65.3304 1.28106C70.1253 3.35151 73.7215 3.75224 76.3187 4.01939C79.3155 4.35333 81.2467 4.5537 81.3799 7.42561V8.02671C81.5131 12.5015 81.7795 19.2472 76.7182 22.8538L75.9191 21.7851C80.381 18.5793 80.1812 12.2344 79.9814 8.09349V7.4924C79.9148 5.95626 79.3155 5.75589 76.1189 5.35516C73.5883 5.08801 69.7257 4.62049 64.7311 2.48326C54.9415 -1.79121 48.0822 6.62415 47.7492 7.02488L47.616 7.22524L47.4162 7.29203C43.1541 8.22707 40.2905 10.2307 38.892 13.303C35.5622 20.6497 41.4892 31.6698 41.5558 31.8034L40.2905 32.4045Z" fill="#AA4693"/>
<path d="M48.881 32.2042L47.6157 31.8702L50.6791 19.2472H51.2119C57.1389 19.314 73.0552 18.5793 75.8522 13.9709L76.9843 14.6388C73.5214 20.3158 55.2076 20.5162 51.7446 20.5162L48.881 32.2042Z" fill="#AA4693"/>
<path d="M73.588 533.652L65.4634 521.697L65.5966 521.363C85.1756 467.599 90.7697 382.443 92.035 320.397C93.4335 253.141 90.1037 197.907 90.0371 197.372L91.369 197.305C91.4356 197.84 94.6988 253.141 93.3669 320.397C92.1016 382.376 86.5076 467.532 66.9285 521.497L74.6536 532.918L73.588 533.652Z" fill="#F5F6FA"/>
<path d="M74.9199 198.374C71.7899 198.374 68.6599 198.307 65.6631 198.107C46.0841 196.971 32.2988 192.163 25.7724 184.148C16.4491 172.727 12.9861 152.357 15.3835 123.571C17.1816 102.199 21.7767 83.8985 21.7767 83.6981L23.042 84.0321C22.8422 84.7667 5.06122 156.698 26.7714 183.28C33.0979 190.961 46.5502 195.636 65.7297 196.704C107.885 199.109 162.227 184.282 182.072 164.98L182.205 164.846L182.405 164.779C182.538 164.779 192.794 162.108 194.858 157.166L195.191 156.364L195.857 156.898C199.121 159.303 203.316 161.574 204.382 161.039C204.581 160.906 204.581 160.505 204.581 160.171C204.448 158.635 203.449 150.887 197.722 146.613C194.059 143.875 189.131 143.14 183.204 144.409C165.157 148.216 77.384 150.019 76.5182 150.019H75.7857L77.7835 111.015L79.1154 111.081L77.1842 148.683C85.6418 148.483 165.889 146.68 182.938 143.073C189.331 141.737 194.592 142.539 198.521 145.478C204.715 150.086 205.78 158.368 205.913 159.971C206.046 161.24 205.514 161.841 205.048 162.108C202.983 163.243 197.988 159.971 195.724 158.368C192.994 163.11 184.336 165.581 182.938 165.982C164.091 184.215 115.61 198.374 74.9199 198.374Z" fill="#F5F6FA"/>
<path d="M116.542 148.416L115.21 148.349C116.875 120.565 103.755 94.7182 103.622 94.4511L104.821 93.85C104.954 94.1171 118.273 120.298 116.542 148.416Z" fill="#F5F6FA"/>
<path d="M124.267 212.466C116.809 212.466 111.348 210.329 111.281 210.329L111.747 209.06C111.881 209.127 125.266 214.27 138.785 207.992C148.908 203.25 156.566 193.365 161.494 178.671L162.76 179.072C157.698 194.166 149.84 204.318 139.318 209.194C134.057 211.732 128.796 212.466 124.267 212.466Z" fill="#F5F6FA"/>
<path d="M128.262 148.55L127.663 147.348C131.592 145.344 166.022 127.779 172.016 136.194L177.81 144.409L176.744 145.21L170.95 136.995C166.422 130.65 138.585 143.14 128.262 148.55Z" fill="#F5F6FA"/>
</svg>
