<svg width="559" height="552" viewBox="0 0 559 552" fill="none" xmlns="http://www.w3.org/2000/svg">
<path d="M358.745 438.294L266.489 381.125L175.046 655.454L-18 754.89L10.4489 943.872L34.8337 893.07C626.165 742.697 358.745 438.294 358.745 438.294Z" fill="#993F84"/>
<path d="M325.284 380.313L166.647 369.475L137.792 381.125L124.245 1073.92H271.637L256.058 1046.02L325.284 380.313Z" fill="#AA4693"/>
<path d="M183.174 47.1891V72.2513C183.174 91.6236 196.45 108.422 215.145 113.028L254.973 122.782V24.9719L221.783 16.8436C202.275 11.9667 183.174 26.8685 183.174 47.1891Z" fill="#B6DEF6"/>
<path d="M254.703 124.137L214.874 114.383C195.366 109.641 181.819 92.3012 181.819 72.2515H184.529C184.529 91.0819 197.263 107.338 215.552 111.809L255.38 121.563L254.703 124.137Z" fill="black"/>
<path d="M223.816 67.239C224.863 67.239 225.712 66.3899 225.712 65.3424C225.712 64.2949 224.863 63.4458 223.816 63.4458C222.768 63.4458 221.919 64.2949 221.919 65.3424C221.919 66.3899 222.768 67.239 223.816 67.239Z" fill="black"/>
<path d="M194.282 67.239C195.33 67.239 196.179 66.3899 196.179 65.3424C196.179 64.2949 195.33 63.4458 194.282 63.4458C193.235 63.4458 192.386 64.2949 192.386 65.3424C192.386 66.3899 193.235 67.239 194.282 67.239Z" fill="black"/>
<path d="M204.308 76.7219H201.598V48.5439H188.051V45.8345H204.308V76.7219Z" fill="black"/>
<path d="M227.473 45.8345H212.571V48.5439H227.473V45.8345Z" fill="black"/>
<path d="M250.368 62.3621V72.6579C255.922 72.6579 260.393 68.1874 260.393 62.6331C260.393 62.3621 260.393 61.9557 260.393 61.6848C259.715 55.4531 250.368 55.995 250.368 62.3621Z" fill="#B6DEF6"/>
<path d="M250.368 74.0124V71.303C255.109 71.303 259.038 67.3743 259.038 62.6328H261.747C261.747 68.8645 256.599 74.0124 250.368 74.0124Z" fill="black"/>
<path d="M215.823 83.4955C213.791 83.4955 211.758 82.6827 210.133 81.1925L212.029 79.2959C214.061 81.328 217.448 81.328 219.48 79.2959L221.377 81.1925C219.887 82.6827 217.855 83.4955 215.823 83.4955Z" fill="#FF6498"/>
<path d="M209.456 79.7022C209.32 79.7022 209.185 79.7022 209.185 79.7022L202.682 78.0766C202.005 77.9411 201.463 77.1283 201.734 76.4509C201.869 75.7736 202.682 75.2317 203.359 75.5026L209.862 77.1283C210.539 77.2638 211.081 78.0766 210.81 78.7539C210.539 79.2958 209.998 79.7022 209.456 79.7022Z" fill="black"/>
<path d="M136.437 226.688V383.564L358.745 438.158V263.401C358.745 201.491 316.478 147.438 256.329 132.671C195.367 117.77 136.437 163.965 136.437 226.688Z" fill="#473C90"/>
<path d="M323.935 380.228L254.67 1045.84L257.365 1046.12L326.63 380.508L323.935 380.228Z" fill="black"/>
<path d="M251.181 60.601C225.983 58.4334 217.449 34.9969 215.146 26.1913C204.308 42.1769 183.039 50.0342 182.091 50.3052L181.143 47.7312C181.414 47.5957 204.85 38.9256 214.468 21.8563L216.365 18.4695L216.907 22.2627C216.907 22.5336 222.461 55.1821 251.317 57.7561L251.181 60.601Z" fill="black"/>
<path d="M255.515 91.8947L254.432 89.4562C274.888 81.057 286.267 65.8843 285.726 47.7312C285.184 30.1199 272.72 14.2698 254.838 8.30911C226.118 -1.30933 189.406 0.587268 177.62 20.637C165.698 40.8222 183.851 61.5492 184.122 61.6847L182.09 63.4458C181.955 63.1749 162.447 41.0931 175.317 19.1468C187.78 -1.98668 225.847 -4.28969 255.651 5.73517C274.617 12.1023 287.758 28.9007 288.435 47.5957C289.112 66.5616 276.784 83.2246 255.515 91.8947Z" fill="black"/>
<path d="M292.093 59.6527L289.519 58.8398C292.093 50.0342 289.519 41.3641 289.519 41.2286L292.093 40.4158C292.093 40.9577 294.802 50.0342 292.093 59.6527Z" fill="#ACD9F5"/>
<path d="M310.382 64.2585C305.911 64.2585 300.086 62.9038 293.312 58.4332L294.803 56.1302C303.337 61.82 311.601 63.0393 317.833 59.788C322.71 57.3495 325.825 52.4725 326.096 47.0537C326.367 42.1767 323.929 37.8417 319.729 35.1322C315.123 32.1519 310.653 31.339 306.453 32.4228C299.273 34.3194 295.344 41.4994 295.209 41.6348L292.771 40.2801C292.906 39.8737 297.377 32.0164 305.64 29.7134C310.517 28.3587 315.801 29.4425 321.084 32.8292C326.232 36.0805 328.941 41.2284 328.67 47.1892C328.399 53.5563 324.606 59.3815 318.916 62.2264C317.291 63.3102 314.31 64.2585 310.382 64.2585Z" fill="black"/>
<path d="M177.62 446.016C167.46 446.016 157.706 444.797 148.765 442.223C112.865 432.062 91.3253 402.665 86.4483 357.011C78.4555 283.044 104.601 228.991 127.902 196.749C153.236 161.662 180.736 143.915 181.007 143.645L182.497 145.948C182.226 146.083 154.997 163.694 130.07 198.375C107.04 230.346 81.3004 283.722 89.1577 356.74C93.8992 401.175 114.897 429.895 149.578 439.649C158.383 442.087 167.866 443.306 177.891 443.306C238.582 443.306 316.749 399.007 368.499 332.085L368.77 331.814L369.176 331.678C392.477 324.227 417.81 314.203 418.488 310.68C418.488 310.68 418.488 310.68 418.352 310.68C412.798 306.481 373.511 305.532 358.881 305.532H356.577L357.661 303.5C359.693 299.572 362.132 293.205 360.777 290.902C360.506 290.495 360.1 290.089 358.745 290.089C352.513 290.089 344.25 299.436 341.54 303.094L341.269 303.5L340.727 303.636L191.98 336.691L217.855 275.593L220.294 276.677L196.451 332.898L339.644 301.062C341.405 298.759 350.481 287.379 358.745 287.379C361.184 287.379 362.403 288.598 363.08 289.547C365.112 292.934 362.538 299.436 360.913 302.823C371.886 302.823 413.069 303.5 419.842 308.513C420.791 309.19 421.197 310.138 420.926 311.087C419.842 317.86 382.317 330.324 370.125 334.117C317.968 401.446 238.989 446.016 177.62 446.016Z" fill="black"/>
<path d="M346.664 56.1142L345.474 58.5481L542.617 154.958L543.807 152.524L346.664 56.1142Z" fill="#473C90"/>
<path d="M392.884 308.242C382.181 236.307 319.187 170.061 318.646 169.384L320.542 167.488C321.219 168.165 384.755 235.088 395.593 307.7L392.884 308.242Z" fill="black"/>
<path d="M414.559 408.355C387.464 408.355 358.067 393.859 356.306 392.911L357.525 390.473C358.067 390.744 416.049 419.328 443.008 396.84C459.941 382.751 461.432 351.592 447.614 304.313L450.188 303.5C464.412 351.863 462.515 383.97 444.769 398.872C436.505 405.916 425.667 408.355 414.559 408.355Z" fill="black"/>
<path d="M443.414 292.392L433.795 269.226L435.286 268.82C438.672 267.871 440.975 266.246 442.059 263.672C444.362 258.389 440.434 251.073 440.434 250.938L439.079 248.364L441.924 249.041C445.04 249.718 453.981 251.073 457.367 248.635C457.503 248.499 457.503 248.499 457.503 248.499C457.774 246.332 445.852 239.423 435.286 233.191C431.357 230.888 427.022 228.314 422.551 225.605C419.706 223.979 417.133 223.708 414.423 224.927C398.979 232.107 390.309 283.857 390.174 284.399L387.464 283.993C387.871 281.825 396.405 230.346 413.204 222.624C416.726 220.999 420.248 221.269 423.771 223.437C428.241 226.146 432.712 228.72 436.505 231.023C452.761 240.506 459.941 244.841 460.077 248.499C460.077 249.176 459.941 250.26 458.722 251.073C454.929 253.782 447.613 253.105 443.685 252.428C444.769 255.408 446.259 260.556 444.362 265.027C443.143 267.871 440.84 269.904 437.318 271.258L445.717 291.579L443.414 292.392Z" fill="black"/>
<path d="M483.107 305.397H358.745V302.688H481.482L556.262 144.187L558.7 145.406L483.107 305.397Z" fill="#AA4693"/>
</svg>
