<svg width="169" height="212" viewBox="0 0 169 212" fill="none" xmlns="http://www.w3.org/2000/svg">
<g clip-path="url(#clip0_219_5012)">
<path d="M147.966 18.2477L149.924 22.3482L143.999 21.8388L145.753 17.3818L145.347 15.166L147.991 15.3698L147.966 18.2477Z" fill="#DCE5ED"/>
<path d="M80.8347 70.9679C79.7159 73.3365 74.1725 71.5282 75.0879 68.7266L87.3444 37.1965C88.209 34.5732 93.9558 36.5852 93.0912 39.4377L80.8347 70.9679Z" fill="#473C90"/>
<path d="M107.738 81.7409C107.738 81.7409 86.3018 143.477 106.136 161.432C125.97 179.388 162.206 172.129 162.206 172.129L168.308 175.185L164.876 148.443L133.014 142.331L129.022 80.2637" fill="#C6CED5"/>
<path d="M123.046 147.221C129.366 147.221 134.489 138.019 134.489 126.668C134.489 115.317 129.366 106.115 123.046 106.115C116.726 106.115 111.603 115.317 111.603 126.668C111.603 138.019 116.726 147.221 123.046 147.221Z" fill="#B0B7BE"/>
<path d="M114.273 81.1044L149.466 79.0669V117.27V211.504H121.8L124.724 206.257L114.273 81.1044Z" fill="#DCE5ED"/>
<path d="M107.738 52.2483V81.741L149.466 92.0049V59.1503C149.466 47.5112 141.532 37.3492 130.242 34.5731C118.774 31.7715 107.738 40.4309 107.738 52.2483Z" fill="#473C90"/>
<path d="M114.536 81.0957L114.029 81.1382L124.486 206.285L124.993 206.242L114.536 81.0957Z" fill="#0C162F"/>
<path d="M138.888 111.488L134.514 101.326L146.44 86.4017L131.641 58.1825L132.098 57.9532L147.05 86.4527L135.099 101.403L139.193 110.928C140.286 110.75 145.855 109.756 151.119 106.089C156.459 102.345 162.562 94.9847 161.163 81.1297C159.764 67.2238 154.221 56.8072 149.822 50.5419C145.041 43.7417 140.541 40.1761 140.49 40.1507L140.795 39.7432C140.846 39.7686 145.397 43.3597 150.203 50.2362C154.653 56.5525 160.248 67.0455 161.646 81.0788C163.07 95.1884 156.84 102.702 151.373 106.522C145.448 110.648 139.117 111.463 139.04 111.488H138.888Z" fill="#0C162F"/>
<path d="M133.013 96.5796L132.546 96.7812L138.806 111.328L139.273 111.127L133.013 96.5796Z" fill="#0C162F"/>
<path d="M101.483 72.1139L101.025 70.8404C100.949 70.6622 94.0575 51.9427 88.9464 49.4723C87.853 48.9374 85.3355 47.7149 84.827 47.7913C84.8524 48.1224 85.6407 49.243 86.0475 49.7779C87.8275 52.2993 87.9801 53.2161 87.9547 53.4963C88.1581 54.7697 88.7175 56.5271 89.3532 56.4507L89.4041 56.96C88.031 57.1128 87.5224 54.133 87.4207 53.5472V53.4963V53.4454C87.4207 53.4454 87.4461 52.7322 85.5898 50.0835C84.3947 48.4026 84.0896 47.8168 84.3947 47.4602C84.7253 47.0782 85.4627 47.2565 89.1498 49.0393C93.7269 51.2551 99.3975 65.2373 101.025 69.4906C101.483 58.4627 104.61 50.873 107.204 46.3905C110.128 41.3478 112.951 39.1065 113.078 39.0046L113.383 39.4121C113.358 39.4376 110.51 41.7043 107.611 46.6707C104.966 51.2551 101.737 59.1758 101.483 70.764V72.1139Z" fill="#0C162F"/>
<path d="M101.762 92.5399C98.7617 92.5399 96.1426 91.572 93.9304 89.6619C85.183 82.0977 85.5136 62.4105 85.5644 60.4239C84.5727 59.6853 77.6307 54.4133 78.4445 51.0769C78.6225 50.3383 79.0547 49.8035 79.6904 49.4469C81.8264 48.3008 85.717 49.6507 85.895 49.7016L85.717 50.1855C85.6661 50.16 81.8519 48.8611 79.9193 49.9053C79.3853 50.1855 79.0547 50.6185 78.9276 51.2042C78.1393 54.3878 85.8695 60.0419 85.9458 60.0928L86.0475 60.1692V60.2966C86.0475 60.5003 85.3864 81.6138 94.2355 89.2799C97.0072 91.6739 100.465 92.5144 104.534 91.7758L104.636 92.2852C103.644 92.438 102.703 92.5399 101.762 92.5399Z" fill="#0C162F"/>
<path d="M118.392 18.5025V23.2142C118.392 26.8562 120.884 30.0144 124.394 30.8803L131.87 32.714V14.3257L125.64 12.7975C121.978 11.8807 118.392 14.6822 118.392 18.5025Z" fill="#DCE5ED"/>
<path d="M131.819 32.9686L124.343 31.1349C120.681 30.2435 118.138 26.9835 118.138 23.2141H118.647C118.647 26.7543 121.037 29.8105 124.47 30.651L131.946 32.4847L131.819 32.9686Z" fill="#0C162F"/>
<path d="M126.021 22.272C126.218 22.272 126.377 22.1123 126.377 21.9154C126.377 21.7185 126.218 21.5588 126.021 21.5588C125.824 21.5588 125.665 21.7185 125.665 21.9154C125.665 22.1123 125.824 22.272 126.021 22.272Z" fill="#0C162F"/>
<path d="M120.478 22.272C120.674 22.272 120.834 22.1123 120.834 21.9154C120.834 21.7185 120.674 21.5588 120.478 21.5588C120.281 21.5588 120.122 21.7185 120.122 21.9154C120.122 22.1123 120.281 22.272 120.478 22.272Z" fill="#0C162F"/>
<path d="M122.359 24.0801H121.851V18.7572H119.333V18.2478H122.359V24.0801Z" fill="#0C162F"/>
<path d="M126.682 18.2478H123.91V18.7572H126.682V18.2478Z" fill="#0C162F"/>
<path d="M131.005 21.3551V23.2907C132.048 23.2907 132.887 22.4502 132.887 21.406C132.887 21.3551 132.887 21.2787 132.887 21.2277C132.785 20.0562 131.005 20.1835 131.005 21.3551Z" fill="#DCE5ED"/>
<path d="M131.005 23.5454V23.036C131.895 23.036 132.632 22.2974 132.632 21.406H133.141C133.141 22.5776 132.175 23.5454 131.005 23.5454Z" fill="#0C162F"/>
<path d="M124.521 25.3535C124.139 25.3535 123.758 25.2007 123.453 24.9205L123.809 24.564C124.19 24.946 124.826 24.946 125.207 24.564L125.563 24.9205C125.284 25.2007 124.902 25.3535 124.521 25.3535Z" fill="#FF6498"/>
<path d="M123.326 24.6406C123.3 24.6406 123.275 24.6406 123.275 24.6406L122.054 24.3349C121.927 24.3095 121.825 24.1567 121.876 24.0293C121.902 23.902 122.054 23.8001 122.181 23.851L123.402 24.1567C123.529 24.1821 123.631 24.3349 123.58 24.4623C123.554 24.5642 123.427 24.6406 123.326 24.6406Z" fill="#0C162F"/>
<path d="M138.049 20.1324L137.744 19.7249L146.643 12.3135L125.97 1.08187L106.289 11.2184L117.502 16.1338L117.299 16.5923L105.119 11.2693L125.97 0.496094L126.097 0.5725L147.559 12.2117L138.049 20.1324Z" fill="#473C90"/>
<path d="M130.98 20.9475C127.216 20.7947 125.385 17.2545 124.8 15.8537C122.639 19.9287 118.443 19.8523 118.392 19.8523L118.418 19.3429C118.596 19.3429 122.69 19.3939 124.622 15.1152L124.902 14.5039L125.106 15.1406C125.131 15.1916 126.733 20.2853 131.03 20.4381L130.98 20.9475Z" fill="#0C162F"/>
<path d="M131.895 29.3265V28.8171C134.387 28.7917 136.167 27.7984 136.599 27.5182C136.828 22.9084 134.285 18.6806 134.26 18.6297L134.692 18.375C134.794 18.5533 137.413 22.8575 137.108 27.6711V27.7984L137.006 27.8748C136.904 27.9257 134.896 29.2756 131.895 29.3265Z" fill="#0C162F"/>
<path d="M146.999 12.6191H146.491V21.1511H146.999V12.6191Z" fill="#473C90"/>
<path d="M144.635 20.9475L144.177 20.7437L145.728 17.2036V15.7773H146.237V17.3055L144.635 20.9475Z" fill="#473C90"/>
<path d="M148.856 20.9475L147.254 17.3055V15.7773H147.762V17.2036L149.313 20.7437L148.856 20.9475Z" fill="#473C90"/>
</g>
<g clip-path="url(#clip1_219_5012)">
<path d="M68.2158 206.453C69.3349 167.829 51.9763 95.3341 51.9763 95.3341L28.2761 79.0674V115.463V154.83L50.6085 211.504H71.4985L68.2158 206.453Z" fill="#883876"/>
<path d="M51.9763 155.004C51.9763 126.184 43.3716 102.812 32.7525 102.812C31.2106 102.812 29.7185 103.307 28.301 104.223V115.463V154.83L44.5902 196.153C49.0666 186.621 51.9763 171.741 51.9763 155.004Z" fill="#0C162F"/>
<path d="M44.9383 86.9902C44.9383 86.9902 49.9619 168.571 35.7865 207.196L38.7459 211.528H13.5287C13.5287 211.528 10.7683 107.763 10.7683 85.3809L44.9383 86.9902Z" fill="#AA4693"/>
<path d="M38.174 23.8546V34.4763L24.9685 37.6949V19.7941L38.174 16.5754V23.8546Z" fill="#DCE5ED"/>
<path d="M30.7133 27.5189C30.9056 27.5189 31.0614 27.3637 31.0614 27.1723C31.0614 26.9809 30.9056 26.8257 30.7133 26.8257C30.521 26.8257 30.3651 26.9809 30.3651 27.1723C30.3651 27.3637 30.521 27.5189 30.7133 27.5189Z" fill="#0C162F"/>
<path d="M36.1347 27.5189C36.327 27.5189 36.4829 27.3637 36.4829 27.1723C36.4829 26.9809 36.327 26.8257 36.1347 26.8257C35.9424 26.8257 35.7866 26.9809 35.7866 27.1723C35.7866 27.3637 35.9424 27.5189 36.1347 27.5189Z" fill="#0C162F"/>
<path d="M34.7918 29.2768H34.2944V23.6069H37.2787V24.1021H34.7918V29.2768Z" fill="#0C162F"/>
<path d="M32.7774 23.6069H30.0418V24.1021H32.7774V23.6069Z" fill="#0C162F"/>
<path d="M25.8389 26.6276V28.5093C24.8193 28.5093 23.9986 27.6922 23.9986 26.6771C23.9986 26.6276 23.9986 26.5533 23.9986 26.5038C24.123 25.3649 25.8389 25.4887 25.8389 26.6276Z" fill="#DCE5ED"/>
<path d="M25.8389 28.7568C24.695 28.7568 23.7499 27.8159 23.7499 26.677H24.2473C24.2473 27.5436 24.9685 28.2616 25.8389 28.2616V28.7568Z" fill="#0C162F"/>
<path d="M33.3494 30.8614C32.1806 30.8614 31.2355 29.9205 31.2355 28.7568H31.7329C31.7329 29.6482 32.4541 30.3662 33.3494 30.3662V30.8614Z" fill="#FF6498"/>
<path d="M28.2209 36.6556L24.912 37.4639L25.0305 37.9448L28.3394 37.1365L28.2209 36.6556Z" fill="#0C162F"/>
<path d="M33.3494 29.8214C33.2499 29.8214 33.1256 29.7472 33.1007 29.6234C33.0758 29.4996 33.1504 29.351 33.2748 29.3263L34.4685 29.0292C34.5929 29.0044 34.7421 29.0787 34.7669 29.2025C34.7918 29.3263 34.7172 29.4748 34.5929 29.4996L33.3991 29.7967C33.3991 29.8215 33.3743 29.8214 33.3494 29.8214Z" fill="#0C162F"/>
<path d="M32.3297 37.7693C32.2054 37.7693 32.081 37.7693 31.9567 37.7693C30.2159 37.7198 28.8481 37.1255 27.8533 35.9619C25.5405 33.2879 26.1125 28.6827 26.1373 28.5094L26.6347 28.5837C26.6347 28.6332 26.0876 33.1641 28.2512 35.6648C29.1465 36.7046 30.4148 37.2493 32.0064 37.2989C34.4933 37.3484 36.1844 36.8037 37.2041 35.5905C38.4724 34.1049 38.7211 31.6538 37.9501 27.8656L38.4475 27.7666C39.2185 31.7033 38.9449 34.303 37.5771 35.9123C36.458 37.1255 34.7669 37.7693 32.3297 37.7693Z" fill="#0C162F"/>
<path d="M27.7041 28.8312C27.1073 27.3456 27.2565 24.7212 27.2813 24.5974V24.4241L27.4306 24.3745C28.4502 24.0527 28.8232 22.1215 28.873 21.4034L28.8978 21.1806H29.1217C31.8075 21.1311 38.8952 20.5121 39.1936 18.3333C39.2682 17.7639 38.746 17.1449 37.7263 16.5754C34.7421 14.8918 28.0772 14.0252 25.4908 16.1298C22.1335 18.878 24.496 25.7363 24.5209 25.7858L24.0484 25.9591C23.9489 25.662 21.5615 18.7047 25.1675 15.7584C27.9777 13.4558 34.8664 14.4214 37.9502 16.1545C39.1936 16.8478 39.7656 17.6401 39.6661 18.4324C39.2682 21.2549 31.0366 21.651 29.3206 21.7006C29.246 22.3691 28.8978 24.2755 27.729 24.8202C27.7041 25.4144 27.6544 27.4942 28.1269 28.6826L27.7041 28.8312Z" fill="#0C162F"/>
<path d="M11.1662 56.6852V85.3563L51.9763 95.3342V63.3949C51.9763 52.08 44.2171 42.2012 33.1753 39.5024C21.9842 36.7789 11.1662 45.197 11.1662 56.6852Z" fill="#DCE5ED"/>
<path d="M36.0104 207.27L35.5378 207.097C42.8493 187.166 44.9383 155.598 45.4109 132.597C45.9331 107.664 44.6897 87.2134 44.6648 86.9906L45.1622 86.9658C45.187 87.1639 46.4056 107.664 45.9082 132.597C45.4606 155.623 43.3467 187.29 36.0104 207.27Z" fill="#0C162F"/>
<path d="M53.4684 56.7101C49.0666 48.7129 42.3022 44.1572 42.2276 44.1077L42.5012 43.6868C42.5758 43.7363 49.4396 48.3662 53.8912 56.4625L53.4684 56.7101Z" fill="#0C162F"/>
<path d="M38.7459 82.2365C36.7564 83.8459 32.6282 79.9587 34.6177 77.8789L58.666 55.3234C60.5312 53.3922 64.7838 57.5517 62.7943 59.681L38.7459 82.2365Z" fill="#AA4693"/>
<path d="M11.6138 22.8644L10.3953 27.123L16.0157 25.6622L13.6034 21.676L13.6282 19.4724L11.0916 20.1161L11.6138 22.8644Z" fill="#DCE5ED"/>
<path d="M21.462 23.0376L21.7107 22.6167L11.8874 16.9469L29.9672 2.78469L50.6085 9.29633L40.6112 15.8327L40.8847 16.2536L51.7525 9.12302L29.8677 2.23999L29.7682 2.31427L11.017 17.0212L21.462 23.0376Z" fill="#AA4693"/>
<path d="M12.101 17.2345L11.6108 17.3181L13.0171 25.493L13.5073 25.4094L12.101 17.2345Z" fill="#AA4693"/>
<path d="M15.2447 24.8945L15.6675 24.6221L13.5785 21.4777L13.3547 20.116L12.8573 20.215L13.106 21.6758L15.2447 24.8945Z" fill="#AA4693"/>
<path d="M11.1911 25.5878L12.1361 21.8492L11.8625 20.3884L11.39 20.4627L11.6138 21.8245L10.6937 25.464L11.1911 25.5878Z" fill="#AA4693"/>
<path d="M15.0209 94.1704C6.88874 94.1704 1.91493 91.1745 0.596873 85.4304C-1.64134 75.5763 2.90969 64.6576 7.11256 57.2298C11.6636 49.2079 16.8364 43.4143 16.8861 43.3647L17.2591 43.6866C17.2094 43.7361 12.0864 49.505 7.5602 57.4774C3.3822 64.8309 -1.11909 75.6258 1.09425 85.3066C2.78535 92.7344 10.5445 93.9228 16.7369 93.6257C23.1531 93.3038 31.2107 91.1746 38.2735 87.9311C44.8886 84.8857 49.3651 81.3947 49.6635 79.0674C49.9122 77.0123 49.6137 75.7001 48.7433 75.1554C46.9528 74.0413 43.297 76.4181 43.2721 76.4429L42.8245 76.74L42.8742 76.2201C43.0234 74.9078 42.9488 73.5956 42.7001 73.4966C42.6753 73.4966 42.5509 73.5213 42.3022 73.7937C40.835 75.4278 39.691 76.7648 39.691 76.7648L39.6164 76.8638L21.5366 74.8088L26.0876 64.7566L26.5353 64.9547L22.2578 74.3879L39.3926 76.3439C39.691 75.9972 40.6858 74.8336 41.9292 73.4718C42.0536 73.3232 42.4763 72.8528 42.8991 73.0509C43.496 73.3232 43.4711 74.8088 43.3965 75.7744C44.4659 75.1554 47.3009 73.7194 48.9671 74.7593C50.0116 75.403 50.4096 76.8886 50.1111 79.1416C49.7878 81.6918 45.3114 85.2324 38.4475 88.4015C31.335 91.6945 23.2028 93.8238 16.712 94.1456C16.14 94.1456 15.568 94.1704 15.0209 94.1704Z" fill="#0C162F"/>
<path d="M52.0758 86.4207C52.0509 86.4207 52.026 86.4207 52.0012 86.4207V85.9255C52.026 85.9255 52.0509 85.9255 52.0758 85.9255C56.7263 85.9255 62.4959 80.3052 64.5849 69.5102C65.3807 65.425 64.8585 62.231 63.043 60.0275C60.5064 56.9326 56.2289 56.8583 56.204 56.8583C56.1045 56.8583 53.8415 56.8583 52.9711 59.2352C52.7472 59.8294 52.7721 60.1513 52.8467 60.2256C53.0457 60.4236 53.9409 60.077 54.4135 59.8789C54.7865 59.7304 55.1098 59.6066 55.3336 59.5818L55.6072 59.5571V59.8294C55.6072 59.8294 55.6072 60.9436 56.4527 61.6368C57.1739 62.231 58.2682 62.3548 59.7603 62.0577L59.8598 62.5529C58.2433 62.8748 56.975 62.7015 56.1543 62.0082C55.4082 61.414 55.2093 60.5722 55.1347 60.1265C54.9854 60.176 54.7865 60.2503 54.6124 60.3246C53.8415 60.6465 52.9462 60.9931 52.5234 60.5722C52.2498 60.2998 52.2498 59.8294 52.5234 59.0619C53.4933 56.3879 56.1046 56.3384 56.2289 56.3384C56.403 56.3384 60.7799 56.4127 63.4658 59.7056C65.3807 62.033 65.9278 65.3507 65.1071 69.5845C62.9435 80.6518 56.9501 86.4207 52.0758 86.4207Z" fill="#0C162F"/>
</g>
<defs>
<clipPath id="clip0_219_5012">
<rect width="93.2968" height="211.008" fill="white" transform="translate(74.9862 0.496094)"/>
</clipPath>
<clipPath id="clip1_219_5012">
<rect width="71.4985" height="209.264" fill="white" transform="translate(0 2.23999)"/>
</clipPath>
</defs>
</svg>
