<svg width="251" height="476" viewBox="0 0 251 476" fill="none" xmlns="http://www.w3.org/2000/svg">
<path d="M98.3203 169.569C98.3203 169.569 -79.7714 395.68 238.057 387.577L250.662 398.381V322.51L141.778 298.441L154.563 158.884" fill="#403682"/>
<path d="M145.559 256.844C112.666 258.585 86.375 302.402 86.375 356.244C86.375 357.444 86.375 358.585 86.435 359.785C110.685 375.392 148.62 385.896 205.763 387.517C207.744 377.673 208.824 367.168 208.824 356.244C208.824 340.277 206.483 325.151 202.402 311.766L141.777 298.381L145.559 256.844Z" fill="#393073"/>
<path d="M114.346 173.53C114.346 173.53 102.221 371.31 136.435 464.948L129.292 475.452H190.156C190.156 475.452 196.819 223.89 196.819 169.629L114.346 173.53Z" fill="#473C90"/>
<path d="M160.566 20.5286V46.219L128.753 54.0221V10.6847L160.566 2.82148V20.5286Z" fill="#BB6BA9"/>
<path d="M142.617 29.412C143.081 29.412 143.457 29.0358 143.457 28.5717C143.457 28.1076 143.081 27.7314 142.617 27.7314C142.153 27.7314 141.776 28.1076 141.776 28.5717C141.776 29.0358 142.153 29.412 142.617 29.412Z" fill="#F5F6FA"/>
<path d="M155.641 29.412C156.105 29.412 156.481 29.0358 156.481 28.5717C156.481 28.1076 156.105 27.7314 155.641 27.7314C155.177 27.7314 154.801 28.1076 154.801 28.5717C154.801 29.0358 155.177 29.412 155.641 29.412Z" fill="#F5F6FA"/>
<path d="M152.46 33.6138H151.26V19.9282H158.403V21.1287H152.46V33.6138Z" fill="#F5F6FA"/>
<path d="M147.539 19.9282H140.996V21.1287H147.539V19.9282Z" fill="#F5F6FA"/>
<path d="M130.852 27.2512V31.8131C128.391 31.8131 126.41 29.8323 126.41 27.3713C126.41 27.2512 126.41 27.0712 126.41 26.9511C126.65 24.19 130.852 24.4301 130.852 27.2512Z" fill="#BB6BA9"/>
<path d="M130.853 32.4131C128.091 32.4131 125.811 30.1322 125.811 27.3711H127.011C127.011 29.4719 128.752 31.2126 130.853 31.2126V32.4131Z" fill="#F5F6FA"/>
<path d="M148.98 37.4553C146.159 37.4553 143.878 35.1744 143.878 32.3533H145.078C145.078 34.5141 146.819 36.2548 148.98 36.2548V37.4553Z" fill="#FF6498"/>
<path d="M160.434 45.6197L128.608 53.4493L128.895 54.615L160.721 46.7855L160.434 45.6197Z" fill="#F5F6FA"/>
<path d="M148.979 34.9343C148.739 34.9343 148.439 34.7542 148.379 34.4541C148.319 34.1539 148.499 33.7938 148.799 33.7338L151.68 33.0135C151.98 32.9535 152.34 33.1335 152.4 33.4337C152.46 33.7338 152.28 34.0939 151.98 34.1539L149.099 34.8742C149.039 34.9343 148.979 34.9343 148.979 34.9343Z" fill="#F5F6FA"/>
<path d="M98.3203 100.061V169.569L196.82 193.758V116.327C196.82 88.8961 178.092 64.9464 151.442 58.4038C124.371 51.8011 98.3203 72.2694 98.3203 100.061Z" fill="#BB6BA9"/>
<path d="M135.894 465.128C118.187 416.688 113.085 339.977 111.945 284.095C110.684 223.65 113.685 173.95 113.745 173.47L114.946 173.53C114.886 174.01 111.945 223.65 113.145 284.095C114.286 339.857 119.328 416.448 136.975 464.708L135.894 465.128Z" fill="#F5F6FA"/>
<path d="M127.132 25.3304C126.952 24.7302 122.81 10.6845 129.773 4.68208C136.616 -1.26031 165.607 0.120243 166.808 0.180267H167.348L167.408 0.720485C167.408 1.02061 168.068 7.86336 162.726 12.8454C157.864 17.4072 149.761 18.9078 138.656 17.2271C138.356 18.8478 137.156 22.9895 132.714 23.8898L132.474 22.6893C137.036 21.789 137.516 16.6869 137.516 16.5068L137.576 15.8466L138.236 15.9666C149.281 17.7674 157.204 16.3868 161.886 12.005C165.967 8.16349 166.268 3.0014 166.208 1.38075C162.126 1.20068 136.556 0.420364 130.553 5.58245C124.191 11.1047 128.212 24.8502 128.272 24.9703L127.132 25.3304Z" fill="#F5F6FA"/>
<path d="M179.293 203.962C160.685 203.962 136.916 190.637 119.449 178.872C98.7403 164.887 80.9731 148.8 79.6526 145.739C78.5121 143.218 79.0523 140.697 81.1532 138.776C84.5145 135.715 91.8375 134.574 100.661 138.416C99.7607 137.396 99.1004 136.255 99.2805 135.415C99.3405 135.115 99.5806 134.574 100.421 134.394C103.422 133.674 109.305 135.655 112.606 142.137L181.874 154.863L181.634 156.063L111.766 143.218L111.645 142.918C108.524 136.555 102.942 134.935 100.661 135.535C100.601 135.535 100.421 135.595 100.361 135.715C100.181 136.375 102.222 138.656 104.082 140.217L103.422 141.177C94.0584 135.835 85.4749 136.375 81.8735 139.616C80.1928 141.177 79.7726 143.158 80.673 145.199C81.7534 147.66 98.6802 163.386 120.049 177.792C138.956 190.577 165.487 205.223 184.275 202.282C196.82 200.301 204.083 190.577 205.943 173.35C210.265 133.254 200.181 106.483 190.937 91.0569C180.973 74.3702 169.809 67.1072 169.689 67.0472L170.349 66.0268C170.469 66.0868 181.814 73.5298 191.958 90.3966C201.262 105.943 211.526 133.014 207.144 173.47C205.223 191.297 197.6 201.381 184.455 203.482C182.834 203.842 181.093 203.962 179.293 203.962Z" fill="#F5F6FA"/>
<path d="M80.2522 136.555L79.0518 136.375C86.2547 92.5577 110.865 68.9081 111.105 68.668L111.945 69.5684C111.705 69.7485 87.3951 93.1579 80.2522 136.555Z" fill="#F5F6FA"/>
<path d="M83.3144 191.838C62.7861 186.916 45.5592 138.656 44.8389 136.615L45.9793 136.195C46.1594 136.675 63.7465 185.835 83.6145 190.637L83.3144 191.838Z" fill="#F5F6FA"/>
<path d="M72.5077 136.795C72.4477 136.675 63.8642 124.79 58.2819 122.089C53.7801 119.929 40.8149 123.95 38.2939 126.951C37.8137 127.492 37.9938 127.732 38.0538 127.792C39.9746 130.373 43.3959 129.052 43.576 128.992L44.7765 128.512L44.3563 129.712C44.3563 129.712 43.576 132.233 44.8365 132.774L44.3563 133.854C42.9758 133.254 42.7957 131.633 42.9758 130.373C41.2351 130.733 38.7141 130.613 37.0934 128.452C36.7933 128.032 36.4331 127.251 37.3935 126.111C40.2147 122.75 53.7201 118.488 58.8222 120.949C64.6445 123.77 73.1679 135.535 73.4681 136.075L72.5077 136.795Z" fill="#F5F6FA"/>
<path d="M100.3 137.035H30.5523L0 66.3868L1.08044 65.9066L31.3326 135.835H100.3V137.035Z" fill="#97D0F2"/>
</svg>
