<svg width="483" height="559" viewBox="0 0 483 559" fill="none" xmlns="http://www.w3.org/2000/svg">
<path d="M396.619 342.778C396.619 342.778 520.195 684.741 427.903 730.288C335.61 775.835 31.1638 587.654 31.1638 587.654L0 594.845L64.7248 472.587L270.885 528.922L278.436 357.521" fill="#993F84"/>
<path d="M275.08 433.273L270.885 528.802L173.678 502.313C154.86 540.189 143.354 590.171 143.354 645.187C143.354 646.985 143.354 648.783 143.354 650.58C213.592 686.898 302.768 727.052 367.613 735.682C374.685 708.233 378.76 677.549 378.76 645.187C378.76 535.874 333.453 445.858 275.08 433.273Z" fill="#883876"/>
<path d="M367.373 339.901L227.016 330.193L201.486 340.621L189.5 953.588H319.789L306.005 928.897L367.373 339.901Z" fill="#AA4693"/>
<path d="M245.354 45.0441V67.2183C245.354 84.3584 257.101 99.2211 273.642 103.296L308.881 111.926V25.3869L279.515 18.1953C262.255 14.0002 245.354 27.1848 245.354 45.0441Z" fill="#6C63A6"/>
<path d="M308.761 113.245L273.522 104.615C256.262 100.419 244.276 85.0773 244.276 67.3379H246.673C246.673 83.9985 257.94 98.3818 274.121 102.337L309.36 110.967L308.761 113.245Z" fill="#F5F6FA"/>
<path d="M281.313 62.7836C282.24 62.7836 282.991 62.0323 282.991 61.1055C282.991 60.1788 282.24 59.4275 281.313 59.4275C280.386 59.4275 279.635 60.1788 279.635 61.1055C279.635 62.0323 280.386 62.7836 281.313 62.7836Z" fill="#F5F6FA"/>
<path d="M255.183 62.7836C256.11 62.7836 256.861 62.0323 256.861 61.1055C256.861 60.1788 256.11 59.4275 255.183 59.4275C254.257 59.4275 253.505 60.1788 253.505 61.1055C253.505 62.0323 254.257 62.7836 255.183 62.7836Z" fill="#F5F6FA"/>
<path d="M264.053 71.2936H261.656V46.2427H249.79V43.8455H264.053V71.2936Z" fill="#F5F6FA"/>
<path d="M284.549 43.8455H271.365V46.2427H284.549V43.8455Z" fill="#F5F6FA"/>
<path d="M304.806 58.4683V67.5777C309.72 67.5777 313.675 63.6223 313.675 58.708C313.675 58.4683 313.675 58.1087 313.675 57.869C313.196 52.3554 304.806 52.9547 304.806 58.4683Z" fill="#6C63A6"/>
<path d="M304.806 68.7763V66.3791C309.001 66.3791 312.477 62.9031 312.477 58.708H314.874C314.874 64.3415 310.319 68.7763 304.806 68.7763Z" fill="#F5F6FA"/>
<path d="M274.241 77.2865C272.443 77.2865 270.645 76.5673 269.207 75.2489L270.885 73.5708C272.682 75.3687 275.679 75.3687 277.477 73.5708L279.155 75.2489C277.836 76.5673 276.039 77.2865 274.241 77.2865Z" fill="#AA4693"/>
<path d="M268.608 73.9303C268.488 73.9303 268.368 73.9303 268.368 73.9303L262.614 72.492C262.015 72.3721 261.536 71.653 261.775 71.0537C262.015 70.4544 262.614 69.9749 263.214 70.2147L268.967 71.653C269.566 71.7728 270.046 72.492 269.806 73.0913C269.686 73.5708 269.207 73.9303 268.608 73.9303Z" fill="#F5F6FA"/>
<path d="M396.619 203.979V342.778L199.927 391.082V236.462C199.927 181.685 237.324 133.861 290.542 120.796C344.599 107.611 396.619 148.484 396.619 203.979Z" fill="#6C63A6"/>
<path d="M318.829 954.068L304.806 929.137V928.777L366.174 339.781L368.572 340.021L307.323 928.537L320.867 952.989L318.829 954.068Z" fill="#F5F6FA"/>
<path d="M255.184 102.577C252.906 102.457 198.13 100.659 189.141 77.2865C185.065 66.7388 191.178 53.5541 207.359 38.0921C242.119 4.89064 264.293 -0.862675 276.759 0.0962111C286.467 0.935236 291.142 5.72966 292.101 6.80841C295.457 8.60632 332.014 27.6642 332.014 59.4273C332.014 92.6287 309.96 102.337 309.72 102.457L308.762 100.3C309.001 100.18 329.617 90.9506 329.617 59.4273C329.617 27.784 291.142 9.08576 290.782 8.9659L290.543 8.84604L290.423 8.60632C290.423 8.60632 286.228 3.33245 276.519 2.61329C264.533 1.6544 243.198 7.40771 209.157 40.0098C193.815 54.6328 187.822 66.9785 191.538 76.5673C199.928 98.382 254.824 100.3 255.424 100.3L255.184 102.577Z" fill="#F5F6FA"/>
<path d="M245.834 61.9442L245.115 59.6669C245.475 59.547 275.8 49.1191 278.556 32.0989L279.635 25.3867L280.954 31.9791C281.073 32.8181 285.388 53.4341 305.046 54.9923L304.806 57.3895C288.984 56.1909 282.272 43.246 279.755 36.5338C273.282 52.4752 247.033 61.5847 245.834 61.9442Z" fill="#F5F6FA"/>
<path d="M346.877 334.508C302.529 334.508 261.776 327.556 254.105 316.169C246.793 305.142 243.557 299.988 242.478 297.471C235.646 297.351 211.315 296.272 208.438 289.68C207.958 288.481 207.719 286.683 209.756 284.406C218.986 273.978 357.185 249.766 376.483 246.41L366.294 233.945L368.212 232.386L380.917 248.088L378.88 248.448C334.891 255.999 219.105 277.454 211.554 285.964C210.116 287.642 210.475 288.481 210.595 288.721C212.513 292.916 230.133 294.834 242.119 295.074C242.239 294.954 242.358 294.834 242.478 294.714C243.557 293.875 244.636 295.074 244.995 295.433L246.913 297.471H245.355C246.554 299.748 249.55 304.423 256.262 314.731C266.091 329.593 347.956 338.223 411.362 326.597C439.529 321.443 474.169 310.536 479.443 287.522C492.268 231.427 359.342 134.58 358.024 133.621L359.462 131.703C359.822 131.943 393.743 156.515 425.506 187.798C468.416 229.989 487.474 263.79 481.84 288.002C476.327 312.333 440.728 323.6 411.841 328.874C391.705 332.83 368.811 334.508 346.877 334.508Z" fill="#F5F6FA"/>
<path d="M199.807 392.281C157.137 386.407 124.775 367.949 103.919 337.504C80.3062 303.224 75.6317 259.595 75.7515 229.15C75.8714 200.264 80.4261 177.25 81.5049 171.857C73.594 170.299 67.9606 166.583 64.6045 160.83C58.7313 150.522 62.5669 137.097 63.7655 133.381C34.3996 114.923 35.3585 112.646 35.8379 111.687C36.4372 110.248 38.355 110.728 39.194 110.967C41.1118 111.447 42.1905 111.207 43.7487 110.967C47.824 110.368 54.5362 109.289 84.2617 117.2C128.011 128.827 163.13 236.701 171.281 263.55C177.513 212.13 202.684 178.329 223.06 158.792C245.954 136.857 268.008 127.628 268.248 127.628L269.207 129.905C268.967 130.025 247.272 139.015 224.619 160.71C203.763 180.726 177.993 215.846 173.078 269.903L172.479 276.375L170.681 270.143C170.202 268.584 131.247 132.183 83.5425 119.478C54.2965 111.687 47.824 112.646 44.1083 113.245C42.5501 113.485 41.2317 113.724 39.194 113.245C42.9097 116.721 54.7759 124.751 66.0428 131.823L66.8818 132.303L66.5223 133.262C66.5223 133.381 60.6491 148.843 66.8818 159.631C69.8784 165.025 75.392 168.381 83.3028 169.699L84.5014 169.939L84.2617 171.138C84.0219 172.096 61.4881 271.461 105.956 336.186C126.453 366.031 158.216 384.13 200.287 389.883L199.807 392.281Z" fill="#F5F6FA"/>
</svg>
