<svg width="577" height="624" viewBox="0 0 577 624" fill="none" xmlns="http://www.w3.org/2000/svg">
<path d="M167.24 239.926C167.24 239.926 429.246 487.132 32.0058 504.779L18.762 521.324L0 435.368L137.956 393.824L116.84 220.368" fill="#993F84"/>
<path d="M159.146 464.559C159.146 433.971 150.685 406.544 137.294 388.088L137.956 393.75L40.32 423.162C36.7883 435.735 34.8018 449.779 34.8018 464.485C34.8018 478.677 36.6412 492.132 39.8785 504.412C88.8806 501.765 127.508 495.588 157.601 486.691C158.631 479.632 159.146 472.206 159.146 464.559Z" fill="#883876"/>
<path d="M147.595 215.147C147.595 215.147 162.457 457.426 120.519 572.132L129.274 585H54.6675C54.6675 585 46.5005 276.838 46.5005 210.368L147.595 215.147Z" fill="#BB6BA9"/>
<path d="M123.903 27.6471V59.1912L84.834 68.75V15.5882L123.903 6.02941V27.6471Z" fill="#BB6BA9"/>
<path d="M101.83 38.5294C102.399 38.5294 102.86 38.0685 102.86 37.5C102.86 36.9315 102.399 36.4706 101.83 36.4706C101.261 36.4706 100.8 36.9315 100.8 37.5C100.8 38.0685 101.261 38.5294 101.83 38.5294Z" fill="#F5F6FA"/>
<path d="M117.87 38.5294C118.439 38.5294 118.9 38.0685 118.9 37.5C118.9 36.9315 118.439 36.4706 117.87 36.4706C117.301 36.4706 116.84 36.9315 116.84 37.5C116.84 38.0685 117.301 38.5294 117.87 38.5294Z" fill="#F5F6FA"/>
<path d="M113.896 43.75H112.425V26.9118H121.254V28.3824H113.896V43.75Z" fill="#F5F6FA"/>
<path d="M107.937 26.9118H99.917V28.3824H107.937V26.9118Z" fill="#F5F6FA"/>
<path d="M87.409 35.8824V41.4706C84.3924 41.4706 81.9644 39.0441 81.9644 36.0294C81.9644 35.8824 81.9644 35.6618 81.9644 35.5147C82.3322 32.1324 87.409 32.5 87.409 35.8824Z" fill="#BB6BA9"/>
<path d="M87.409 42.2059C84.0244 42.2059 81.2285 39.4118 81.2285 36.0294H82.7C82.7 38.6029 84.8338 40.7353 87.409 40.7353V42.2059Z" fill="#F5F6FA"/>
<path d="M109.629 48.4559C106.171 48.4559 103.375 45.6618 103.375 42.2059H104.847C104.847 44.8529 106.98 46.9853 109.629 46.9853V48.4559Z" fill="#FF6498"/>
<path d="M92.8504 66.0023L84.7051 68.0049L85.0566 69.433L93.202 67.4304L92.8504 66.0023Z" fill="#F5F6FA"/>
<path d="M109.629 45.3676C109.335 45.3676 108.967 45.1471 108.893 44.7794C108.82 44.4118 109.041 43.9706 109.409 43.8971L112.94 43.0147C113.308 42.9412 113.75 43.1618 113.823 43.5294C113.897 43.8971 113.676 44.3382 113.308 44.4118L109.776 45.2941C109.776 45.3676 109.703 45.3676 109.629 45.3676Z" fill="#F5F6FA"/>
<path d="M46.5005 125.147V210.294L167.24 239.926V145.074C167.24 111.471 144.284 82.1324 111.616 74.1177C78.5063 66.0294 46.5005 91.0294 46.5005 125.147Z" fill="#473C90"/>
<path d="M121.181 572.353L119.783 571.838C141.414 512.647 147.595 418.897 148.993 350.588C150.538 276.544 146.859 215.735 146.785 215.147L148.257 215.074C148.33 215.662 151.936 276.544 150.464 350.588C149.14 419.044 142.886 513.015 121.181 572.353Z" fill="#F5F6FA"/>
<path d="M95.5023 49.1912C94.4722 49.1912 93.5157 48.9706 92.6328 48.3088C86.8938 44.5588 91.3084 28.1618 91.5291 27.5L92.9271 27.8676C91.6763 32.3529 89.3954 44.4853 93.4421 47.0588C95.4287 48.3088 97.7096 47.3529 100.653 46.1765C104.847 44.4118 110.144 42.2794 116.84 45.7353C119.562 47.1324 121.548 47.2794 122.726 46.3235C125.889 43.75 124.124 33.9706 123.167 30.3676L124.565 30C124.933 31.3971 128.097 43.8971 123.682 47.5C121.99 48.8971 119.415 48.75 116.177 47.0588C110.07 43.9706 105.362 45.8824 101.241 47.5735C99.1811 48.3824 97.2681 49.1912 95.5023 49.1912Z" fill="#F5F6FA"/>
<path d="M106.686 71.1765C103.375 71.1765 100.064 70.5882 96.8268 69.4853C80.1984 63.5294 86.7468 43.0147 86.7468 42.7941L88.1447 43.2353C87.924 44.0441 82.0379 62.6471 97.2682 68.0882C106.318 71.3235 116.398 69.6323 122.431 63.9706C127.729 58.9706 129.274 51.3235 126.625 42.4265L128.023 41.9853C130.819 51.3971 129.127 59.5588 123.388 65C119.194 69.0441 113.087 71.1765 106.686 71.1765Z" fill="#F5F6FA"/>
<path d="M94.7669 29.1176C91.6031 29.1176 89.6165 28.3824 89.543 28.3824L90.058 26.9853C90.4995 27.1324 101.757 31.0294 112.572 18.4559L113.161 17.7206L113.676 18.4559C113.75 18.5294 118.164 24.6324 125.154 24.1912L125.228 25.6618C118.9 26.0294 114.559 21.7647 113.014 20C106.392 27.5735 99.4022 29.1176 94.7669 29.1176Z" fill="#F5F6FA"/>
<path d="M84.2453 48.9706C79.1685 44.4118 73.7974 33.1618 77.7705 22.2794C81.1551 12.9412 90.3521 -2.2794 113.308 0.294126C118.9 0.882361 123.02 3.2353 125.595 7.20589C131.629 16.3971 127.361 30.9559 127.214 31.6177L125.816 31.1765C125.89 31.0294 130.084 16.6177 124.418 8.01471C122.064 4.41177 118.238 2.35295 113.161 1.76471C92.2651 -0.588227 83.1416 11.9118 79.0949 22.7941C75.3425 33.0882 80.3457 43.6765 85.2018 47.8677L84.2453 48.9706Z" fill="#F5F6FA"/>
<path d="M51.5035 247.206C49.5905 247.206 47.8247 247.132 46.0589 247.059C21.9257 245.515 8.53478 233.529 7.35755 212.574C5.2974 175.662 21.3371 142.574 35.0959 121.324C50.032 98.3088 65.6302 83.8235 65.7774 83.6765L66.8075 84.7794C66.6603 84.9265 51.1357 99.3382 36.3467 122.206C22.6615 143.162 6.76894 175.956 8.82908 212.426C9.93273 232.868 22.5143 243.971 46.206 245.515C47.9719 245.662 49.8113 245.662 51.7243 245.662C94.4723 245.662 155.247 216.029 158.043 201.029C159.073 195.441 158.337 191.618 155.835 189.779C149.876 185.368 135.896 192.426 135.749 192.5L134.351 193.235L134.719 191.691C135.602 188.015 136.117 184.485 135.822 183.382C133.174 185.294 126.699 192.5 126.625 192.574L126.405 192.794H126.11L63.4965 193.529L76.446 157.721L77.844 158.235L65.6302 192.059L125.816 191.324C126.993 190 132.585 183.971 135.013 182.132C135.822 181.544 136.411 181.765 136.632 181.985C137.883 182.794 137.294 186.765 136.485 190.515C140.384 188.75 151.2 184.485 156.718 188.603C159.735 190.809 160.618 195.074 159.44 201.324C157.969 209.265 141.267 221.397 117.943 231.397C94.693 241.471 70.4127 247.206 51.5035 247.206Z" fill="#F5F6FA"/>
<path d="M155.173 248.456C149.581 248.456 143.474 248.015 137 247.206L137.22 245.735C167.608 249.632 188.356 244.265 198.804 229.853C219.038 201.985 194.095 148.824 193.874 148.309L193.359 147.279H194.537C194.831 147.279 201.821 147.132 205.647 138.897C206.088 137.941 206.53 136.618 206.015 135.956C205.5 135.221 203.881 135.074 201.6 135.368C198.51 135.809 195.64 133.676 195.125 130.515C194.757 128.603 193.286 127.206 190.711 126.324C187.326 125.221 184.457 125.588 182.176 127.426C179.895 129.265 176.584 129.191 174.524 127.132C171.875 124.559 167.093 120.588 164.37 123.088C160.618 126.544 165.768 136.176 168.049 139.559L168.711 140.515L167.608 140.735C141.709 145.515 129.568 159.265 123.903 169.926C117.796 181.544 117.796 192.206 117.796 192.279H116.325C116.325 191.838 116.325 181.176 122.579 169.265C128.318 158.382 140.531 144.485 166.283 139.412C164.37 136.25 158.778 126.25 163.414 121.985C165.327 120.221 168.932 119.559 175.627 126.029C177.173 127.574 179.601 127.647 181.366 126.25C183.206 124.706 186.443 123.309 191.299 124.926C194.463 125.956 196.303 127.794 196.744 130.294C197.185 132.721 199.319 134.265 201.6 133.971C204.617 133.529 206.53 133.897 207.413 135.147C208.148 136.176 208.148 137.647 207.265 139.559C203.954 146.765 198.289 148.382 195.935 148.75C197.48 152.132 202.557 164.044 205.794 178.382C209.326 194.044 211.239 215.882 200.349 230.809C191.446 242.5 176.363 248.456 155.173 248.456Z" fill="#F5F6FA"/>
<path d="M188.945 269.265L188.135 268.015C206.309 256.618 203.733 220.735 203.733 220.368L205.205 220.221C205.352 221.765 207.854 257.353 188.945 269.265Z" fill="#F5F6FA"/>
<path d="M408.837 305.361C408.837 305.361 327.927 445.054 334.974 591.742L323.98 599.688L380.363 624L448.023 454.698L459.864 400.029L459.723 273.986" fill="#403682"/>
<path d="M424.061 276.295L506.592 270.862H521.604V624H444.923L453.028 610.01L424.061 276.295Z" fill="#473C90"/>
<path d="M424.866 276.233L453.713 609.931L452.309 610.044L423.462 276.346L424.866 276.233Z" fill="#F5F6FA"/>
<path d="M497.218 109.302V121.866C497.218 131.577 490.311 139.998 480.585 142.307L459.864 147.196V98.1646L477.131 94.09C487.351 91.6452 497.218 99.1154 497.218 109.302Z" fill="#BB6BA9"/>
<path d="M460.005 147.876L480.726 142.986C490.875 140.609 497.923 131.916 497.923 121.866H496.513C496.513 131.305 489.888 139.455 480.374 141.696L459.653 146.585L460.005 147.876Z" fill="#F5F6FA"/>
<path d="M476.145 119.353C475.6 119.353 475.158 118.927 475.158 118.402C475.158 117.877 475.6 117.451 476.145 117.451C476.69 117.451 477.131 117.877 477.131 118.402C477.131 118.927 476.69 119.353 476.145 119.353Z" fill="#F5F6FA"/>
<path d="M491.509 119.353C490.964 119.353 490.523 118.927 490.523 118.402C490.523 117.877 490.964 117.451 491.509 117.451C492.054 117.451 492.496 117.877 492.496 118.402C492.496 118.927 492.054 119.353 491.509 119.353Z" fill="#F5F6FA"/>
<path d="M486.294 124.175H487.703V109.981H494.681V108.623H486.294V124.175Z" fill="#F5F6FA"/>
<path d="M474.312 108.623H481.995V109.981H474.312V108.623Z" fill="#F5F6FA"/>
<path d="M462.331 116.908V122.069C459.441 122.069 457.116 119.828 457.116 117.044C457.116 116.908 457.116 116.704 457.116 116.569C457.397 113.445 462.331 113.784 462.331 116.908Z" fill="#BB6BA9"/>
<path d="M462.331 122.748V121.39C459.864 121.39 457.82 119.421 457.82 117.044H456.411C456.411 120.168 459.089 122.748 462.331 122.748Z" fill="#F5F6FA"/>
<path d="M480.303 127.502C481.36 127.502 482.417 127.095 483.263 126.348L482.276 125.397C481.219 126.416 479.457 126.416 478.4 125.397L477.413 126.348C478.189 127.163 479.246 127.502 480.303 127.502Z" fill="#FF6498"/>
<path d="M483.616 125.601C483.686 125.601 483.756 125.601 483.756 125.601L487.139 124.786C487.492 124.718 487.774 124.31 487.633 123.971C487.562 123.631 487.139 123.36 486.787 123.495L483.404 124.31C483.052 124.378 482.77 124.786 482.911 125.125C482.981 125.397 483.263 125.601 483.616 125.601Z" fill="#F5F6FA"/>
<path d="M460.71 139.93V138.572C434.703 138.096 421.524 118.606 419.48 115.278C421.665 113.513 432.025 105.295 451.618 91.2377C473.185 75.6861 484.321 88.1817 484.744 88.725L484.885 88.9287L485.167 88.9966C492.074 90.0832 496.655 92.7996 498.769 97.0101C502.857 105.092 496.655 116.365 496.584 116.433L497.853 117.112C498.135 116.636 504.478 105.159 500.038 96.4668C497.712 91.9168 492.849 88.9966 485.66 87.7742C484.039 86.0765 471.916 75.007 450.773 90.219C428.642 106.178 418.211 114.599 418.141 114.667L417.718 115.007L418 115.482C418.07 115.686 431.532 139.387 460.71 139.93Z" fill="#F5F6FA"/>
<path d="M462.965 115.686L468.322 105.974C474.453 106.857 481.642 102.715 483.827 101.356C489.395 110.864 496.443 110.049 496.795 109.981L496.584 108.623C496.302 108.691 489.818 109.37 484.673 100.066L484.321 99.387L483.686 99.8624C483.616 99.9303 474.806 105.839 468.11 104.616L467.617 104.548L461.767 115.21L462.965 115.686Z" fill="#F5F6FA"/>
<path d="M524.494 199.284V277.925L408.837 305.293V217.688C408.837 186.653 430.827 159.556 462.119 152.154C493.835 144.684 524.494 167.841 524.494 199.284Z" fill="#97D0F2"/>
<path d="M524.494 265.973L513.076 283.29C496.09 283.29 482.347 268.553 482.347 250.353C482.347 243.766 484.179 237.654 487.281 232.493L524.494 265.973Z" fill="#88BBDA"/>
<path d="M496.866 350.183L497.5 349.911C497.711 349.843 519.208 340.879 539.435 325.327C566.358 304.682 578.833 281.728 575.521 259.114C571.362 230.659 552.544 205.328 537.462 189.098C521.181 171.576 505.605 160.575 505.464 160.439L504.618 161.526C504.759 161.661 520.194 172.527 536.475 189.98C551.417 206.143 570.094 231.202 574.182 259.318C578.269 287.297 557.126 310.047 538.66 324.241C520.547 338.162 501.447 346.787 497.641 348.417L487.351 323.561L525.41 265.905L482.84 227.603L481.854 228.622L523.577 266.177L485.73 323.493L496.866 350.183Z" fill="#F5F6FA"/>
<path d="M399.534 323.494L399.675 322.135C383.887 320.777 371.201 312.696 361.968 298.231C344.067 270.319 344.56 226.517 345.688 222.578C345.758 222.51 345.829 222.374 345.899 222.238C346.111 221.559 345.829 221.355 341.741 218.163C337.442 214.904 329.477 208.792 328.914 206.075C328.914 205.939 328.914 205.872 328.984 205.804C330.958 203.902 346.181 205.736 355.343 207.366L356.048 207.501L356.189 206.822C356.189 206.822 356.753 204.581 362.673 203.766C363.519 203.631 366.831 204.989 375.148 227.196C379.659 239.284 383.465 251.576 383.465 251.712L384.099 253.681L384.804 251.712C405.666 195.957 424.413 176.33 424.625 176.127L423.567 175.176C423.356 175.38 404.82 194.666 384.169 249.267C382.901 245.26 379.87 235.888 376.417 226.652C367.043 201.661 363.66 202.136 362.391 202.34C357.246 203.019 355.555 204.853 354.991 205.872C349.846 204.989 330.887 201.933 327.927 204.853C327.504 205.26 327.363 205.804 327.434 206.347C328.068 209.267 334.059 214.157 340.754 219.25C342.234 220.337 343.714 221.491 344.278 222.034C344.067 222.646 343.996 223.732 343.855 225.77C343.362 235.956 344.419 258.774 351.467 279.419C355.625 291.575 361.264 301.422 368.241 308.621C376.84 317.449 387.27 322.407 399.534 323.494Z" fill="#F5F6FA"/>
<g clip-path="url(#clip0_230_1035)">
<path d="M338.512 183C310.955 183 287.576 162.342 284.15 134.931C283.857 132.645 283.711 130.317 283.711 127.99C283.711 125.662 283.857 123.334 284.15 121.048C287.576 93.6578 310.955 73 338.512 73C350.295 73 361.535 76.7121 371 83.7169L370.018 85.0591C360.846 78.2641 349.94 74.6778 338.512 74.6778C311.79 74.6778 289.143 94.7064 285.821 121.278C285.549 123.48 285.403 125.745 285.403 128.01C285.403 130.255 285.549 132.52 285.821 134.743C289.143 161.294 311.79 181.322 338.512 181.322C349.167 181.322 359.446 178.176 368.242 172.199L369.182 173.583C360.115 179.749 349.501 183 338.512 183Z" fill="#F5F6FA"/>
<path d="M333.811 116.518H268V118.195H333.811V116.518Z" fill="#F5F6FA"/>
<path d="M333.811 137.805H268V139.482H333.811V137.805Z" fill="#F5F6FA"/>
</g>
<defs>
<clipPath id="clip0_230_1035">
<rect width="103" height="110" fill="white" transform="translate(268 73)"/>
</clipPath>
</defs>
</svg>
