<svg width="481" height="560" viewBox="0 0 481 560" fill="none" xmlns="http://www.w3.org/2000/svg">
<path d="M140.154 409.638C140.154 409.638 -132.977 916.591 452.303 951.275L480.483 975.119V808.351L283.8 747.655L278.02 344.462" fill="#88BBDA"/>
<path d="M176.572 406.169L345.798 394.608L376.579 407.037L391.03 1146.08H233.8L250.419 1116.31L176.572 406.169Z" fill="#97D0F2"/>
<path d="M195.647 50.8107V77.5457C195.647 98.2112 209.81 116.131 229.753 121.044L272.24 131.449V27.1105L236.834 18.4397C216.024 13.2372 195.647 29.1337 195.647 50.8107Z" fill="#6C63A6"/>
<path d="M272.095 132.895L229.608 122.49C208.798 117.432 194.347 98.9339 194.347 77.5459H197.237C197.237 97.6333 210.821 114.975 230.331 119.744L272.818 130.149L272.095 132.895Z" fill="#F5F6FA"/>
<path d="M239.002 72.199C240.119 72.199 241.025 71.2932 241.025 70.1758C241.025 69.0584 240.119 68.1526 239.002 68.1526C237.884 68.1526 236.979 69.0584 236.979 70.1758C236.979 71.2932 237.884 72.199 239.002 72.199Z" fill="#F5F6FA"/>
<path d="M207.498 72.199C208.615 72.199 209.521 71.2932 209.521 70.1758C209.521 69.0584 208.615 68.1526 207.498 68.1526C206.38 68.1526 205.475 69.0584 205.475 70.1758C205.475 71.2932 206.38 72.199 207.498 72.199Z" fill="#F5F6FA"/>
<path d="M218.191 82.3148H215.301V52.256H200.994V49.3657H218.191V82.3148Z" fill="#F5F6FA"/>
<path d="M242.758 49.3657H227.006V52.256H242.758V49.3657Z" fill="#F5F6FA"/>
<path d="M267.326 66.9962V77.8347C273.251 77.8347 278.02 73.0658 278.02 67.1407C278.02 66.8517 278.02 66.4182 278.02 66.1291C277.442 59.626 267.326 60.2041 267.326 66.9962Z" fill="#6C63A6"/>
<path d="M267.326 79.2798V76.3895C272.384 76.3895 276.575 72.1986 276.575 67.1406H279.465C279.465 73.9328 273.974 79.2798 267.326 79.2798Z" fill="#F5F6FA"/>
<path d="M230.475 89.5405C228.307 89.5405 226.139 88.6734 224.405 87.0837L226.428 85.0605C228.596 87.2282 232.209 87.2282 234.377 85.0605L236.4 87.0837C234.81 88.6734 232.643 89.5405 230.475 89.5405Z" fill="#FF6498"/>
<path d="M223.683 85.4942C223.539 85.4942 223.394 85.4942 223.394 85.4942L216.458 83.76C215.735 83.6155 215.157 82.7484 215.446 82.0258C215.591 81.3033 216.458 80.7252 217.18 81.0142L224.117 82.7484C224.84 82.8929 225.418 83.76 225.129 84.4826C224.984 85.0606 224.406 85.4942 223.683 85.4942Z" fill="#F5F6FA"/>
<path d="M140.154 242.291V409.638L377.301 468.021V281.599C377.301 215.556 332.213 157.895 268.049 142.143C202.873 126.102 140.154 175.381 140.154 242.291Z" fill="#6C63A6"/>
<path d="M178.049 405.898L175.175 406.197L249.063 1116.24L251.938 1115.94L178.049 405.898Z" fill="#F5F6FA"/>
<path d="M169.201 150.381C166.889 150.381 164.432 150.381 161.831 150.236H161.253L147.091 136.074V135.496C147.091 134.629 151.715 50.5217 196.225 15.4049C213.712 1.67611 234.955 -2.94832 259.667 1.82062C277.153 5.14443 291.604 15.4049 299.553 30.0008C308.223 46.0418 310.825 70.8981 273.54 97.6331L271.806 95.3209C299.986 75.089 308.801 52.9784 297.096 31.4459C289.581 17.5726 275.852 7.89019 259.233 4.71089C235.533 0.230975 214.868 4.56638 198.104 17.7171C156.629 50.3772 150.559 127.258 150.126 135.062L162.554 147.49C184.375 148.646 200.416 144.455 209.954 135.351C218.625 127.114 218.77 117.72 218.77 117.576H221.66C221.66 118.009 221.515 128.414 211.977 137.374C202.873 145.901 188.422 150.381 169.201 150.381Z" fill="#F5F6FA"/>
<path d="M155.906 155.005C150.27 149.08 143.766 142.432 142.899 141.854C142.899 141.854 143.188 141.999 143.622 141.999V139.108C144.345 139.108 144.778 139.108 158.073 152.982L155.906 155.005Z" fill="#473C90"/>
<path d="M267.037 68.297C254.175 66.1293 244.204 45.7528 240.88 38.0936C228.886 57.7475 197.382 65.8402 196.081 66.1293L195.358 63.3835C195.647 63.239 229.753 54.5682 239.724 34.1918L241.169 31.157L242.325 34.1918C242.47 34.4808 253.597 62.95 267.471 65.4067L267.037 68.297Z" fill="#F5F6FA"/>
<path d="M149.114 268.448C143.334 268.448 137.698 266.425 133.073 262.523C119.345 250.962 111.252 236.222 109.084 218.735C102.725 167.722 140.01 146.19 140.443 145.901L141.889 148.357C141.6 148.502 105.905 169.312 111.974 218.302C113.998 234.921 121.801 249.083 134.952 260.211C141.311 265.558 149.837 267.003 157.496 263.824C165.3 260.644 170.502 253.852 171.369 245.47C172.67 233.62 175.127 224.227 178.595 217.435C193.769 187.665 147.525 155.439 147.091 155.15L148.681 152.837C150.704 154.138 197.382 186.798 181.196 218.88C177.872 225.383 175.56 234.487 174.26 245.904C173.248 255.442 167.323 263.101 158.508 266.714C155.328 267.87 152.149 268.448 149.114 268.448Z" fill="#F5F6FA"/>
<path d="M334.38 576.551L295.65 511.664L349.12 414.262L296.084 325.386L298.541 323.941L352.444 414.262L298.974 511.664L335.392 572.649C391.029 539.411 423.4 495.623 431.638 442.298C441.898 376.255 412.995 306.889 386.838 260.5C358.514 210.064 327.299 174.803 327.01 174.514L329.178 172.635C329.467 172.925 360.826 208.475 389.44 259.055C415.741 305.877 445.077 375.822 434.528 442.876C426.002 497.502 392.763 542.301 335.681 576.117L334.38 576.551Z" fill="#F5F6FA"/>
<path d="M277.563 475.621L275.081 477.102L333.728 575.384L336.21 573.903L277.563 475.621Z" fill="#F5F6FA"/>
<path d="M52.1456 175.67C49.9779 166.132 50.9895 156.306 54.8914 147.346C66.0189 121.189 96.3667 56.7357 125.558 54.7125C162.265 52.1113 150.704 84.4823 137.698 92.1416C124.691 99.8008 114.142 91.5635 114.142 91.5635C114.142 91.5635 79.0251 134.195 82.7825 147.49C82.7825 147.49 103.014 147.49 96.2222 166.711C90.2972 183.619 59.8048 208.186 52.1456 175.67Z" fill="#AA4693"/>
<path d="M94.9212 387.961C87.262 387.961 79.6028 386.516 71.9436 383.336C35.2371 368.596 7.34601 321.485 1.13193 263.246C-6.81632 189.255 28.734 123.067 56.4806 99.8008C66.163 91.7081 74.8338 88.5288 81.7705 90.552C89.4297 92.7197 93.7651 96.3325 94.7767 101.246C96.9444 111.651 82.9266 123.646 82.3485 124.224L80.4699 122.056C80.6144 121.911 93.9096 110.639 92.0309 101.824C91.0193 98.0667 87.4065 95.1764 80.9034 93.2977C75.1229 91.5635 67.0301 94.7428 58.3593 101.969C31.0462 124.802 -3.78153 189.977 4.0222 262.957C10.0918 319.317 37.8384 366.573 73.0997 380.591C95.3547 389.406 118.188 384.637 139.287 366.717L141.166 368.885C126.281 381.602 110.673 387.961 94.9212 387.961Z" fill="#F5F6FA"/>
<path d="M100.268 254.575L99.4011 252.985C85.5278 227.84 80.9033 185.642 80.9033 185.208L83.7936 184.919C83.7936 185.353 88.129 225.094 101.135 250.095L115.442 237.811L117.321 239.979L100.268 254.575Z" fill="#F5F6FA"/>
</svg>
