<svg width="172" height="203" viewBox="0 0 172 203" fill="none" xmlns="http://www.w3.org/2000/svg">
<path d="M66.9037 46.5439H2.79065V98.3496H66.9037V46.5439Z" fill="#DCE5ED"/>
<path d="M51.8533 40.318H51.3763V25.2438C51.3763 14.5822 42.6943 5.92405 32.0565 5.92405C21.3948 5.92405 12.7367 14.606 12.7367 25.2438V40.318H12.2596V25.2438C12.2596 14.3198 21.1563 5.44702 32.0565 5.44702C42.9566 5.44702 51.8533 14.3437 51.8533 25.2438V40.318Z" fill="#0C162F"/>
<path d="M64.1131 43.9194H0V95.7251H64.1131V43.9194Z" fill="#AA4693"/>
<path d="M36.2067 72.4455L35.3481 69.9173C37.8286 68.7008 39.5459 66.1487 39.5459 63.1911C39.5459 59.0648 36.2067 55.7256 32.0804 55.7256C27.9541 55.7256 24.6148 59.0648 24.6148 63.1911C24.6148 66.1487 26.3322 68.7008 28.8127 69.9173L27.9541 72.4455L23.8039 84.4667H32.1042H40.4046L36.2067 72.4455Z" fill="#F5F6FA"/>
<path d="M117.351 72.061C117.351 72.061 82.916 131.074 71.3951 189.446L67.1388 191.943L87.4284 198.663C87.4284 198.663 132.392 130.818 135.08 122.209C137.768 113.6 133.16 72.061 133.16 72.061" fill="#403682"/>
<path d="M126.28 98.7515C126.28 98.7515 120.743 127.074 122.279 144.771C128.072 135.458 132.776 127.522 134.536 123.745L126.28 98.7515Z" fill="#393073"/>
<path d="M127.304 8.47202V19.4489L140.905 22.7772V4.27968L127.304 0.951416V8.47202Z" fill="#DCE5ED"/>
<path d="M134.984 12.248C135.179 12.248 135.336 12.0904 135.336 11.896C135.336 11.7016 135.179 11.5439 134.984 11.5439C134.79 11.5439 134.632 11.7016 134.632 11.896C134.632 12.0904 134.79 12.248 134.984 12.248Z" fill="#0C162F"/>
<path d="M129.416 12.248C129.61 12.248 129.768 12.0904 129.768 11.896C129.768 11.7016 129.61 11.5439 129.416 11.5439C129.221 11.5439 129.064 11.7016 129.064 11.896C129.064 12.0904 129.221 12.248 129.416 12.248Z" fill="#0C162F"/>
<path d="M131.368 14.0723H130.728V8.79191H128.232V8.15186H131.368V14.0723Z" fill="#0C162F"/>
<path d="M135.688 8.15186H132.872V8.79191H135.688V8.15186Z" fill="#0C162F"/>
<path d="M140.009 11.3519V13.304C141.065 13.304 141.897 12.44 141.897 11.4159C141.897 11.3519 141.897 11.2879 141.897 11.2559C141.769 10.0398 140.009 10.1678 140.009 11.3519Z" fill="#DCE5ED"/>
<path d="M140.009 13.592V12.9519C140.873 12.9519 141.577 12.2479 141.577 11.3838H142.217C142.217 12.5999 141.225 13.592 140.009 13.592Z" fill="#0C162F"/>
<path d="M138.425 21.8382L138.272 22.4597L140.82 23.0861L140.973 22.4646L138.425 21.8382Z" fill="#0C162F"/>
<path d="M132.264 14.6802C132.232 14.6802 132.2 14.6802 132.2 14.6802L130.952 14.3922C130.792 14.3602 130.664 14.1682 130.728 14.0082C130.76 13.8482 130.952 13.7202 131.112 13.7842L132.328 14.0722C132.488 14.1042 132.616 14.2962 132.552 14.4562C132.552 14.5842 132.424 14.6802 132.264 14.6802Z" fill="#0C162F"/>
<path d="M132.392 23.577C130.696 23.577 129.096 23.161 128.04 22.3929C124.231 19.6727 126.888 11.768 126.984 11.416L127.592 11.608C127.56 11.672 124.999 19.4167 128.392 21.8489C130.312 23.225 134.44 23.417 137.224 21.4648C139.017 20.2167 140.873 17.6565 139.465 12.5361L140.073 12.3761C141.641 18.1366 139.177 20.8568 137.576 21.9769C136.104 23.129 134.184 23.577 132.392 23.577Z" fill="#0C162F"/>
<path d="M129.48 15.3846C129.416 15.3846 129.352 15.3846 129.288 15.3526C128.872 15.2566 128.68 15.0326 128.584 14.8725C128.424 14.4885 128.616 14.1045 128.648 14.0725L129.224 14.3605L128.936 14.2005L129.224 14.3605C129.192 14.3925 129.16 14.5205 129.192 14.6165C129.224 14.6805 129.32 14.7125 129.448 14.7445C129.64 14.7765 129.992 14.6165 130.312 14.4245C130.856 14.1365 131.56 13.7525 132.264 14.0725C132.328 13.9765 132.456 13.8805 132.584 13.7845C133.16 13.4324 134.056 13.4004 135.24 13.7525C136.328 14.0725 136.584 13.8485 136.616 13.8165C136.712 13.6885 136.616 13.3684 136.552 13.2404L137.128 12.9524C137.16 13.0164 137.512 13.7525 137.128 14.2325C136.808 14.6485 136.136 14.6805 135.08 14.3925C133.864 14.0405 133.256 14.1685 132.968 14.3285C132.744 14.4565 132.712 14.6165 132.712 14.6165L132.584 15.0966L132.2 14.8085C131.784 14.4565 131.336 14.6485 130.632 15.0326C130.216 15.1926 129.832 15.3846 129.48 15.3846Z" fill="#0C162F"/>
<path d="M132.84 16.0249C132.552 16.0249 132.232 15.9608 131.944 15.8328L132.136 15.3848C132.968 15.7688 133.992 15.4168 134.376 14.5527L134.824 14.7447C134.44 15.5448 133.672 16.0249 132.84 16.0249Z" fill="#FF6498"/>
<path d="M139.337 10.0403L138.697 10.0083C138.697 9.88034 138.697 8.85625 137.608 8.79225C136.296 8.69624 135.688 7.25613 135.464 6.61607C131.944 7.54415 129.288 7.51215 127.56 6.48807C126.28 5.75201 126.056 4.72792 126.023 4.66392L126.632 4.50391L126.312 4.56791L126.632 4.50391C126.632 4.53591 126.856 5.33597 127.88 5.94402C129 6.58407 131.24 7.09611 135.56 5.88002L135.88 5.78401L135.944 6.10403C135.944 6.13604 136.424 8.02419 137.608 8.1202C139.049 8.24821 139.369 9.4323 139.337 10.0403Z" fill="#0C162F"/>
<path d="M141.225 10.5523L140.649 10.2642C141.961 7.80003 142.153 5.78387 141.193 4.24775C139.689 1.81555 135.304 0.63146 128.84 0.88748C126.184 0.983488 124.583 1.59154 124.231 2.64762C123.623 4.40776 126.408 7.31999 127.528 8.28007L127.112 8.76011C126.92 8.6001 122.759 4.9518 123.655 2.4236C124.135 1.07949 125.863 0.343435 128.84 0.247428C135.656 -0.00859268 140.105 1.27151 141.769 3.92772C142.857 5.62386 142.665 7.86404 141.225 10.5523Z" fill="#0C162F"/>
<path d="M117.351 42.3946V72.061L159.37 82.3978V49.3711C159.37 37.6582 151.37 27.4494 140.009 24.6652C128.488 21.8169 117.351 30.5536 117.351 42.3946Z" fill="#DCE5ED"/>
<path d="M159.37 82.3982L126.344 74.2695C126.344 74.2695 124.135 154.564 137.16 198.151L134.984 202.504H156.618C156.618 202.504 160.938 99.9676 159.37 82.3982Z" fill="#473C90"/>
<path d="M136.84 198.247C123.943 155.108 125.991 75.0694 126.023 74.2373L126.664 74.2693C126.632 75.0694 124.583 155.012 137.48 198.055L136.84 198.247Z" fill="#0C162F"/>
<path d="M152.17 101.92L151.85 101.375C151.882 101.343 156.362 98.8153 160.842 93.3429C164.971 88.2865 169.995 79.5498 170.379 66.8447C170.763 54.1077 164.139 44.0589 158.506 37.8824C152.394 31.1619 146.089 27.4176 146.057 27.3856L146.377 26.8416C146.441 26.8736 152.81 30.6819 158.986 37.4664C164.715 43.7389 171.435 53.9477 171.019 66.8767C170.635 79.8058 165.515 88.6385 161.322 93.7909C156.746 99.3273 152.202 101.888 152.17 101.92Z" fill="#0C162F"/>
<path d="M155.21 104.64C148.873 101.791 145.193 88.6064 145.033 88.0624L145.641 87.9023C145.673 88.0304 149.385 101.343 155.434 104.096L155.21 104.64Z" fill="#0C162F"/>
<path d="M145.961 89.2151L145.385 88.9271L154.954 68.5735L141.641 52.3482L142.153 51.9321L155.69 68.4774L145.961 89.2151Z" fill="#0C162F"/>
<path d="M146.537 87.2629L155.338 68.5414L145.033 55.9644C145.033 55.9644 151.306 74.7499 146.537 87.2629Z" fill="#0C162F"/>
<path d="M103.014 68.6688C102.854 68.6688 102.726 68.6688 102.566 68.6688C95.9092 68.6048 89.4127 62.0762 83.2682 49.2432C78.9798 40.2505 76.3556 31.1618 76.0676 30.1377C73.0594 27.4815 73.2834 22.4571 73.4114 21.145L68.131 20.1849V17.9767L68.291 17.8807C68.515 17.7527 74.0515 14.9045 78.6918 16.3126C83.1402 17.6567 101.734 41.1466 103.974 44.0268L121.735 29.9777L122.119 30.4897L103.878 44.9549L103.686 44.6989C103.494 44.4428 82.9482 18.3287 78.4998 16.9526C74.5315 15.7365 69.6991 17.9127 68.739 18.3928V19.6729L74.0834 20.6329L74.0515 20.921C74.0515 20.985 73.3474 26.9694 76.5476 29.7217L76.6117 29.7857L76.6437 29.8817C76.7397 30.2657 87.2365 67.9327 102.534 68.0607C113.031 68.1567 117.063 65.2445 117.095 65.2125L117.479 65.7245C117.383 65.8526 113.447 68.6688 103.014 68.6688Z" fill="#0C162F"/>
</svg>
