<svg width="496" height="638" viewBox="0 0 496 638" fill="none" xmlns="http://www.w3.org/2000/svg">
<path d="M117.524 294.85C117.524 294.85 225.007 443.842 120.89 605.823L118.402 638L55.4783 604.582L90.5987 473.247L41.5764 388.025L76.9163 274.201" fill="#403682"/>
<path d="M102.903 263.806L1.03951 265.634L1.98742 367.587V638H81.2472L72.8619 622.945L102.903 263.806Z" fill="#473C90"/>
<path d="M76.6968 84.313V115.592L37.8906 125.165V72.3277L76.6968 62.8271V84.313Z" fill="#BB6BA9"/>
<path d="M54.7712 95.129C55.3362 95.129 55.7943 94.671 55.7943 94.1059C55.7943 93.5408 55.3362 93.0828 54.7712 93.0828C54.2061 93.0828 53.748 93.5408 53.748 94.1059C53.748 94.671 54.2061 95.129 54.7712 95.129Z" fill="#F5F6FA"/>
<path d="M70.7038 95.129C71.2688 95.129 71.7269 94.671 71.7269 94.1059C71.7269 93.5408 71.2688 93.0828 70.7038 93.0828C70.1387 93.0828 69.6807 93.5408 69.6807 94.1059C69.6807 94.671 70.1387 95.129 70.7038 95.129Z" fill="#F5F6FA"/>
<path d="M66.7575 100.318H65.2959V83.5822H73.9926V85.0438H66.7575V100.318Z" fill="#F5F6FA"/>
<path d="M60.7637 83.5822H52.7979V85.0438H60.7637V83.5822Z" fill="#F5F6FA"/>
<path d="M40.4481 92.4981V98.0523C37.4517 98.0523 35.04 95.6406 35.04 92.6443C35.04 92.4981 35.04 92.2789 35.04 92.1327C35.4054 88.771 40.4481 89.1364 40.4481 92.4981Z" fill="#BB6BA9"/>
<path d="M40.4474 98.7831C37.0857 98.7831 34.3086 96.006 34.3086 92.6443H35.7702C35.7702 95.2021 37.8896 97.3215 40.4474 97.3215V98.7831Z" fill="#F5F6FA"/>
<path d="M62.5176 104.995C59.0828 104.995 56.3057 102.218 56.3057 98.7831H57.7673C57.7673 101.414 59.8867 103.533 62.5176 103.533V104.995Z" fill="#FF6498"/>
<path d="M76.4895 114.929L37.7402 124.462L38.0894 125.881L76.8386 116.348L76.4895 114.929Z" fill="#F5F6FA"/>
<path d="M62.5192 101.926C62.2269 101.926 61.8615 101.706 61.7884 101.341C61.7153 100.976 61.9345 100.537 62.3 100.464L65.881 99.587C66.2464 99.5139 66.6849 99.7332 66.7579 100.099C66.831 100.464 66.6118 100.902 66.2464 100.976L62.7385 101.853C62.6654 101.926 62.5923 101.926 62.5192 101.926Z" fill="#F5F6FA"/>
<path d="M41.4622 91.2617L40.4378 90.1893C40.5109 90.1178 47.7552 83.3975 47.9015 77.1062V76.3197L48.7064 76.4627C56.097 77.5351 75.0491 80.0374 80.3176 79.6084L77.3907 74.032L78.1224 73.746C78.1956 73.746 83.0251 71.8872 86.9033 69.5995C82.7324 67.0257 65.8292 57.2313 51.1944 60.1625C44.6087 61.5208 39.3401 65.2384 35.4619 71.3153L35.3156 71.4583L35.0961 71.5298C35.0961 71.5298 31.8032 73.1741 30.852 76.8917C29.9739 80.6093 31.5837 85.0418 35.6814 90.1893L34.5107 91.0472C30.1202 85.5423 28.364 80.6093 29.3885 76.4627C30.3397 72.6021 33.3399 70.6719 34.218 70.2429C38.3157 63.8801 43.877 60.0195 50.7553 58.5896C68.0976 55.0865 87.7082 68.3126 88.5131 68.8845L89.3912 69.528L88.5131 70.0999C85.2203 72.1732 80.9762 73.9605 79.2932 74.6039L82.3665 80.3948L81.4884 80.6093C77.4639 81.7532 53.9018 78.4645 49.1455 77.7496C48.6333 84.5414 41.7549 90.9757 41.4622 91.2617Z" fill="#F5F6FA"/>
<path d="M1.0398 180.917V265.539L121.613 294.989V200.72C121.613 167.324 98.6889 138.167 66.0657 130.201C33.0017 122.163 1.0398 147.009 1.0398 180.917Z" fill="#BB6BA9"/>
<path d="M19.9807 237.867C36.6321 256.849 72.8821 254.805 108.101 244.073C101.248 257.36 82.8287 266.925 61.1671 266.925C33.6849 266.925 11.4339 251.593 11.4339 232.683C11.4339 230.931 11.655 229.179 12.0233 227.427C14.2337 230.858 16.8862 234.362 19.9807 237.867Z" fill="#993F84"/>
<path d="M102.582 263.999L104.038 264.121L73.9847 623.224L72.5282 623.102L102.582 263.999Z" fill="#F5F6FA"/>
<path d="M60.2184 252.373C74.2088 252.373 88.2721 249.526 98.5463 246.899C144.161 234.93 190.796 206.613 194.585 188.659C198.884 168.005 197.645 164.064 195.75 162.969C193.783 161.801 190.941 164.137 187.954 166.764C182.853 171.362 179.647 171.581 178.554 171.435C178.335 169.318 177.461 163.407 175.056 162.458C174.473 162.239 173.672 162.166 172.652 163.115C169.446 166.034 168.134 170.997 167.77 172.53L80.8397 195.592L59.344 159.904L58.1053 160.634L80.1839 197.198L169.008 173.551L169.081 173.114C169.081 173.041 170.174 167.129 173.599 164.064C174.182 163.553 174.401 163.699 174.546 163.699C175.858 164.21 176.878 168.954 177.169 171.946L177.242 172.384L177.68 172.53C177.825 172.603 181.833 174.062 188.974 167.64C190.431 166.326 193.856 163.261 195.095 163.991C196.406 164.721 197.135 169.537 193.273 188.075C189.703 205.299 142.704 233.616 98.3277 245.22C77.1235 250.767 38.7956 257.044 21.089 236.681C2.43512 215.225 0.321976 193.987 1.77931 179.974C3.38239 164.721 9.50319 154.43 9.57607 154.357L8.33731 153.627C8.26445 153.7 1.99794 164.21 0.394867 179.755C-1.13533 194.06 1.05064 215.735 19.996 237.63C29.4687 248.87 44.7707 252.373 60.2184 252.373Z" fill="#F5F6FA"/>
<path d="M130.696 183.771L132.008 183.034C118.748 158.804 86.3265 138.257 86.0351 138.036L85.2336 139.288C85.525 139.509 117.655 159.835 130.696 183.771Z" fill="#F5F6FA"/>
<path d="M148.032 253.412C178.64 253.412 204.121 242.252 207.05 240.939C210.418 242.033 213.567 242.471 216.496 242.471C230.628 242.471 239.268 231.894 240.66 230.144C244.76 229.341 253.62 227.372 253.62 224.381C253.62 223.068 252.375 221.463 243.296 220.005C220.084 216.139 173.514 211.908 173.075 211.835L172.928 213.294C173.367 213.367 219.937 217.598 243.076 221.463C252.082 222.922 252.156 224.381 252.156 224.454C252.156 225.548 246.517 227.591 240.147 228.758L239.854 228.831L239.708 229.049C239.561 229.195 227.553 246.045 207.343 239.48L207.05 239.407L206.757 239.553C206.318 239.772 163.702 259.758 120.94 248.744L120.574 250.13C129.8 252.464 139.099 253.412 148.032 253.412Z" fill="#F5F6FA"/>
<path d="M285.616 547.15C287.725 432.194 334.27 213.462 334.27 213.462L377.51 217.891L403.876 365.049L334.27 571.688L276.265 558.048L285.616 547.15Z" fill="#88BBDA"/>
<path d="M394.033 310.067L403.876 365.049L367.034 474.38C357.402 455.748 351.706 433.319 351.706 409.063C351.706 367.158 368.651 330.457 394.033 310.067Z" fill="#79A6C2"/>
<path d="M351.707 211.704L434.039 206.08L449.015 212.196L456.046 571.688H379.62L387.705 557.204L351.707 211.704Z" fill="#97D0F2"/>
<path d="M334.27 131.974V213.392L449.647 241.797V151.098C449.647 118.966 427.711 90.9129 396.494 83.2492C364.784 75.4448 334.27 99.4203 334.27 131.974Z" fill="#473C90"/>
<path d="M364.057 38.8137V51.8209C364.057 61.8751 370.947 70.5935 380.65 72.984L401.321 78.0463V27.2829L384.095 23.0644C373.97 20.5332 364.057 28.2673 364.057 38.8137Z" fill="#BB6BA9"/>
<path d="M401.18 78.7494L380.509 73.6871C370.384 71.2263 363.354 62.2267 363.354 51.8209H364.76C364.76 61.5939 371.369 70.031 380.861 72.3512L401.531 77.4135L401.18 78.7494Z" fill="#F5F6FA"/>
<path d="M385.149 49.2195C385.693 49.2195 386.134 48.7788 386.134 48.2351C386.134 47.6915 385.693 47.2508 385.149 47.2508C384.606 47.2508 384.165 47.6915 384.165 48.2351C384.165 48.7788 384.606 49.2195 385.149 49.2195Z" fill="#F5F6FA"/>
<path d="M369.822 49.2195C370.366 49.2195 370.807 48.7788 370.807 48.2351C370.807 47.6915 370.366 47.2508 369.822 47.2508C369.279 47.2508 368.838 47.6915 368.838 48.2351C368.838 48.7788 369.279 49.2195 369.822 49.2195Z" fill="#F5F6FA"/>
<path d="M375.025 54.2114H373.619V39.5168H366.588V38.1106H375.025V54.2114Z" fill="#F5F6FA"/>
<path d="M386.977 38.1106H379.313V39.5168H386.977V38.1106Z" fill="#F5F6FA"/>
<path d="M398.93 46.6883V52.0318C401.812 52.0318 404.133 49.7116 404.133 46.8289C404.133 46.6883 404.133 46.4774 404.133 46.3368C403.781 43.1025 398.93 43.4541 398.93 46.6883Z" fill="#BB6BA9"/>
<path d="M398.93 52.7349V51.3287C401.391 51.3287 403.429 49.2898 403.429 46.8289H404.836C404.836 50.0632 402.164 52.7349 398.93 52.7349Z" fill="#F5F6FA"/>
<path d="M380.931 57.7269C379.876 57.7269 378.821 57.305 377.978 56.5316L378.962 55.5473C380.017 56.6019 381.774 56.6019 382.829 55.5473L383.813 56.5316C383.11 57.305 382.055 57.7269 380.931 57.7269Z" fill="#FF6498"/>
<path d="M377.697 55.7582C377.627 55.7582 377.556 55.7582 377.556 55.7582L374.181 54.9145C373.83 54.8442 373.549 54.4223 373.689 54.0708C373.76 53.7192 374.181 53.438 374.533 53.5786L377.908 54.4223C378.259 54.4926 378.541 54.9145 378.4 55.266C378.259 55.5473 377.978 55.7582 377.697 55.7582Z" fill="#F5F6FA"/>
<path d="M401.53 59.4143L401.109 58.0784C404.062 57.1644 406.311 55.0551 407.858 51.61C412.569 41.4151 409.335 23.3456 407.366 18.9161C405.116 13.8539 400.265 8.93221 370.876 15.2601C363.704 16.8069 359.275 19.8302 357.728 24.2596C354.423 33.5405 364.407 46.1258 364.548 46.2665L363.423 47.1805C363.001 46.618 352.806 33.8217 356.392 23.8378C358.15 18.9161 362.931 15.5413 370.594 13.9242C398.015 8.01819 405.538 11.2524 408.702 18.3537C410.952 23.4862 413.975 41.6964 409.194 52.1724C407.507 56.0395 404.905 58.43 401.53 59.4143Z" fill="#F5F6FA"/>
<path d="M398.296 44.8603L397.312 42.9619C390.633 41.7667 387.961 32.8374 387.187 29.3922C377.414 39.3058 366.024 39.5168 365.462 39.5871V38.1809C365.603 38.1809 377.555 37.8996 387.047 27.4939L388.031 26.4392L388.242 27.8454C388.242 27.986 390.492 40.712 397.804 41.6964L398.156 41.7667L399.492 44.2978L398.296 44.8603Z" fill="#F5F6FA"/>
<path d="M411.514 35.7201L410.6 34.5951C421.358 25.8768 420.584 17.6506 419.178 13.5023C416.858 6.68231 409.616 1.47942 402.444 1.40911C397.804 1.3388 394.429 2.46376 392.39 4.64334C390.14 7.10417 390.351 10.1275 390.351 10.1275L388.945 10.2681C388.945 10.1275 388.664 6.612 391.336 3.65901C393.656 1.12788 397.382 -0.0673813 402.515 0.00292805C410.249 0.0732374 417.983 5.69798 420.584 13.0101C422.061 17.5803 422.975 26.5095 411.514 35.7201Z" fill="#F5F6FA"/>
<path d="M352.457 211.665L388.405 557.118L387.007 557.263L351.058 211.811L352.457 211.665Z" fill="#F5F6FA"/>
<path d="M427.922 310.208L428.485 309.786C428.695 309.645 448.663 294.88 466.522 272.452C483.045 251.71 501.184 220.001 493.45 186.674C485.787 153.418 465.116 129.021 449.085 114.396C431.789 98.5766 416.04 90.4207 415.829 90.3504L415.196 91.616C415.337 91.6863 430.945 99.7015 448.171 115.451C463.991 129.935 484.521 154.121 492.044 186.955C499.638 219.72 481.709 251.007 465.397 271.538C449.296 291.716 431.578 305.567 428.203 308.169L408.025 280.256L440.789 209.243L401.556 156.863L400.431 157.707L439.101 209.384L406.337 280.396L427.922 310.208Z" fill="#F5F6FA"/>
<path d="M395.246 262.603L428.648 308.813L427.509 309.636L394.106 263.427L395.246 262.603Z" fill="#F5F6FA"/>
<path d="M327.661 246.156L327.732 244.75C299.256 242.711 280.765 226.54 272.679 196.728C265.859 171.487 268.812 144.348 271.203 130.427C274.859 108.912 281.046 94.4283 284.983 91.6863C288.288 89.4364 290.889 88.8739 292.718 89.9285C297.569 92.8112 296.585 105.818 296.514 105.959L296.444 106.592L297.077 106.732C299.045 107.154 300.241 107.998 300.803 109.404C302.772 114.185 296.655 123.115 296.585 123.255L296.374 123.536L312.404 185.268L312.615 180.698C315.146 131.13 343.129 102.444 351.707 94.8502L352.059 94.569L351.074 93.5143L350.723 93.7956C342.356 101.248 315.357 128.81 311.49 176.268L297.92 123.818C298.975 122.201 304.108 113.904 302.069 108.912C301.366 107.225 299.959 106.1 297.92 105.537C298.061 102.795 298.413 91.6863 293.35 88.7333C290.96 87.3271 287.866 87.9599 284.14 90.491C279.078 93.9362 273.031 110.599 269.726 130.145C267.336 144.207 264.383 171.558 271.273 197.08C279.499 227.172 298.975 244.117 327.661 246.156Z" fill="#F5F6FA"/>
</svg>
