<svg width="511" height="621" viewBox="0 0 511 621" fill="none" xmlns="http://www.w3.org/2000/svg">
<path d="M420.57 289.6L367.508 281.367C367.508 281.367 328.418 467.653 349.377 606.619L343.223 620.341H413.417L433.378 408.357L420.57 289.6Z" fill="#DCE5ED"/>
<path d="M385.306 285.774C385.306 285.774 371.916 504.993 409.841 608.781L401.94 620.424H469.39C469.39 620.424 476.793 341.577 476.793 281.45L385.306 285.774Z" fill="#DCE5ED"/>
<path d="M402.606 620.84L401.192 619.925L408.844 608.615C389.382 554.891 383.727 470.148 382.479 408.357C381.149 341.328 384.392 286.274 384.475 285.691L386.139 285.775C385.972 287.937 373.164 505.991 410.59 608.449L410.757 608.864L402.606 620.84Z" fill="#0C162F"/>
<path d="M433.462 116.121V144.646L398.115 153.295V105.227L433.462 96.5776V116.121Z" fill="#DCE5ED"/>
<path d="M413.502 126.018C414.007 126.018 414.417 125.608 414.417 125.103C414.417 124.598 414.007 124.188 413.502 124.188C412.997 124.188 412.587 124.598 412.587 125.103C412.587 125.608 412.997 126.018 413.502 126.018Z" fill="#0C162F"/>
<path d="M427.972 126.018C428.478 126.018 428.887 125.608 428.887 125.103C428.887 124.598 428.478 124.188 427.972 124.188C427.467 124.188 427.058 124.598 427.058 125.103C427.058 125.608 427.467 126.018 427.972 126.018Z" fill="#0C162F"/>
<path d="M424.563 130.675H422.899V115.29H431.05V116.953H424.563V130.675Z" fill="#0C162F"/>
<path d="M418.991 115.29H411.672V116.953H418.991V115.29Z" fill="#0C162F"/>
<path d="M400.444 123.606V128.679C397.7 128.679 395.537 126.434 395.537 123.772C395.537 123.606 395.537 123.44 395.537 123.357C395.787 120.196 400.444 120.529 400.444 123.606Z" fill="#DCE5ED"/>
<path d="M400.444 129.51C397.283 129.51 394.705 126.932 394.705 123.772H396.368C396.368 126.018 398.198 127.847 400.444 127.847V129.51Z" fill="#0C162F"/>
<path d="M420.571 134.916C417.41 134.916 414.915 132.421 414.915 129.261H416.163C416.163 131.673 418.159 133.669 420.571 133.669V134.916Z" fill="#FF6498"/>
<path d="M433.24 143.82L397.945 152.502L398.343 154.117L433.637 145.435L433.24 143.82Z" fill="#0C162F"/>
<path d="M420.571 132.338C420.239 132.338 419.823 132.089 419.74 131.673C419.656 131.257 419.906 130.758 420.322 130.675L423.482 129.926C423.898 129.843 424.397 130.093 424.48 130.508C424.563 130.924 424.314 131.423 423.898 131.506L420.738 132.338C420.654 132.338 420.571 132.338 420.571 132.338Z" fill="#0C162F"/>
<path d="M367.508 204.358V281.45L476.709 308.312V222.404C476.709 191.966 455.917 165.437 426.392 158.202C396.451 150.883 367.508 173.504 367.508 204.358Z" fill="#473C90"/>
<path d="M397.283 121.527C396.951 120.945 389.881 106.64 395.62 97.4093C398.78 92.3364 405.101 89.8415 414.416 90.0078C425.062 90.1741 431.965 92.5859 435.042 97.3262C438.785 103.064 435.707 110.3 434.543 113.044C434.377 113.377 434.21 113.793 434.21 113.959C434.21 113.959 434.21 113.959 434.21 113.876H432.547C432.547 113.543 432.713 113.294 433.046 112.462C434.127 109.967 436.955 103.314 433.711 98.3241C430.967 94.0828 424.48 91.9206 414.416 91.7542C405.683 91.5879 399.862 93.8333 397.034 98.4073C391.794 106.89 398.697 120.695 398.78 120.861L397.283 121.527Z" fill="#0C162F"/>
<path d="M401.109 117.951L399.695 117.036C400.943 115.123 404.353 109.718 404.602 107.556L404.685 106.807H405.434C411.672 106.89 428.555 106.225 431.383 102.15L432.713 103.148C429.054 108.304 410.424 108.47 406.016 108.47C405.351 111.714 401.608 117.286 401.109 117.951Z" fill="#0C162F"/>
<path d="M395.868 179.824L380.232 261.408L385.971 276.46L400.443 264.069L399.528 180.407L404.601 173.088H392.375L395.868 179.824Z" fill="#0C162F"/>
<path d="M444.44 378.918L428.888 354.634L429.054 354.218L459.078 276.543L430.302 236.542L431.632 235.544L460.908 276.294L430.801 354.468L445.023 376.755C482.532 355.216 503.657 328.188 507.649 296.586C511.807 264.152 497.003 232.55 483.946 211.676C469.724 189.056 454.254 173.92 454.088 173.837L455.252 172.672C455.419 172.839 470.971 188.058 485.276 210.844C498.583 231.885 513.471 263.903 509.312 296.835C505.154 329.269 483.613 356.796 445.106 378.668L444.44 378.918Z" fill="#0C162F"/>
<path d="M416.553 332.11L415.151 333.005L444.023 378.213L445.425 377.318L416.553 332.11Z" fill="#0C162F"/>
<path d="M355.199 350.475C332.661 311.721 339.314 266.564 348.879 235.46C359.192 201.862 375.077 177.08 375.243 176.83L376.657 177.745C376.491 177.995 360.772 202.611 350.459 236.043C340.978 266.813 334.407 311.472 356.613 349.727L355.199 350.475Z" fill="#0C162F"/>
<path d="M172.945 481.608C172.945 481.608 161.136 242.664 149.482 177.969L72.6836 188.351L112.665 493.772H180.509L172.945 481.608Z" fill="#993F84"/>
<path d="M149.713 338.737C141.3 324.094 116.601 322.157 91.5938 333.081L101.087 405.369C106.104 403.51 111.198 401.185 116.215 398.241C144.31 381.971 159.284 355.318 149.713 338.737Z" fill="#0C162F"/>
<path d="M48.1389 202.917C48.1389 202.917 39.4944 293.335 92.211 317.508L-16.2324 378.871L6.92275 435.586L15.2586 416.061C15.2586 416.061 151.411 394.677 158.821 340.752C166.23 286.827 115.984 186.182 115.984 186.182" fill="#AA4693"/>
<path d="M15.4127 416.836L15.1812 415.286C15.4899 415.209 49.6052 409.785 84.0292 397.854C115.752 386.929 154.267 368.102 158.049 340.597C165.304 287.524 115.752 187.499 115.289 186.491L116.678 185.794C117.218 186.801 166.925 287.291 159.592 340.829C157.894 353.381 149.172 365.158 133.736 375.85C121.463 384.372 104.946 392.275 84.5695 399.326C49.9139 411.335 15.7214 416.836 15.4127 416.836Z" fill="#0C162F"/>
<path d="M83.2578 24.0184V50.5162L115.984 58.6514V13.8687L83.2578 5.7334V24.0184Z" fill="#DCE5ED"/>
<path d="M101.705 33.1608C102.174 33.1608 102.554 32.7793 102.554 32.3086C102.554 31.8379 102.174 31.4563 101.705 31.4563C101.236 31.4563 100.856 31.8379 100.856 32.3086C100.856 32.7793 101.236 33.1608 101.705 33.1608Z" fill="#0C162F"/>
<path d="M88.2753 33.1608C88.7442 33.1608 89.1243 32.7793 89.1243 32.3086C89.1243 31.8379 88.7442 31.4563 88.2753 31.4563C87.8064 31.4563 87.4263 31.8379 87.4263 32.3086C87.4263 32.7793 87.8064 33.1608 88.2753 33.1608Z" fill="#0C162F"/>
<path d="M92.9835 37.5772H91.4398V24.7932H85.4194V23.2437H92.9835V37.5772Z" fill="#0C162F"/>
<path d="M103.403 23.2437H96.6108V24.7932H103.403V23.2437Z" fill="#0C162F"/>
<path d="M113.823 30.9139V35.6402C116.37 35.6402 118.377 33.5482 118.377 31.0689C118.377 30.9139 118.377 30.759 118.377 30.6815C118.146 27.8148 113.823 28.1247 113.823 30.9139Z" fill="#DCE5ED"/>
<path d="M113.823 36.4149V34.8653C115.907 34.8653 117.605 33.1608 117.605 31.0688H119.149C119.149 34.013 116.756 36.4149 113.823 36.4149Z" fill="#0C162F"/>
<path d="M95.1445 41.4512V40.289C97.3829 40.289 99.2353 38.4295 99.2353 36.1826H100.393C100.393 39.1268 98.0775 41.4512 95.1445 41.4512Z" fill="#FF6498"/>
<path d="M83.4056 49.7745L83.0371 51.2793L115.792 59.3613L116.16 57.8565L83.4056 49.7745Z" fill="#0C162F"/>
<path d="M95.1443 39.0493C95.0671 39.0493 94.9899 39.0493 94.9899 39.0493L92.057 38.352C91.671 38.2745 91.3623 37.8096 91.5167 37.4222C91.5939 37.0348 92.057 36.7249 92.4429 36.8799L95.3759 37.5772C95.7618 37.6547 96.0705 38.1195 95.9161 38.5069C95.839 38.8168 95.5302 39.0493 95.1443 39.0493Z" fill="#0C162F"/>
<path d="M116.833 28.7446L115.366 28.5122L119.148 5.57847L81.7142 1.70453L83.9525 23.941L82.486 24.0959L80.0161 0L121.001 4.18386L116.833 28.7446Z" fill="#0C162F"/>
<path d="M113.437 30.1392C109.886 28.2798 108.651 21.6166 108.343 19.2922C95.0671 20.7643 85.342 12.0092 84.9561 11.6993L85.9594 10.5371C86.0366 10.6146 95.9162 19.4472 108.883 17.6652L109.655 17.5877L109.732 18.3625C109.964 20.7643 111.199 27.2725 114.132 28.8221L113.437 30.1392Z" fill="#0C162F"/>
<path d="M149.482 106.146V177.969L48.1392 202.917V122.959C48.1392 94.6016 67.4351 69.8858 94.8354 63.1452C122.622 56.327 149.482 77.4788 149.482 106.146Z" fill="#97D0F2"/>
<path d="M57.0151 190.133C47.0584 190.133 38.6454 188.506 32.8566 184.632C27.5309 180.99 24.7523 175.567 24.6751 168.439C24.0576 116.605 66.8175 77.7111 67.2034 77.3237L68.2068 78.4859C67.7437 78.8733 25.6013 117.303 26.1416 168.361C26.2188 174.947 28.7658 179.983 33.6284 183.315C39.0313 187.034 47.1356 188.506 56.6292 188.506C90.3586 188.506 142.535 169.601 160.905 162.473C167.157 160.071 172.174 155.035 174.643 148.682L178.425 138.842L188.768 134.581V130.164L86.0363 143.413L99.1575 112.422L100.547 113.041L88.5062 141.554L190.312 128.382V135.588L179.583 139.927L176.033 149.147C173.408 155.887 168.083 161.233 161.445 163.79C138.213 172.933 89.5096 190.133 57.0151 190.133Z" fill="#0C162F"/>
<path d="M51.7666 189.203C59.7165 193 70.5223 195.401 82.4086 195.401C105.332 195.401 124.088 186.724 126.403 175.567C101.859 183.237 72.4519 190.52 51.7666 189.203Z" fill="#0C162F"/>
<path d="M179.815 190.675C170.707 190.675 160.365 186.646 149.019 178.589L149.945 177.349C166.462 189.048 180.587 192.07 191.856 186.336C221.108 171.46 222.652 102.349 222.652 101.652V101.187L223.038 100.955C232.223 95.5312 227.669 82.5923 227.669 82.4373L227.437 81.8175L235.001 77.4012V73.7597C232.686 73.5272 224.504 73.2173 216.4 78.4859C211.537 81.6625 201.504 98.7853 188.074 126.755L186.684 126.058C196.255 106.068 209.068 81.3526 215.551 77.0913C225.585 70.583 235.465 72.1326 235.85 72.2101L236.468 72.2876V78.0985L229.213 82.3598C230.062 85.1491 232.763 96.461 224.118 101.884C224.041 104.674 223.424 120.944 219.719 138.532C214.316 164.565 205.131 180.99 192.473 187.499C188.614 189.668 184.369 190.675 179.815 190.675Z" fill="#0C162F"/>
<path d="M144.147 83.4344L142.852 84.2766L173.349 131.558L174.645 130.715L144.147 83.4344Z" fill="#0C162F"/>
<g clip-path="url(#clip0_362_5)">
<path d="M364.56 19.3076L360.212 27.9999L350.585 29.3845L357.572 36.0768L355.942 45.6153L364.56 41.1538L373.177 45.6153L371.469 36.0768L378.457 29.3845L368.83 27.9999L364.56 19.3076Z" fill="#AA4693"/>
<path d="M377.945 28.8409L370.993 35.5505L372.077 36.6525L379.028 29.9429L377.945 28.8409Z" fill="#0C162F"/>
<path d="M354.855 47L356.718 36.3846L348.955 28.8462L359.669 27.3077L363.861 19L365.258 19.6923L360.755 28.6923L352.215 29.9231L358.426 35.8462L356.951 44.2308L364.56 40.2308L373.488 44.9231L372.789 46.3077L364.56 42L354.855 47Z" fill="#0C162F"/>
<path d="M326.051 19.3076L321.704 27.9999L312.077 29.3845L319.064 36.0768L317.434 45.6153L326.051 41.1538L334.669 45.6153L333.039 36.0768L340.026 29.3845L330.321 27.9999L326.051 19.3076Z" fill="#AA4693"/>
<path d="M339.446 28.8622L332.494 35.5718L333.578 36.6738L340.529 29.9642L339.446 28.8622Z" fill="#0C162F"/>
<path d="M316.424 47L318.21 36.3846L310.446 28.8462L321.238 27.3077L325.353 19L326.75 19.6923L322.247 28.6923L313.785 29.9231L319.918 35.8462L318.443 44.2308L326.051 40.2308L335.057 44.9231L334.281 46.3077L326.051 42L316.424 47Z" fill="#0C162F"/>
<path d="M287.544 19.3076L283.273 27.9999L273.646 29.3845L280.634 36.0768L278.926 45.6153L287.544 41.1538L296.161 45.6153L294.531 36.0768L301.518 29.3845L291.891 27.9999L287.544 19.3076Z" fill="#AA4693"/>
<path d="M300.947 28.8837L293.996 35.5933L295.079 36.6953L302.031 29.9857L300.947 28.8837Z" fill="#0C162F"/>
<path d="M277.917 47L279.78 36.3846L271.938 28.8462L282.73 27.3077L286.845 19L288.242 19.6923L283.739 28.6923L275.277 29.9231L281.41 35.8462L280.013 44.2308L287.544 40.2308L296.549 44.9231L295.851 46.3077L287.544 42L277.917 47Z" fill="#0C162F"/>
<path d="M249.113 19.3076L244.765 27.9999L235.138 29.3845L242.126 36.0768L240.495 45.6153L249.113 41.1538L257.731 45.6153L256.1 36.0768L263.01 29.3845L253.383 27.9999L249.113 19.3076Z" fill="#AA4693"/>
<path d="M262.504 28.8512L255.552 35.5608L256.636 36.6628L263.587 29.9532L262.504 28.8512Z" fill="#0C162F"/>
<path d="M239.408 47L241.272 36.3846L233.508 28.8462L244.299 27.3077L248.414 19L249.812 19.6923L245.309 28.6923L236.846 29.9231L242.98 35.8462L241.504 44.2308L249.113 40.2308L258.041 44.9231L257.342 46.3077L249.113 42L239.408 47Z" fill="#0C162F"/>
<path d="M210.605 19.3076L206.335 27.9999L196.63 29.3845L203.618 36.0768L201.987 45.6153L210.605 41.1538L219.223 45.6153L217.592 36.0768L224.58 29.3845L214.953 27.9999L210.605 19.3076Z" fill="#AA4693"/>
<path d="M224.004 28.8737L217.055 35.5852L218.139 36.6869L225.088 29.9754L224.004 28.8737Z" fill="#0C162F"/>
<path d="M200.978 47L202.841 36.3846L195 28.8462L205.792 27.3077L209.906 19L211.304 19.6923L206.801 28.6923L198.338 29.9231L204.472 35.8462L202.997 44.2308L210.605 40.2308L219.611 44.9231L218.835 46.3077L210.605 42L200.978 47Z" fill="#0C162F"/>
</g>
<defs>
<clipPath id="clip0_362_5">
<rect width="184" height="28" fill="white" transform="translate(195 19)"/>
</clipPath>
</defs>
</svg>
