<svg width="24" height="24" viewBox="0 0 24 24" fill="none" xmlns="http://www.w3.org/2000/svg">
<path d="M19.5158 20.7474L17.9895 17.9789V5.6842H21.0421V17.9789L19.5158 20.7474ZM19.0421 17.7105L19.5158 18.5684L19.9895 17.7105V6.73684H19.0421V17.7105Z" fill="#F5F6FA"/>
<path d="M20.3684 12H18.7895V13.0526H20.3684V12Z" fill="#F5F6FA"/>
<path d="M20.0421 4.76318H18.9895V6.21055H20.0421V4.76318Z" fill="#F5F6FA"/>
<path d="M14.5789 9.89478H5.10526V10.9474H14.5789V9.89478Z" fill="#F5F6FA"/>
<path d="M14.5789 12H5.10526V13.0526H14.5789V12Z" fill="#F5F6FA"/>
<path d="M14.5789 14.1052H5.10526V15.1579H14.5789V14.1052Z" fill="#F5F6FA"/>
<path d="M8.26315 7.26321H3.52631V6.21058H7.21052V2.52637H8.26315V7.26321Z" fill="#F5F6FA"/>
<path d="M16.6842 22H3V6.52105L7.52105 2H16.6842V22ZM4.05263 20.9474H15.6316V3.05263H7.95263L4.05263 6.95263V20.9474Z" fill="#F5F6FA"/>
</svg>
