<?xml version="1.0" encoding="utf-8"?>
<!-- Generator: Adobe Illustrator 24.0.1, SVG Export Plug-In . SVG Version: 6.00 Build 0)  -->
<svg version="1.1" id="Camada_1" xmlns="http://www.w3.org/2000/svg" xmlns:xlink="http://www.w3.org/1999/xlink" x="0px" y="0px"
	 viewBox="0 0 24 24" style="enable-background:new 0 0 24 24;" xml:space="preserve">
<style type="text/css">
	.st0{fill:#DCE5ED;}
</style>
<path class="st0" d="M21.3,0H2.7C1.2,0,0,1.2,0,2.7v18.6C0,22.8,1.2,24,2.7,24h8.8c0.4,0,0.8-0.3,0.8-0.8c0-0.2,0-6.8,0-7
	c0-0.4-0.3-0.8-0.8-0.8H9.3V13h2.3c0.4,0,0.8-0.3,0.8-0.8V9.4c0-2.4,2-4.4,4.4-4.4h2.1v2.5h-1.3c-1,0-1.8,0.8-1.8,1.8v3
	c0,0.4,0.3,0.8,0.8,0.8h3l-0.6,2.5h-2.4c-0.4,0-0.8,0.3-0.8,0.8v7c0,0.4,0.3,0.8,0.8,0.8h4.8c1.5,0,2.7-1.2,2.7-2.7V2.7
	C24,1.2,22.8,0,21.3,0z"/>
</svg>
