<svg width="26" height="26" viewBox="0 0 26 26" fill="none" xmlns="http://www.w3.org/2000/svg">
<g clip-path="url(#clip0_251_761)">
<path fill-rule="evenodd" clip-rule="evenodd" d="M22.2984 8.49657C20.5856 3.20444 14.9069 0.302873 9.61483 2.01572L9.14571 0.566313C15.2383 -1.40563 21.7759 1.93484 23.7478 8.02746C25.7198 14.1201 22.3793 20.6577 16.2867 22.6296C10.1941 24.6015 3.65646 21.261 1.68457 15.1684L3.13398 14.6993C4.84679 19.9914 10.5254 22.893 15.8176 21.1801C21.1097 19.4673 24.0113 13.7887 22.2984 8.49657Z" fill="#AA4693"/>
<path fill-rule="evenodd" clip-rule="evenodd" d="M7.84305 6.72473C5.15167 9.41611 5.15167 13.7797 7.84305 16.4711C10.5344 19.1625 14.898 19.1625 17.5894 16.4711C20.2808 13.7797 20.2808 9.41611 17.5894 6.72473C14.898 4.03334 10.5344 4.03334 7.84305 6.72473ZM6.76583 17.5483C3.47951 14.262 3.47951 8.93382 6.76583 5.6475C10.0521 2.36119 15.3803 2.36119 18.6666 5.6475C21.9529 8.93382 21.9529 14.262 18.6666 17.5483C15.3803 20.8346 10.0521 20.8346 6.76583 17.5483Z" fill="#AA4693"/>
<path fill-rule="evenodd" clip-rule="evenodd" d="M9.66202 7.2066C9.54917 8.57948 9.77721 10.4073 10.4047 12.3463C11.0322 14.2852 11.9183 15.9001 12.8141 16.9465C13.2632 17.4711 13.6893 17.8231 14.057 18.0143C14.4212 18.2037 14.671 18.2091 14.8378 18.1551C15.0047 18.1011 15.2039 17.9504 15.3881 17.5835C15.574 17.2131 15.7131 16.6782 15.7697 15.99C15.8826 14.6171 15.6545 12.7893 15.027 10.8503C14.3995 8.91141 13.5134 7.29653 12.6176 6.25009C12.1685 5.72551 11.7424 5.37353 11.3748 5.18232C11.0105 4.99286 10.7608 4.98745 10.5939 5.04146C10.427 5.09546 10.2278 5.24616 10.0436 5.61312C9.8577 5.98347 9.7186 6.51837 9.66202 7.2066ZM8.68209 4.92969C8.98581 4.32464 9.45337 3.80936 10.1248 3.59206C10.7963 3.37476 11.4771 3.51839 12.0777 3.83078C12.675 4.14141 13.2481 4.64407 13.7749 5.25939C14.8307 6.49276 15.8024 8.29871 16.4764 10.3813C17.1504 12.4638 17.421 14.4967 17.288 16.1148C17.2216 16.9221 17.0517 17.6652 16.7496 18.2669C16.4459 18.8719 15.9784 19.3872 15.3069 19.6045C14.6355 19.8218 13.9547 19.6782 13.354 19.3658C12.7568 19.0552 12.1836 18.5525 11.6569 17.9372C10.601 16.7038 9.62928 14.8979 8.9553 12.8153C8.28133 10.7328 8.01072 8.6999 8.14374 7.08179C8.2101 6.27452 8.38007 5.53136 8.68209 4.92969Z" fill="#AA4693"/>
<path fill-rule="evenodd" clip-rule="evenodd" d="M19.6228 10.1632L6.27868 14.4821L5.80957 13.0327L19.1537 8.71375L19.6228 10.1632Z" fill="#AA4693"/>
<path fill-rule="evenodd" clip-rule="evenodd" d="M18.7253 26H7.23633V24.4766H18.7253V26Z" fill="#AA4693"/>
<path fill-rule="evenodd" clip-rule="evenodd" d="M13.7432 22.4283V25.0392H12.2197V22.4283H13.7432Z" fill="#AA4693"/>
</g>
<defs>
<clipPath id="clip0_251_761">
<rect width="26" height="26" fill="white"/>
</clipPath>
</defs>
</svg>
