<svg width="28" height="28" viewBox="0 0 28 28" fill="none" xmlns="http://www.w3.org/2000/svg">
<g clip-path="url(#clip0_251_769)">
<path d="M27.9469 21.7249C27.9469 20.6582 27.2628 19.7488 26.3104 19.4109V10.945L28.0001 10.2696L13.9819 4.66663L0 10.2696L6.61816 12.9217V16.8155C6.61816 18.0159 7.45969 19.0977 8.98771 19.8617C10.3355 20.5356 12.1092 20.9068 13.9823 20.9068C15.8553 20.9068 17.6291 20.5356 18.9768 19.8617C20.5048 19.0977 21.3464 18.0159 21.3464 16.8155V12.9291L24.6739 11.5991V19.411C23.7215 19.7488 23.0374 20.6583 23.0374 21.725C23.0374 22.7008 23.6098 23.5454 24.4365 23.9407L23.0794 28.0121L24.6319 28.5296L25.4921 25.9489L26.3524 28.5296L27.9049 28.0121L26.5478 23.9407C27.3744 23.5453 27.9469 22.7008 27.9469 21.7249ZM19.7099 16.8155C19.7099 17.9742 17.2605 19.2702 13.9823 19.2702C10.7041 19.2702 8.25468 17.9742 8.25468 16.8155V13.5775L13.9819 15.8726L19.71 13.5831L19.7099 16.8155ZM13.9827 14.11L4.39933 10.2696L13.9827 6.42926L23.5908 10.2696L13.9827 14.11ZM25.4921 22.5432C25.041 22.5432 24.6739 22.1761 24.6739 21.7249C24.6739 21.2738 25.041 20.9067 25.4921 20.9067C25.9433 20.9067 26.3104 21.2738 26.3104 21.7249C26.3104 22.1761 25.9433 22.5432 25.4921 22.5432Z" fill="#AA4693"/>
</g>
<defs>
<clipPath id="clip0_251_769">
<rect width="28" height="28" fill="white"/>
</clipPath>
</defs>
</svg>
