<svg width="28" height="28" viewBox="0 0 28 28" fill="none" xmlns="http://www.w3.org/2000/svg">
<path fill-rule="evenodd" clip-rule="evenodd" d="M6.38281 13.2969C5.96213 13.2969 5.62109 13.6117 5.62109 14C5.62109 14.3883 5.96213 14.7031 6.38281 14.7031C6.8035 14.7031 7.14453 14.3883 7.14453 14C7.14453 13.6117 6.8035 13.2969 6.38281 13.2969ZM4.09766 14C4.09766 12.835 5.12076 11.8906 6.38281 11.8906C7.64487 11.8906 8.66797 12.835 8.66797 14C8.66797 15.165 7.64487 16.1094 6.38281 16.1094C5.12076 16.1094 4.09766 15.165 4.09766 14Z" fill="#473C90"/>
<path fill-rule="evenodd" clip-rule="evenodd" d="M12.4766 6.21875C12.0559 6.21875 11.7148 6.53355 11.7148 6.92188C11.7148 7.3102 12.0559 7.625 12.4766 7.625C12.8972 7.625 13.2383 7.3102 13.2383 6.92188C13.2383 6.53355 12.8972 6.21875 12.4766 6.21875ZM10.1914 6.92188C10.1914 5.7569 11.2145 4.8125 12.4766 4.8125C13.7386 4.8125 14.7617 5.7569 14.7617 6.92188C14.7617 8.08685 13.7386 9.03125 12.4766 9.03125C11.2145 9.03125 10.1914 8.08685 10.1914 6.92188Z" fill="#473C90"/>
<path fill-rule="evenodd" clip-rule="evenodd" d="M18.5703 10.4844C18.1496 10.4844 17.8086 10.7992 17.8086 11.1875C17.8086 11.5758 18.1496 11.8906 18.5703 11.8906C18.991 11.8906 19.332 11.5758 19.332 11.1875C19.332 10.7992 18.991 10.4844 18.5703 10.4844ZM16.2852 11.1875C16.2852 10.0225 17.3083 9.07812 18.5703 9.07812C19.8324 9.07812 20.8555 10.0225 20.8555 11.1875C20.8555 12.3525 19.8324 13.2969 18.5703 13.2969C17.3083 13.2969 16.2852 12.3525 16.2852 11.1875Z" fill="#473C90"/>
<path fill-rule="evenodd" clip-rule="evenodd" d="M2.30087 9.23718L5.84474 12.5084L4.7675 13.5028L1.22363 10.2316L2.30087 9.23718Z" fill="#473C90"/>
<path fill-rule="evenodd" clip-rule="evenodd" d="M12.1256 8.46L7.92706 13.3368L6.73438 12.4619L10.9329 7.58508L12.1256 8.46Z" fill="#473C90"/>
<path fill-rule="evenodd" clip-rule="evenodd" d="M16.8956 10.8981L13.2295 8.33181L14.15 7.2113L17.8162 9.77757L16.8956 10.8981Z" fill="#473C90"/>
<path fill-rule="evenodd" clip-rule="evenodd" d="M17.8086 25.2969V12.5938H19.332V25.2969H17.8086Z" fill="#473C90"/>
<path fill-rule="evenodd" clip-rule="evenodd" d="M5.62109 25.2969V15.4062H7.14453V25.2969H5.62109Z" fill="#473C90"/>
<path fill-rule="evenodd" clip-rule="evenodd" d="M11.7148 25.2969V8.32812H13.2383V25.2969H11.7148Z" fill="#473C90"/>
<path fill-rule="evenodd" clip-rule="evenodd" d="M24.7148 4.8125C24.2942 4.8125 23.9531 5.1273 23.9531 5.51562C23.9531 5.90395 24.2942 6.21875 24.7148 6.21875C25.1355 6.21875 25.4766 5.90395 25.4766 5.51562C25.4766 5.1273 25.1355 4.8125 24.7148 4.8125ZM22.4297 5.51562C22.4297 4.35065 23.4528 3.40625 24.7148 3.40625C25.9769 3.40625 27 4.35065 27 5.51562C27 6.6806 25.9769 7.625 24.7148 7.625C23.4528 7.625 22.4297 6.6806 22.4297 5.51562Z" fill="#473C90"/>
<path fill-rule="evenodd" clip-rule="evenodd" d="M23.9531 25.2969V6.92188H25.4766V25.2969H23.9531Z" fill="#473C90"/>
<path fill-rule="evenodd" clip-rule="evenodd" d="M1 2H2.52344V24.5938H27V26H1V2Z" fill="#473C90"/>
<path fill-rule="evenodd" clip-rule="evenodd" d="M19.1084 9.69597L23.0985 6.01282L24.1757 7.00719L20.1856 10.6903L19.1084 9.69597Z" fill="#473C90"/>
</svg>
