<svg width="24" height="24" viewBox="0 0 24 24" fill="none" xmlns="http://www.w3.org/2000/svg">
<path d="M15.5234 20.5277H7.16245V17.9285H15.5234V20.5277ZM8.24547 19.4447H14.4404V19.0115H8.24547V19.4447Z" fill="#F5F6FA"/>
<path d="M14.592 22.0655H8.09384V19.4446H14.592V22.0655ZM9.17687 20.9825H13.509V20.5276H9.17687V20.9825Z" fill="#F5F6FA"/>
<path d="M6.55053 9.44823H5.4675C5.46893 7.88991 6.08823 6.39574 7.18963 5.29334C8.29102 4.19093 9.78461 3.57025 11.3429 3.56738V4.65041C10.0718 4.65328 8.85373 5.15985 7.95544 6.05915C7.05716 6.95845 6.55196 8.17715 6.55053 9.44823Z" fill="#F5F6FA"/>
<path d="M20.5118 1.78939L17.7171 4.50806L18.4723 5.28436L21.267 2.56569L20.5118 1.78939Z" fill="#F5F6FA"/>
<path d="M21.6832 4.33928L18.8714 5.19946L19.1882 6.23511L22 5.37493L21.6832 4.33928Z" fill="#F5F6FA"/>
<path d="M17.8257 0.999996L16.7815 3.74878L17.794 4.13337L18.8381 1.38459L17.8257 0.999996Z" fill="#F5F6FA"/>
<path d="M14.6841 18.2533H13.6011C13.6011 15.9194 14.6841 14.6252 15.7292 13.3797C16.6931 12.2208 17.6028 11.127 17.6028 9.18836C17.6036 8.38336 17.4457 7.58611 17.1383 6.84212C16.8309 6.09813 16.38 5.42197 15.8113 4.85225C15.2425 4.28253 14.5672 3.8304 13.8237 3.52169C13.0803 3.21297 12.2833 3.05371 11.4783 3.053H11.2076C9.58367 3.05443 8.02671 3.70015 6.87845 4.84842C5.73018 5.99668 5.08446 7.55364 5.08303 9.17753C5.08303 11.1161 5.99277 12.21 6.95667 13.3688C8.00179 14.6252 9.08482 15.9194 9.08482 18.2425H8.00179C8.00179 16.3039 7.08663 15.21 6.12274 14.0512C5.07761 12.7948 4 11.5006 4 9.17753C4.00143 7.2664 4.76126 5.43397 6.11263 4.0826C7.464 2.73123 9.29643 1.9714 11.2076 1.96997H11.4783C13.3894 1.9714 15.2219 2.73123 16.5732 4.0826C17.9246 5.43397 18.6844 7.2664 18.6859 9.17753C18.6859 11.5115 17.6028 12.8057 16.5631 14.0512C15.5992 15.2208 14.6841 16.3039 14.6841 18.2533Z" fill="#F5F6FA"/>
</svg>
