<?xml version="1.0" encoding="utf-8"?>
<!-- Generator: Adobe Illustrator 24.0.1, SVG Export Plug-In . SVG Version: 6.00 Build 0)  -->
<svg version="1.1" id="Camada_1" xmlns="http://www.w3.org/2000/svg" xmlns:xlink="http://www.w3.org/1999/xlink" x="0px" y="0px"
	 viewBox="0 0 24 24" style="enable-background:new 0 0 24 24;" xml:space="preserve">
<style type="text/css">
	.st0{fill:#DCE5ED;}
</style>
<g>
	<path class="st0" d="M17.7,7.1c-1.6,0-2.8,0.5-3.7,1.2c0-1.5-1.6-0.7-5.2-0.9C8.3,7.5,8,7.8,8,8.2C8.3,22.4,7.3,24,8.7,24h4.7
		c1.4,0,0.5-1.9,0.8-8.2c0-2.6,0.8-3.1,2-3.1c1.4,0,1.7,1,1.7,3.2c0.3,6.2-0.6,8.1,0.8,8.1c0.1,0,4.8,0,4.7,0c0.4,0,0.8-0.3,0.8-0.8
		C23.6,15.4,25.8,7.1,17.7,7.1z"/>
	<path class="st0" d="M6.5,8.2c0-1.3-1.9-0.5-5.4-0.8c-1.4,0-0.4,1.6-0.8,15.8c0,0.4,0.3,0.8,0.8,0.8h4.7C7.2,24,6.2,22.4,6.5,8.2z"
		/>
	<path class="st0" d="M3.5,0c-4.6,0-4.5,6.9,0,6.9C8,6.9,8,0,3.5,0z"/>
</g>
</svg>
