<svg width="24" height="24" viewBox="0 0 24 24" fill="none" xmlns="http://www.w3.org/2000/svg">
<path d="M9.54915 17.0983C8.05607 17.0983 6.59652 16.6555 5.35507 15.826C4.11362 14.9965 3.14602 13.8175 2.57465 12.4381C2.00327 11.0587 1.85377 9.54077 2.14506 8.07638C2.43634 6.61199 3.15533 5.26686 4.2111 4.2111C5.26686 3.15533 6.61199 2.43634 8.07638 2.14506C9.54077 1.85377 11.0587 2.00327 12.4381 2.57465C13.8175 3.14602 14.9965 4.11362 15.826 5.35507C16.6555 6.59652 17.0983 8.05607 17.0983 9.54915C17.0969 11.5509 16.3011 13.4703 14.8857 14.8857C13.4703 16.3011 11.5509 17.0969 9.54915 17.0983ZM9.54915 3.02223C8.25824 3.02223 6.99633 3.40503 5.92299 4.12221C4.84964 4.8394 4.01307 5.85877 3.51906 7.0514C3.02505 8.24404 2.8958 9.55639 3.14764 10.8225C3.39948 12.0886 4.02111 13.2516 4.93392 14.1644C5.84672 15.0772 7.00971 15.6988 8.27581 15.9506C9.54191 16.2025 10.8542 16.0732 12.0469 15.5792C13.2395 15.0852 14.2589 14.2487 14.9761 13.1753C15.6933 12.102 16.0761 10.84 16.0761 9.54915C16.0747 7.81852 15.3866 6.15916 14.1629 4.93541C12.9391 3.71167 11.2798 3.02358 9.54915 3.02223Z" fill="#F5F6FA"/>
<path d="M9.54911 15.4066C8.38941 15.4066 7.25576 15.0626 6.29157 14.4182C5.32738 13.7738 4.57598 12.8579 4.13241 11.7864C3.68885 10.7149 3.57305 9.53587 3.79967 8.39852C4.02629 7.26117 4.58514 6.21659 5.40553 5.39691C6.22593 4.57724 7.271 4.01929 8.40854 3.79367C9.54608 3.56804 10.725 3.68487 11.7961 4.12937C12.8673 4.57387 13.7825 5.32607 14.4261 6.29082C15.0696 7.25557 15.4126 8.38952 15.4116 9.54922C15.4102 11.1032 14.792 12.593 13.6927 13.6913C12.5934 14.7896 11.1031 15.4066 9.54911 15.4066ZM9.54911 4.70898C8.5918 4.70898 7.65599 4.99286 6.86002 5.52471C6.06405 6.05656 5.44366 6.8125 5.07731 7.69694C4.71097 8.58138 4.61511 9.55459 4.80188 10.4935C4.98864 11.4324 5.44963 12.2949 6.12655 12.9718C6.80347 13.6487 7.66591 14.1097 8.60483 14.2965C9.54375 14.4832 10.517 14.3874 11.4014 14.021C12.2858 13.6547 13.0418 13.0343 13.5736 12.2383C14.1055 11.4423 14.3894 10.5065 14.3894 9.54922C14.388 8.26593 13.8776 7.03558 12.9702 6.12815C12.0628 5.22072 10.8324 4.71033 9.54911 4.70898Z" fill="#F5F6FA"/>
<path d="M12.1405 7.76047C11.8997 7.41197 11.5912 7.11564 11.2332 6.8892C10.8753 6.66277 10.4753 6.51088 10.0573 6.44264C9.63924 6.3744 9.21175 6.39121 8.80037 6.49206C8.38899 6.59291 8.00219 6.77573 7.66312 7.02957L7.04468 6.21179C7.49446 5.87552 8.00738 5.6333 8.55283 5.4996C9.09828 5.3659 9.66507 5.34347 10.2194 5.43362C10.7737 5.52378 11.3041 5.72469 11.7791 6.02436C12.2541 6.32403 12.6638 6.71631 12.9838 7.1778L12.1405 7.76047Z" fill="#F5F6FA"/>
<path d="M20.0372 22L13.2445 15.2124L15.4576 13.0044L22.2452 19.792L20.0372 22ZM14.691 15.2124L20.0372 20.5586L20.7988 19.792L15.4576 14.4508L14.691 15.2124Z" fill="#F5F6FA"/>
<path d="M19.4713 17.655L17.8955 19.2307L18.6183 19.9535L20.1941 18.3778L19.4713 17.655Z" fill="#F5F6FA"/>
</svg>
