<svg width="28" height="28" viewBox="0 0 28 28" fill="none" xmlns="http://www.w3.org/2000/svg">
<path fill-rule="evenodd" clip-rule="evenodd" d="M9.18515 4.82812H4.78418V23.7627L6.98466 25.9632L9.18515 23.7627V4.82812ZM6.18874 6.23269V23.181L6.98466 23.9769L7.78058 23.181V6.23269H6.18874Z" fill="#473C90"/>
<path fill-rule="evenodd" clip-rule="evenodd" d="M4.78418 2.00989H9.18515V6.23252H4.78418V2.00989ZM6.18874 3.41445V4.82796H7.78058V3.41445H6.18874Z" fill="#473C90"/>
<path fill-rule="evenodd" clip-rule="evenodd" d="M5.18755 4.82812H8.48277V6.23269H5.78518L3.40456 8.70638V11.7818H2V8.1403L5.18755 4.82812Z" fill="#473C90"/>
<path fill-rule="evenodd" clip-rule="evenodd" d="M8.48273 22.1231H5.48633V20.7185H8.48273V22.1231Z" fill="#473C90"/>
<path fill-rule="evenodd" clip-rule="evenodd" d="M12.8782 2L15.0787 4.20048V23.7995C15.0787 25.0148 14.0935 26 12.8782 26C11.6629 26 10.6777 25.0148 10.6777 23.7995V4.20048L11.6325 3.24569C11.6564 3.22187 11.6194 3.25881 11.6432 3.23499L12.8782 2ZM12.0823 4.78227V23.7995C12.0823 24.2391 12.4386 24.5954 12.8782 24.5954C13.3178 24.5954 13.6741 24.2391 13.6741 23.7995V4.78227L13.3688 4.47689C13.3393 4.44746 13.3871 4.49526 13.3577 4.46585L12.8782 3.98635L12.1157 4.74883C12.0939 4.77064 12.1314 4.73314 12.1096 4.75495L12.0823 4.78227ZM13.1133 3.75126C13.1076 3.75695 13.1005 3.7641 13.1049 3.75968L13.1133 3.75126Z" fill="#473C90"/>
<path fill-rule="evenodd" clip-rule="evenodd" d="M11.3799 6.30835H14.3763V7.71291H11.3799V6.30835Z" fill="#473C90"/>
<path fill-rule="evenodd" clip-rule="evenodd" d="M11.3799 20.7185H14.3763V22.1231H11.3799V20.7185Z" fill="#473C90"/>
<path fill-rule="evenodd" clip-rule="evenodd" d="M11.3799 18.0752H14.3763V19.4798H11.3799V18.0752Z" fill="#473C90"/>
<path fill-rule="evenodd" clip-rule="evenodd" d="M21.2796 13.9271C19.4593 13.9271 17.9837 15.4028 17.9837 17.2231V21.285C17.9837 23.1053 19.4593 24.5809 21.2796 24.5809C23.0999 24.5809 24.5755 23.1053 24.5756 21.285C24.5756 21.285 24.5756 21.285 24.5756 21.285V17.2231C24.5756 15.4028 23.0999 13.9271 21.2796 13.9271ZM16.5791 17.2231C16.5791 14.6271 18.6836 12.5226 21.2796 12.5226C23.8756 12.5226 25.9801 14.6271 25.9801 17.2231V21.285C25.9801 23.881 23.8757 25.9855 21.2796 25.9855C18.6836 25.9855 16.5791 23.881 16.5791 21.285V17.2231Z" fill="#473C90"/>
<path fill-rule="evenodd" clip-rule="evenodd" d="M17.2822 18.8845V17.48H25.2786V18.8845H17.2822Z" fill="#473C90"/>
<path fill-rule="evenodd" clip-rule="evenodd" d="M25.1425 2.01929V6.14744C25.1425 7.40815 24.1206 8.43014 22.8598 8.43014C22.3749 8.43014 21.9817 8.82329 21.9817 9.30828V18.1822H20.5771V9.30828C20.5771 8.04757 21.5991 7.02558 22.8598 7.02558C23.3448 7.02558 23.738 6.63243 23.738 6.14744V2.01929H25.1425Z" fill="#473C90"/>
</svg>
