<?xml version="1.0" encoding="utf-8"?>
<!-- Generator: Adobe Illustrator 24.0.1, SVG Export Plug-In . SVG Version: 6.00 Build 0)  -->
<svg version="1.1" id="Camada_1" xmlns="http://www.w3.org/2000/svg" xmlns:xlink="http://www.w3.org/1999/xlink" x="0px" y="0px"
	 viewBox="0 0 24 24" style="enable-background:new 0 0 24 24;" xml:space="preserve">
<style type="text/css">
	.st0{fill:#DCE5ED;}
</style>
<path class="st0" d="M22.7,3.4c-0.9,0.5-1.7,0.7-2.5,0.4c-1.7-1.7-4.2-2-6.3-0.9c-1.9,1-2.9,2.8-2.8,4.8C7.9,7.4,5,5.8,3,3.3
	C2.7,3,2.1,3,1.8,3.4c-1,1.7-1,3.6-0.1,5.2C1.3,8.7,1,9,1,9.4c0,1.6,0.7,3,1.8,4c-0.2,0.2-0.3,0.5-0.2,0.8c0.5,1.5,1.6,2.7,3,3.3
	c-1.5,0.7-3.2,1-4.8,0.8c-0.8-0.1-1.2,0.9-0.5,1.4C2.7,21,5.3,21.8,8,21.8c3.9,0,7.5-1.5,10.1-4.2c2.5-2.6,3.9-6.1,3.8-9.7
	c0.9-0.8,2-2.3,2-3.8C23.9,3.4,23.3,3.1,22.7,3.4z"/>
</svg>
