<svg width="146" height="48" viewBox="0 0 146 48" fill="none" xmlns="http://www.w3.org/2000/svg">
<g clip-path="url(#clip0_219_22)">
<path d="M61.4903 36.6504V45.2097H60.7386V36.7635L61.4903 36.6504Z" fill="white"/>
<path d="M65.4744 39.1767C66.3013 39.1767 66.9027 39.4784 67.3161 40.044C67.7295 40.6096 67.9175 41.3637 67.9175 42.3441H63.5575C63.5575 43.0982 63.7454 43.7015 64.0837 44.1163C64.422 44.531 64.9858 44.7573 65.7375 44.7573C66.0758 44.7573 66.3765 44.7196 66.6396 44.6441C66.9027 44.5687 67.2409 44.4179 67.5416 44.2671L67.8047 44.8327C67.4664 45.0212 67.1282 45.172 66.8275 45.2474C66.5268 45.3229 66.1509 45.3983 65.7375 45.3983C64.7603 45.3983 64.0085 45.1343 63.5199 44.5687C63.0313 44.0031 62.7682 43.249 62.7682 42.3064C62.7682 41.4014 62.9937 40.6473 63.4823 40.0817C63.971 39.5161 64.6475 39.1767 65.4744 39.1767ZM65.4368 39.8177C64.873 39.8177 64.4596 40.0063 64.1589 40.3456C63.8582 40.7227 63.6703 41.1752 63.6327 41.7785H67.2033C67.053 40.4588 66.4516 39.8177 65.4368 39.8177Z" fill="white"/>
<path d="M71.3002 39.8177C70.9243 39.8177 70.6236 39.8555 70.3981 39.9309C70.1726 40.0063 69.9095 40.0817 69.6088 40.2325L69.3833 39.7046C69.6088 39.5538 69.8719 39.4407 70.2854 39.3276C70.6988 39.2144 70.9995 39.1767 71.2626 39.1767C71.9391 39.1767 72.4653 39.3653 72.8412 39.7046C73.2171 40.044 73.4426 40.5342 73.4426 41.0998V45.2097H72.8412L72.7284 44.5687C72.5405 44.795 72.2774 44.9458 71.9391 45.1343C71.6009 45.2851 71.2626 45.3606 70.9619 45.3606C70.3229 45.3606 69.8343 45.2097 69.4961 44.8704C69.1578 44.531 69.0074 44.1163 69.0074 43.5507C69.0074 42.9851 69.1954 42.5703 69.5712 42.2686C69.9471 41.967 70.4733 41.8162 71.0747 41.8162H72.6908V41.2129C72.6908 40.7981 72.5781 40.4588 72.3526 40.1948C72.0895 39.9309 71.7512 39.8177 71.3002 39.8177ZM71.0371 42.3064C70.6236 42.3064 70.2854 42.4195 70.0598 42.6834C69.8343 42.9097 69.7216 43.2113 69.7216 43.5884C69.7216 43.89 69.8343 44.1917 70.0223 44.4179C70.2102 44.6441 70.5109 44.7573 70.9243 44.7573C71.2626 44.7573 71.6009 44.6818 71.9015 44.4933C72.2022 44.3048 72.4653 44.0785 72.6908 43.8146V42.3441H71.0371V42.3064Z" fill="white"/>
<path d="M76.675 40.2702C76.2615 40.4965 75.9608 40.7604 75.6977 41.0243V45.2097H74.946V39.3276H75.4346L75.6601 40.2702C75.9232 40.044 76.2615 39.8177 76.6374 39.6292C77.0132 39.4407 77.3139 39.3276 77.6146 39.3276L77.8025 39.9309C77.4643 39.9309 77.0884 40.044 76.675 40.2702Z" fill="white"/>
<path d="M81.5235 39.8177C81.2228 39.8177 80.847 39.9309 80.4711 40.1571C80.0577 40.3833 79.7194 40.685 79.4563 41.0243V45.2097H78.7046V39.3276H79.306L79.4187 40.2325C79.6818 39.9309 80.0201 39.7046 80.4335 39.4784C80.847 39.2522 81.2604 39.1767 81.5987 39.1767C82.2001 39.1767 82.6511 39.3653 82.9518 39.7046C83.2525 40.044 83.4028 40.5342 83.4028 41.1375V45.2097H82.6511V41.2883C82.6511 40.3079 82.2752 39.8177 81.5235 39.8177Z" fill="white"/>
<path d="M85.8835 37.48C85.8835 37.6308 85.8083 37.7816 85.6955 37.8947C85.5828 38.0078 85.4324 38.0456 85.2821 38.0456C85.1317 38.0456 84.9814 38.0078 84.8686 37.8947C84.7559 37.7816 84.7183 37.6685 84.7183 37.48C84.7183 37.3291 84.7559 37.1783 84.8686 37.0652C84.9814 36.9521 85.0941 36.9144 85.2821 36.9144C85.4324 36.9144 85.5828 36.9521 85.6955 37.0652C85.8083 37.1783 85.8835 37.3291 85.8835 37.48ZM85.6955 39.3276V45.2097H84.9438V39.3276H85.6955Z" fill="white"/>
<path d="M90.0931 39.8177C89.7924 39.8177 89.4165 39.9309 89.0407 40.1571C88.6272 40.3833 88.289 40.685 88.0259 41.0243V45.2097H87.2741V39.3276H87.8755L87.9883 40.2325C88.2514 39.9309 88.5896 39.7046 89.0031 39.4784C89.4165 39.2522 89.83 39.1767 90.1682 39.1767C90.7696 39.1767 91.2206 39.3653 91.5213 39.7046C91.822 40.044 91.9724 40.5342 91.9724 41.1375V45.2097H91.2206V41.2883C91.2206 40.3079 90.8448 39.8177 90.0931 39.8177Z" fill="white"/>
<path d="M98.0237 45.9639C98.0237 46.3409 97.9109 46.6803 97.723 47.0196C97.535 47.359 97.2344 47.5852 96.8585 47.736C96.4826 47.9246 96.0316 48 95.543 48C95.2799 48 94.9416 47.9623 94.5282 47.8492C94.1147 47.7361 93.7765 47.6229 93.551 47.5098L93.7765 46.9442C94.0396 47.0573 94.3027 47.1705 94.5658 47.2459C94.8289 47.3213 95.1671 47.359 95.5054 47.359C96.0316 47.359 96.4451 47.2459 96.7833 46.9819C97.1216 46.7557 97.2719 46.3786 97.2719 45.9262V44.8327C96.8209 45.172 96.3323 45.3229 95.8061 45.3229C94.9792 45.3229 94.3027 45.0589 93.8516 44.4933C93.4006 43.9277 93.1375 43.1736 93.1375 42.2309C93.1375 41.6276 93.2503 41.0998 93.4758 40.6473C93.7013 40.1948 94.002 39.8177 94.4154 39.5538C94.8289 39.2899 95.3175 39.139 95.8813 39.139C96.3699 39.139 96.8961 39.3276 97.3847 39.7423L97.535 39.2899H98.0237V45.9639ZM97.2719 44.0785V40.3456C97.084 40.1571 96.8585 40.0063 96.633 39.9309C96.4075 39.8177 96.1444 39.78 95.8061 39.78C95.2047 39.78 94.7161 40.0063 94.3778 40.4588C94.0396 40.9112 93.8892 41.5145 93.8892 42.2309C93.8892 42.9851 94.0396 43.5884 94.3778 44.0408C94.6785 44.4933 95.1671 44.7196 95.8061 44.7196C96.3323 44.7196 96.8585 44.531 97.2719 44.0785Z" fill="white"/>
<path d="M104.037 45.3606C103.774 45.3606 103.436 45.3229 103.06 45.2474C102.684 45.172 102.421 45.0589 102.196 44.9081L102.421 44.3425C102.985 44.6064 103.511 44.7573 104.037 44.7573C104.526 44.7573 104.939 44.6818 105.203 44.4933C105.466 44.3425 105.616 44.0785 105.616 43.7392C105.616 43.2867 105.09 42.8342 104.037 42.4949C103.474 42.3064 103.023 42.0801 102.684 41.8162C102.346 41.5522 102.158 41.2129 102.158 40.7981C102.158 40.3079 102.346 39.8932 102.722 39.5915C103.098 39.2899 103.624 39.1767 104.3 39.1767C104.564 39.1767 104.864 39.2144 105.24 39.3276C105.616 39.4407 105.879 39.5538 106.067 39.6669L105.841 40.1948C105.578 40.0817 105.315 39.9686 105.09 39.8932C104.864 39.8177 104.601 39.78 104.263 39.78C103.849 39.78 103.511 39.8555 103.248 40.044C102.985 40.2325 102.835 40.4588 102.835 40.7227C102.835 40.9866 102.985 41.1752 103.248 41.3637C103.511 41.5522 103.887 41.7031 104.376 41.8539C105.691 42.3064 106.33 42.9097 106.33 43.6638C106.33 44.1917 106.142 44.5687 105.729 44.8704C105.353 45.2097 104.751 45.3606 104.037 45.3606Z" fill="white"/>
<path d="M109.826 45.3606C109.262 45.3606 108.811 45.2097 108.397 44.9458C107.984 44.6818 107.683 44.3048 107.495 43.8523C107.27 43.3621 107.195 42.8342 107.195 42.2309C107.195 41.6654 107.307 41.1375 107.533 40.6473C107.758 40.1948 108.097 39.8177 108.51 39.5538C108.924 39.2899 109.412 39.139 109.976 39.139C110.84 39.139 111.517 39.403 111.968 39.9686C112.457 40.5342 112.682 41.2883 112.682 42.2687C112.682 42.872 112.569 43.3998 112.344 43.8523C112.118 44.3048 111.78 44.6818 111.329 44.9458C110.878 45.2097 110.427 45.3606 109.826 45.3606ZM111.93 42.3064C111.93 41.5522 111.78 40.9489 111.442 40.4965C111.103 40.044 110.615 39.8177 109.976 39.8177C109.337 39.8177 108.848 40.044 108.51 40.4965C108.134 40.9489 107.984 41.5145 107.946 42.2309C107.946 42.9851 108.097 43.5884 108.435 44.0408C108.773 44.4933 109.262 44.7196 109.901 44.7196C110.54 44.7196 111.028 44.4933 111.367 44.0408C111.705 43.5884 111.93 43.0228 111.93 42.3064Z" fill="white"/>
<path d="M114.787 36.6504V45.2097H114.035V36.7635L114.787 36.6504Z" fill="white"/>
<path d="M118.282 44.7195C118.583 44.7195 118.959 44.6064 119.335 44.3802C119.748 44.154 120.087 43.8523 120.35 43.5129V39.3276H121.101V45.2097H120.5L120.387 44.3048C120.124 44.6064 119.786 44.8327 119.372 45.0589C118.959 45.2474 118.545 45.3606 118.207 45.3606C117.606 45.3606 117.155 45.172 116.854 44.8327C116.553 44.4933 116.403 44.0031 116.403 43.3998V39.3276H117.155V43.249C117.155 44.2294 117.531 44.7195 118.282 44.7195Z" fill="white"/>
<path d="M123.732 39.4407H124.785L125.048 40.0063H123.732V43.7015C123.732 44.0031 123.808 44.2671 123.92 44.4179C124.071 44.6064 124.259 44.6818 124.559 44.6818C124.71 44.6818 124.898 44.6441 125.048 44.5687L125.198 45.172C125.161 45.172 125.085 45.2097 124.973 45.2474C124.822 45.2851 124.634 45.3228 124.409 45.3228C123.958 45.3228 123.62 45.172 123.356 44.9081C123.093 44.6441 122.981 44.2671 122.981 43.7392V39.9686H122.116V39.403H122.981V37.8947L123.732 37.6308V39.4407V39.4407Z" fill="white"/>
<path d="M127.228 37.48C127.228 37.6308 127.153 37.7816 127.04 37.8947C126.927 38.0078 126.777 38.0456 126.626 38.0456C126.476 38.0456 126.326 38.0078 126.213 37.8947C126.1 37.7816 126.063 37.6685 126.063 37.48C126.063 37.3291 126.1 37.1783 126.213 37.0652C126.326 36.9521 126.439 36.9144 126.626 36.9144C126.777 36.9144 126.927 36.9521 127.04 37.0652C127.19 37.1783 127.228 37.3291 127.228 37.48ZM127.04 39.3276V45.2097H126.288V39.3276H127.04Z" fill="white"/>
<path d="M130.911 45.3606C130.347 45.3606 129.896 45.2097 129.483 44.9458C129.07 44.6818 128.769 44.3048 128.581 43.8523C128.355 43.3621 128.28 42.8342 128.28 42.2309C128.28 41.6654 128.393 41.1375 128.618 40.6473C128.844 40.1948 129.182 39.8177 129.596 39.5538C130.009 39.2899 130.498 39.139 131.062 39.139C131.926 39.139 132.603 39.403 133.054 39.9686C133.542 40.5342 133.768 41.2883 133.768 42.2687C133.768 42.872 133.655 43.3998 133.429 43.8523C133.204 44.3048 132.866 44.6818 132.415 44.9458C131.964 45.2097 131.475 45.3606 130.911 45.3606ZM133.016 42.3064C133.016 41.5522 132.866 40.9489 132.527 40.4965C132.189 40.044 131.701 39.8177 131.062 39.8177C130.423 39.8177 129.934 40.044 129.596 40.4965C129.22 40.9489 129.07 41.5145 129.032 42.2309C129.032 42.9851 129.182 43.5884 129.521 44.0408C129.859 44.4933 130.347 44.7196 130.986 44.7196C131.625 44.7196 132.114 44.4933 132.452 44.0408C132.791 43.5884 133.016 43.0228 133.016 42.3064Z" fill="white"/>
<path d="M137.789 39.8177C137.489 39.8177 137.113 39.9309 136.737 40.1571C136.324 40.3833 135.985 40.685 135.722 41.0243V45.2097H134.97V39.3276H135.572L135.685 40.2325C135.948 39.9309 136.286 39.7046 136.699 39.4784C137.113 39.2522 137.526 39.1767 137.865 39.1767C138.466 39.1767 138.917 39.3653 139.218 39.7046C139.518 40.044 139.669 40.5342 139.669 41.1375V45.2097H138.917V41.2883C138.917 40.3079 138.541 39.8177 137.789 39.8177Z" fill="white"/>
<path d="M142.713 45.3606C142.45 45.3606 142.112 45.3229 141.736 45.2474C141.36 45.172 141.097 45.0589 140.871 44.9081L141.097 44.3425C141.661 44.6064 142.187 44.7573 142.713 44.7573C143.202 44.7573 143.615 44.6818 143.878 44.4933C144.141 44.3425 144.292 44.0785 144.292 43.7392C144.292 43.2867 143.766 42.8342 142.713 42.4949C142.149 42.3064 141.698 42.0801 141.36 41.8162C141.022 41.5522 140.834 41.2129 140.834 40.7981C140.834 40.3079 141.022 39.8932 141.398 39.5915C141.774 39.2899 142.3 39.1767 142.976 39.1767C143.239 39.1767 143.54 39.2144 143.916 39.3276C144.292 39.4407 144.555 39.5538 144.743 39.6669L144.517 40.1948C144.254 40.0817 143.991 39.9686 143.766 39.8932C143.54 39.8177 143.277 39.78 142.939 39.78C142.525 39.78 142.187 39.8555 141.924 40.044C141.661 40.2325 141.51 40.4588 141.51 40.7227C141.51 40.9866 141.661 41.1752 141.924 41.3637C142.187 41.5522 142.563 41.7031 143.051 41.8539C144.367 42.3064 145.006 42.9097 145.006 43.6638C145.006 44.1917 144.818 44.5687 144.405 44.8704C144.029 45.2097 143.465 45.3606 142.713 45.3606Z" fill="white"/>
<path d="M5.14925 23.7926V30.165H0V2.37549L5.14925 1.92302V17.835L13.4557 10.2184L16.3498 13.9136L10.8999 18.6269L18.0036 30.165H12.065L7.21647 21.945L5.14925 23.7926Z" fill="white"/>
<path d="M28.7155 10.2561C30.67 10.2561 32.2862 10.7086 33.6017 11.6135C34.9172 12.5185 35.8944 13.7251 36.5334 15.271C37.1723 16.817 37.473 18.5137 37.473 20.3991V21.9827H24.5059C24.769 23.3401 25.3328 24.3959 26.2349 25.1123C27.1369 25.8287 28.49 26.2058 30.3317 26.2058C31.3841 26.2058 32.3613 26.055 33.1882 25.7533C34.0527 25.4517 34.9548 25.0369 35.932 24.4713L37.4354 28.2419C36.4582 29.0338 35.4058 29.5994 34.2406 30.0141C33.1131 30.4289 31.76 30.6174 30.1814 30.6174C26.498 30.6174 23.7166 29.7125 21.8373 27.9026C19.9204 26.0927 18.9808 23.6041 18.9808 20.4368C18.9808 18.4006 19.3567 16.5907 20.146 15.0448C20.9353 13.4988 22.0628 12.2922 23.5287 11.4627C24.9945 10.6709 26.7235 10.2561 28.7155 10.2561ZM28.6028 14.6677C27.5504 14.6677 26.6483 15.0071 25.9342 15.6481C25.22 16.2891 24.769 17.2694 24.5435 18.5137H32.6244C32.3613 17.2317 31.8727 16.2891 31.1962 15.6481C30.5572 15.0071 29.6552 14.6677 28.6028 14.6677Z" fill="white"/>
<path d="M69.5713 15.8743C68.2933 16.5153 67.0906 17.3449 65.963 18.3252V30.165H60.7762V10.784H63.4824L65.2113 14.0267C66.1509 13.1972 67.2409 12.4431 68.4813 11.802C69.7216 11.1233 70.8492 10.784 71.7888 10.784L72.8412 14.9317C71.9392 14.9317 70.8492 15.2333 69.5713 15.8743Z" fill="white"/>
<path d="M84.5304 30.6174C82.4632 30.6174 80.6591 30.2027 79.0805 29.3731C77.5394 28.5436 76.3367 27.3747 75.4722 25.8288C74.6078 24.2828 74.1943 22.5106 74.1943 20.4368C74.1943 18.4006 74.6078 16.5907 75.4722 15.0448C76.3367 13.4988 77.5394 12.2922 79.0805 11.4627C80.6215 10.6332 82.4632 10.2184 84.5304 10.2184C86.5976 10.2184 88.4017 10.6332 89.9803 11.4627C91.5213 12.2922 92.7241 13.4611 93.5886 15.0071C94.453 16.553 94.8665 18.3252 94.8665 20.3991C94.8665 22.4352 94.453 24.2451 93.5886 25.791C92.7241 27.337 91.5213 28.5436 89.9803 29.3731C88.4017 30.2027 86.5976 30.6174 84.5304 30.6174ZM89.4917 20.3991C89.4917 18.7023 89.0407 17.3449 88.101 16.2891C87.1614 15.2333 85.9587 14.7054 84.5304 14.7054C83.1021 14.7054 81.8994 15.2333 80.9597 16.3268C80.0201 17.4203 79.5315 18.8154 79.5315 20.4745C79.5315 22.1713 79.9825 23.5287 80.9222 24.5844C81.8618 25.6402 83.0646 26.1681 84.4928 26.1681C85.9211 26.1681 87.1238 25.6402 88.0635 24.5467C89.0407 23.4533 89.4917 22.0958 89.4917 20.3991Z" fill="white"/>
<path d="M43.5399 9.90029L38.9965 12.0805L47.1056 29.0879L51.649 26.9077L43.5399 9.90029Z" fill="white"/>
<path d="M45.9298 30.3158C45.1781 32.5405 43.6747 34.8782 38.4127 35.5947L39.0516 40.1948C44.9526 39.3653 48.5984 36.6504 50.2898 31.824L57.3935 11.425C59.3479 6.674 61.34 5.39199 64.8355 4.48704L63.6703 0C59.0848 1.2066 55.7021 3.24273 53.0711 9.7282L45.9298 30.3158Z" fill="#AA4693"/>
</g>
<defs>
<clipPath id="clip0_219_22">
<rect width="145.043" height="48" fill="white"/>
</clipPath>
</defs>
</svg>
