<svg width="146" height="48" viewBox="0 0 146 48" fill="none" xmlns="http://www.w3.org/2000/svg">
<g clip-path="url(#clip0_219_687)">
<path d="M61.49 36.6504V45.2097H60.7383V36.7635L61.49 36.6504Z" fill="white"/>
<path d="M65.4738 39.1767C66.3006 39.1767 66.902 39.4784 67.3155 40.044C67.7289 40.6096 67.9168 41.3637 67.9168 42.3441H63.5569C63.5569 43.0982 63.7448 43.7015 64.0831 44.1163C64.4214 44.531 64.9851 44.7573 65.7369 44.7573C66.0751 44.7573 66.3758 44.7196 66.6389 44.6441C66.902 44.5687 67.2403 44.4179 67.541 44.2671L67.8041 44.8327C67.4658 45.0212 67.1275 45.172 66.8268 45.2474C66.5262 45.3229 66.1503 45.3983 65.7369 45.3983C64.7596 45.3983 64.0079 45.1343 63.5193 44.5687C63.0307 44.0031 62.7676 43.249 62.7676 42.3064C62.7676 41.4014 62.9931 40.6473 63.4817 40.0817C63.9703 39.5161 64.6469 39.1767 65.4738 39.1767ZM65.4362 39.8177C64.8724 39.8177 64.4589 40.0063 64.1583 40.3456C63.8576 40.7227 63.6696 41.1752 63.6321 41.7785H67.2027C67.0524 40.4588 66.451 39.8177 65.4362 39.8177Z" fill="white"/>
<path d="M71.2996 39.8177C70.9237 39.8177 70.623 39.8555 70.3975 39.9309C70.172 40.0063 69.9089 40.0817 69.6082 40.2325L69.3827 39.7046C69.6082 39.5538 69.8713 39.4407 70.2847 39.3276C70.6982 39.2144 70.9989 39.1767 71.262 39.1767C71.9385 39.1767 72.4647 39.3653 72.8406 39.7046C73.2164 40.044 73.442 40.5342 73.442 41.0998V45.2097H72.8406L72.7278 44.5687C72.5399 44.795 72.2768 44.9458 71.9385 45.1343C71.6002 45.2851 71.262 45.3606 70.9613 45.3606C70.3223 45.3606 69.8337 45.2097 69.4954 44.8704C69.1572 44.531 69.0068 44.1163 69.0068 43.5507C69.0068 42.9851 69.1948 42.5703 69.5706 42.2687C69.9465 41.967 70.4727 41.8162 71.0741 41.8162H72.6902V41.2129C72.6902 40.7981 72.5775 40.4588 72.352 40.1948C72.0889 39.9309 71.7506 39.8177 71.2996 39.8177ZM71.0365 42.3064C70.623 42.3064 70.2847 42.4195 70.0592 42.6834C69.8337 42.9097 69.721 43.2113 69.721 43.5884C69.721 43.89 69.8337 44.1917 70.0217 44.4179C70.2096 44.6441 70.5103 44.7573 70.9237 44.7573C71.262 44.7573 71.6003 44.6818 71.9009 44.4933C72.2016 44.3048 72.4647 44.0785 72.6902 43.8146V42.3441H71.0365V42.3064Z" fill="white"/>
<path d="M76.6743 40.2702C76.2608 40.4965 75.9601 40.7604 75.697 41.0243V45.2097H74.9453V39.3276H75.4339L75.6594 40.2702C75.9225 40.044 76.2608 39.8177 76.6367 39.6292C77.0125 39.4407 77.3132 39.3276 77.6139 39.3276L77.8018 39.9309C77.4636 39.9309 77.0877 40.044 76.6743 40.2702Z" fill="white"/>
<path d="M81.523 39.8177C81.2223 39.8177 80.8465 39.9309 80.4706 40.1571C80.0572 40.3833 79.7189 40.685 79.4558 41.0243V45.2097H78.7041V39.3276H79.3055L79.4182 40.2325C79.6813 39.9309 80.0196 39.7046 80.433 39.4784C80.8465 39.2522 81.2599 39.1767 81.5982 39.1767C82.1996 39.1767 82.6506 39.3653 82.9513 39.7046C83.252 40.044 83.4023 40.5342 83.4023 41.1375V45.2097H82.6506V41.2883C82.6506 40.3079 82.2747 39.8177 81.523 39.8177Z" fill="white"/>
<path d="M85.8829 37.48C85.8829 37.6308 85.8078 37.7816 85.695 37.8947C85.5822 38.0078 85.4319 38.0456 85.2816 38.0456C85.1312 38.0456 84.9809 38.0078 84.8681 37.8947C84.7554 37.7816 84.7178 37.6685 84.7178 37.48C84.7178 37.3291 84.7554 37.1783 84.8681 37.0652C84.9809 36.9521 85.0936 36.9144 85.2816 36.9144C85.4319 36.9144 85.5822 36.9521 85.695 37.0652C85.8078 37.1783 85.8829 37.3291 85.8829 37.48ZM85.695 39.3276V45.2097H84.9433V39.3276H85.695Z" fill="white"/>
<path d="M90.0924 39.8177C89.7917 39.8177 89.4158 39.9309 89.04 40.1571C88.6265 40.3833 88.2883 40.685 88.0252 41.0243V45.2097H87.2734V39.3276H87.8748L87.9876 40.2325C88.2507 39.9309 88.5889 39.7046 89.0024 39.4784C89.4158 39.2522 89.8293 39.1767 90.1675 39.1767C90.7689 39.1767 91.2199 39.3653 91.5206 39.7046C91.8213 40.044 91.9717 40.5342 91.9717 41.1375V45.2097H91.2199V41.2883C91.2199 40.3079 90.8441 39.8177 90.0924 39.8177Z" fill="white"/>
<path d="M98.0238 45.9639C98.0238 46.3409 97.9111 46.6803 97.7232 47.0196C97.5352 47.359 97.2345 47.5852 96.8587 47.736C96.4828 47.9246 96.0318 48 95.5432 48C95.2801 48 94.9418 47.9623 94.5284 47.8492C94.1149 47.7361 93.7766 47.6229 93.5511 47.5098L93.7767 46.9442C94.0398 47.0573 94.3029 47.1705 94.566 47.2459C94.8291 47.3213 95.1673 47.359 95.5056 47.359C96.0318 47.359 96.4452 47.2459 96.7835 46.9819C97.1218 46.7557 97.2721 46.3786 97.2721 45.9262V44.8327C96.8211 45.172 96.3325 45.3229 95.8063 45.3229C94.9794 45.3229 94.3029 45.0589 93.8518 44.4933C93.4008 43.9277 93.1377 43.1736 93.1377 42.2309C93.1377 41.6276 93.2505 41.0998 93.476 40.6473C93.7015 40.1948 94.0022 39.8177 94.4156 39.5538C94.8291 39.2899 95.3177 39.139 95.8815 39.139C96.3701 39.139 96.8963 39.3276 97.3849 39.7423L97.5352 39.2899H98.0238V45.9639ZM97.2721 44.0785V40.3456C97.0842 40.1571 96.8587 40.0063 96.6332 39.9309C96.4077 39.8177 96.1446 39.78 95.8063 39.78C95.2049 39.78 94.7163 40.0063 94.378 40.4588C94.0398 40.9112 93.8894 41.5145 93.8894 42.2309C93.8894 42.9851 94.0398 43.5884 94.378 44.0408C94.6787 44.4933 95.1673 44.7196 95.8063 44.7196C96.3325 44.7196 96.8587 44.531 97.2721 44.0785Z" fill="white"/>
<path d="M104.037 45.3606C103.774 45.3606 103.436 45.3229 103.06 45.2474C102.684 45.172 102.421 45.0589 102.196 44.9081L102.421 44.3425C102.985 44.6064 103.511 44.7573 104.037 44.7573C104.526 44.7573 104.94 44.6818 105.203 44.4933C105.466 44.3425 105.616 44.0785 105.616 43.7392C105.616 43.2867 105.09 42.8342 104.037 42.4949C103.474 42.3064 103.023 42.0801 102.684 41.8162C102.346 41.5522 102.158 41.2129 102.158 40.7981C102.158 40.3079 102.346 39.8932 102.722 39.5915C103.098 39.2899 103.624 39.1767 104.301 39.1767C104.564 39.1767 104.864 39.2144 105.24 39.3276C105.616 39.4407 105.879 39.5538 106.067 39.6669L105.842 40.1948C105.579 40.0817 105.315 39.9686 105.09 39.8932C104.864 39.8177 104.601 39.78 104.263 39.78C103.85 39.78 103.511 39.8555 103.248 40.044C102.985 40.2325 102.835 40.4588 102.835 40.7227C102.835 40.9866 102.985 41.1752 103.248 41.3637C103.511 41.5522 103.887 41.7031 104.376 41.8539C105.691 42.3064 106.33 42.9097 106.33 43.6638C106.33 44.1917 106.142 44.5687 105.729 44.8704C105.353 45.2097 104.752 45.3606 104.037 45.3606Z" fill="white"/>
<path d="M109.825 45.3606C109.262 45.3606 108.811 45.2097 108.397 44.9458C107.984 44.6818 107.683 44.3048 107.495 43.8523C107.27 43.3621 107.194 42.8342 107.194 42.2309C107.194 41.6654 107.307 41.1375 107.533 40.6473C107.758 40.1948 108.096 39.8177 108.51 39.5538C108.923 39.2899 109.412 39.139 109.976 39.139C110.84 39.139 111.517 39.403 111.968 39.9686C112.456 40.5342 112.682 41.2883 112.682 42.2687C112.682 42.872 112.569 43.3998 112.344 43.8523C112.118 44.3048 111.78 44.6818 111.329 44.9458C110.878 45.2097 110.427 45.3606 109.825 45.3606ZM111.93 42.3064C111.93 41.5522 111.78 40.9489 111.442 40.4965C111.103 40.044 110.615 39.8177 109.976 39.8177C109.337 39.8177 108.848 40.044 108.51 40.4965C108.134 40.9489 107.984 41.5145 107.946 42.2309C107.946 42.9851 108.096 43.5884 108.435 44.0408C108.773 44.4933 109.262 44.7196 109.901 44.7196C110.539 44.7196 111.028 44.4933 111.366 44.0408C111.705 43.5884 111.93 43.0228 111.93 42.3064Z" fill="white"/>
<path d="M114.787 36.6504V45.2097H114.035V36.7635L114.787 36.6504Z" fill="white"/>
<path d="M118.282 44.7195C118.582 44.7195 118.958 44.6064 119.334 44.3802C119.747 44.154 120.086 43.8523 120.349 43.5129V39.3276H121.101V45.2097H120.499L120.386 44.3048C120.123 44.6064 119.785 44.8327 119.372 45.0589C118.958 45.2474 118.545 45.3606 118.206 45.3606C117.605 45.3606 117.154 45.172 116.853 44.8327C116.553 44.4933 116.402 44.0031 116.402 43.3998V39.3276H117.154V43.249C117.154 44.2294 117.53 44.7195 118.282 44.7195Z" fill="white"/>
<path d="M123.732 39.4407H124.785L125.048 40.0063H123.732V43.7015C123.732 44.0031 123.808 44.2671 123.92 44.4179C124.071 44.6064 124.259 44.6818 124.559 44.6818C124.71 44.6818 124.898 44.6441 125.048 44.5687L125.198 45.172C125.161 45.172 125.085 45.2097 124.973 45.2474C124.822 45.2851 124.634 45.3228 124.409 45.3228C123.958 45.3228 123.62 45.172 123.357 44.9081C123.093 44.6441 122.981 44.2671 122.981 43.7392V39.9686H122.116V39.403H122.981V37.8947L123.732 37.6308V39.4407Z" fill="white"/>
<path d="M127.228 37.48C127.228 37.6308 127.152 37.7816 127.04 37.8947C126.927 38.0078 126.777 38.0456 126.626 38.0456C126.476 38.0456 126.326 38.0078 126.213 37.8947C126.1 37.7816 126.062 37.6685 126.062 37.48C126.062 37.3291 126.1 37.1783 126.213 37.0652C126.326 36.9521 126.438 36.9144 126.626 36.9144C126.777 36.9144 126.927 36.9521 127.04 37.0652C127.19 37.1783 127.228 37.3291 127.228 37.48ZM127.04 39.3276V45.2097H126.288V39.3276H127.04Z" fill="white"/>
<path d="M130.911 45.3606C130.347 45.3606 129.896 45.2097 129.483 44.9458C129.07 44.6818 128.769 44.3048 128.581 43.8523C128.355 43.3621 128.28 42.8342 128.28 42.2309C128.28 41.6654 128.393 41.1375 128.619 40.6473C128.844 40.1948 129.182 39.8177 129.596 39.5538C130.009 39.2899 130.498 39.139 131.062 39.139C131.926 39.139 132.603 39.403 133.054 39.9686C133.542 40.5342 133.768 41.2883 133.768 42.2687C133.768 42.872 133.655 43.3998 133.43 43.8523C133.204 44.3048 132.866 44.6818 132.415 44.9458C131.964 45.2097 131.475 45.3606 130.911 45.3606ZM133.016 42.3064C133.016 41.5522 132.866 40.9489 132.527 40.4965C132.189 40.044 131.701 39.8177 131.062 39.8177C130.423 39.8177 129.934 40.044 129.596 40.4965C129.22 40.9489 129.07 41.5145 129.032 42.2309C129.032 42.9851 129.182 43.5884 129.521 44.0408C129.859 44.4933 130.347 44.7196 130.986 44.7196C131.625 44.7196 132.114 44.4933 132.452 44.0408C132.791 43.5884 133.016 43.0228 133.016 42.3064Z" fill="white"/>
<path d="M137.789 39.8177C137.488 39.8177 137.112 39.9309 136.736 40.1571C136.323 40.3833 135.985 40.685 135.721 41.0243V45.2097H134.97V39.3276H135.571L135.684 40.2325C135.947 39.9309 136.285 39.7046 136.699 39.4784C137.112 39.2522 137.526 39.1767 137.864 39.1767C138.465 39.1767 138.916 39.3653 139.217 39.7046C139.518 40.044 139.668 40.5342 139.668 41.1375V45.2097H138.916V41.2883C138.916 40.3079 138.54 39.8177 137.789 39.8177Z" fill="white"/>
<path d="M142.713 45.3606C142.45 45.3606 142.112 45.3229 141.736 45.2474C141.36 45.172 141.097 45.0589 140.872 44.9081L141.097 44.3425C141.661 44.6064 142.187 44.7573 142.713 44.7573C143.202 44.7573 143.615 44.6818 143.878 44.4933C144.142 44.3425 144.292 44.0785 144.292 43.7392C144.292 43.2867 143.766 42.8342 142.713 42.4949C142.149 42.3064 141.698 42.0801 141.36 41.8162C141.022 41.5522 140.834 41.2129 140.834 40.7981C140.834 40.3079 141.022 39.8932 141.398 39.5915C141.774 39.2899 142.3 39.1767 142.976 39.1767C143.239 39.1767 143.54 39.2144 143.916 39.3276C144.292 39.4407 144.555 39.5538 144.743 39.6669L144.517 40.1948C144.254 40.0817 143.991 39.9686 143.766 39.8932C143.54 39.8177 143.277 39.78 142.939 39.78C142.525 39.78 142.187 39.8555 141.924 40.044C141.661 40.2325 141.511 40.4588 141.511 40.7227C141.511 40.9866 141.661 41.1752 141.924 41.3637C142.187 41.5522 142.563 41.7031 143.052 41.8539C144.367 42.3064 145.006 42.9097 145.006 43.6638C145.006 44.1917 144.818 44.5687 144.405 44.8704C144.029 45.2097 143.465 45.3606 142.713 45.3606Z" fill="white"/>
<path d="M5.14925 23.7926V30.165H0V2.37549L5.14925 1.92302V17.835L13.4557 10.2184L16.3498 13.9136L10.8999 18.6269L18.0036 30.165H12.065L7.21647 21.945L5.14925 23.7926Z" fill="white"/>
<path d="M28.7152 10.2561C30.6696 10.2561 32.2858 10.7086 33.6013 11.6135C34.9168 12.5185 35.8941 13.7251 36.533 15.271C37.172 16.817 37.4727 18.5137 37.4727 20.3991V21.9827H24.5056C24.7687 23.3401 25.3325 24.3959 26.2345 25.1123C27.1366 25.8287 28.4897 26.2058 30.3314 26.2058C31.3838 26.2058 32.361 26.055 33.1879 25.7533C34.0524 25.4517 34.9544 25.0369 35.9317 24.4713L37.4351 28.2419C36.4578 29.0338 35.4054 29.5994 34.2403 30.0141C33.1127 30.4289 31.7596 30.6174 30.181 30.6174C26.4976 30.6174 23.7163 29.7125 21.837 27.9026C19.9201 26.0927 18.9805 23.6041 18.9805 20.4368C18.9805 18.4006 19.3563 16.5907 20.1456 15.0448C20.9349 13.4988 22.0625 12.2922 23.5283 11.4627C24.9942 10.6709 26.7231 10.2561 28.7152 10.2561ZM28.6024 14.6677C27.55 14.6677 26.648 15.0071 25.9338 15.6481C25.2197 16.2891 24.7687 17.2694 24.5432 18.5137H32.6241C32.361 17.2317 31.8724 16.2891 31.1958 15.6481C30.5569 15.0071 29.6548 14.6677 28.6024 14.6677Z" fill="white"/>
<path d="M69.5714 15.8743C68.2935 16.5153 67.0908 17.3449 65.9632 18.3252V30.165H60.7764V10.784H63.4825L65.2115 14.0267C66.1511 13.1972 67.2411 12.4431 68.4814 11.802C69.7218 11.1233 70.8494 10.784 71.789 10.784L72.8414 14.9317C71.9393 14.9317 70.8494 15.2333 69.5714 15.8743Z" fill="white"/>
<path d="M84.5304 30.6174C82.4632 30.6174 80.6591 30.2027 79.0805 29.3731C77.5395 28.5436 76.3367 27.3747 75.4723 25.8288C74.6078 24.2828 74.1943 22.5106 74.1943 20.4368C74.1943 18.4006 74.6078 16.5907 75.4723 15.0448C76.3367 13.4988 77.5395 12.2922 79.0805 11.4627C80.6215 10.6332 82.4632 10.2184 84.5304 10.2184C86.5976 10.2184 88.4018 10.6332 89.9804 11.4627C91.5214 12.2922 92.7241 13.4611 93.5886 15.0071C94.4531 16.553 94.8665 18.3252 94.8665 20.3991C94.8665 22.4352 94.4531 24.2451 93.5886 25.791C92.7241 27.337 91.5214 28.5436 89.9804 29.3731C88.4018 30.2027 86.5976 30.6174 84.5304 30.6174ZM89.4917 20.3991C89.4917 18.7023 89.0407 17.3449 88.1011 16.2891C87.1614 15.2333 85.9587 14.7054 84.5304 14.7054C83.1022 14.7054 81.8994 15.2333 80.9598 16.3268C80.0201 17.4203 79.5315 18.8154 79.5315 20.4745C79.5315 22.1713 79.9825 23.5287 80.9222 24.5844C81.8618 25.6402 83.0646 26.1681 84.4928 26.1681C85.9211 26.1681 87.1238 25.6402 88.0635 24.5467C89.0407 23.4533 89.4917 22.0958 89.4917 20.3991Z" fill="white"/>
<path d="M43.5395 9.90029L38.9961 12.0805L47.1052 29.0879L51.6486 26.9077L43.5395 9.90029Z" fill="white"/>
<path d="M45.9302 30.3158C45.1785 32.5405 43.6751 34.8782 38.4131 35.5947L39.052 40.1948C44.953 39.3653 48.5988 36.6504 50.2902 31.824L57.3939 11.425C59.3484 6.674 61.3404 5.39199 64.8359 4.48704L63.6707 0C59.0853 1.2066 55.7025 3.24273 53.0715 9.7282L45.9302 30.3158Z" fill="#473C90"/>
</g>
<defs>
<clipPath id="clip0_219_687">
<rect width="145.043" height="48" fill="white"/>
</clipPath>
</defs>
</svg>
